<svg width="69" height="18" viewBox="0 0 69 18" fill="none" xmlns="http://www.w3.org/2000/svg">
<path d="M9.44297 0.703886C8.96811 1.03946 8.20833 1.03312 7.16997 1.03312C6.92304 1.03312 6.66345 1.02679 6.38487 1.03312C2.84557 1.06478 0.996776 3.2808 0.996776 7.9661V8.76386C0.996776 12.2968 2.82024 14.1899 5.76438 14.1899C8.70219 14.1899 10.5193 12.2968 10.5193 9.32737C10.5193 6.4782 8.85415 4.77503 6.37221 4.77503C4.80833 4.77503 3.7573 5.4525 3.17481 6.64282H3.07983C3.30777 4.25585 4.2195 3.27447 6.47351 3.24914C8.46793 3.21748 9.43664 3.14784 10.2661 2.46404L9.44297 0.703886ZM5.77705 12.1006C4.50442 12.1006 3.73831 11.0749 3.73831 9.41601C3.75097 7.75716 4.51075 6.8201 5.76438 6.8201C7.01168 6.8201 7.77779 7.75716 7.77779 9.41601C7.77779 11.0812 7.01168 12.1006 5.77705 12.1006ZM10.8913 17.6469H13.5885L14.4496 12.4425H14.5446C14.7852 13.2529 15.4436 14.1583 17.0138 14.1583C19.2299 14.1583 21.2559 12.4045 21.7941 9.15008C22.345 5.80706 20.8254 4.14821 18.6917 4.14821C17.0645 4.14821 16.1084 5.11693 15.6272 5.90837H15.5133L15.7792 4.27484H13.12L10.8913 17.6469ZM14.9498 9.13742C15.2284 7.4026 16.1591 6.29459 17.4634 6.29459C18.7993 6.29459 19.3058 7.45325 19.0399 9.13742C18.7423 10.8343 17.8496 12.0119 16.52 12.0119C15.222 12.0119 14.6712 10.8722 14.9498 9.13742ZM27.9863 14.1899C30.9368 14.1899 32.7729 12.1702 32.7729 9.17541C32.7729 6.16162 30.9368 4.14821 27.9863 4.14821C25.0358 4.14821 23.1997 6.16162 23.1997 9.17541C23.1997 12.1702 25.0358 14.1899 27.9863 14.1899ZM27.999 12.1006C26.6377 12.1006 25.9412 10.8533 25.9412 9.15642C25.9412 7.45958 26.6377 6.20594 27.999 6.20594C29.3349 6.20594 30.0314 7.45958 30.0314 9.15642C30.0314 10.8533 29.3349 12.1006 27.999 12.1006ZM37.9267 4.27484H35.3561L33.7353 14H36.3059L36.9453 10.1821H40.2694L39.6299 14H42.1878L43.8087 4.27484H41.2508L40.6176 8.06107H37.2936L37.9267 4.27484ZM48.0903 4.27484H45.3995L43.7786 14H46.4695L47.0963 10.2581H48.6095C48.6159 12.6071 50.0341 14.1899 52.5477 14.1899C55.4349 14.1899 57.5686 12.0942 58.0624 9.14375C58.55 6.19328 57.1064 4.14821 54.2192 4.14821C51.674 4.14821 49.7175 5.73108 48.9514 8.11805H47.4509L48.0903 4.27484ZM52.9149 12.0119C51.408 12.0119 50.9775 10.8216 51.2624 9.14375C51.5347 7.46591 52.3514 6.29459 53.8583 6.29459C55.3526 6.29459 55.7641 7.47857 55.4918 9.14375C55.2196 10.8026 54.4092 12.0119 52.9149 12.0119ZM62.4723 10.4417V4.27484H59.8954V14H62.5736L66.0623 7.81414V14H68.6328V4.27484H65.9736L62.4723 10.4417ZM65.5114 0.881168C65.5114 1.47633 65.1569 2.0145 64.2578 2.0145C63.3334 2.0145 62.9915 1.46366 62.9978 0.881168H61.13C61.13 2.41339 62.3393 3.43909 64.2578 3.43909C66.1762 3.43909 67.3855 2.41339 67.3919 0.881168H65.5114Z" fill="white"/>
</svg>
