<svg width="1024" height="1024" viewBox="0 0 1024 1024" fill="none" xmlns="http://www.w3.org/2000/svg">
<rect width="1024" height="1024" fill="#080808"/>
<path d="M185.6 586.4C173.6 586.4 162.72 584.16 152.96 579.68C143.36 575.2 135.6 568.96 129.68 560.96C123.76 552.96 120.32 543.76 119.36 533.36L121.28 530.72L154.64 525.68C155.6 535.44 159.04 542.96 164.96 548.24C171.04 553.52 178.56 556.16 187.52 556.16C195.52 556.16 202 554.08 206.96 549.92C211.92 545.76 214.4 539.92 214.4 532.4C214.4 526.32 212.72 521.52 209.36 518C206.16 514.32 202 511.52 196.88 509.6C191.76 507.68 184.72 505.68 175.76 503.6C159.92 499.76 147.6 494.32 138.8 487.28C130.16 480.24 125.84 470.4 125.84 457.76C125.84 448.8 128.24 440.96 133.04 434.24C138 427.52 144.8 422.4 153.44 418.88C162.08 415.36 171.84 413.6 182.72 413.6C200.32 413.6 214.24 417.84 224.48 426.32C234.72 434.64 240.88 445.76 242.96 459.68L241.04 462.32L210.08 465.68C209.12 457.68 206.24 451.44 201.44 446.96C196.8 442.48 190.4 440.24 182.24 440.24C175.84 440.24 170.64 441.68 166.64 444.56C162.64 447.28 160.64 450.96 160.64 455.6C160.64 459.6 162.08 462.96 164.96 465.68C168 468.24 172 470.4 176.96 472.16C182.08 473.76 189.12 475.6 198.08 477.68C214.24 481.52 226.96 487.36 236.24 495.2C245.68 503.04 250.4 514.64 250.4 530C250.4 541.52 247.52 551.6 241.76 560.24C236.16 568.72 228.4 575.2 218.48 579.68C208.72 584.16 197.76 586.4 185.6 586.4ZM270.024 464H303.624V476.96C313.544 466.72 326.424 461.6 342.264 461.6C351.544 461.6 360.504 464 369.144 468.8C377.784 473.44 384.824 480.48 390.264 489.92C395.704 499.2 398.424 510.56 398.424 524C398.424 537.44 395.544 548.88 389.784 558.32C384.184 567.6 376.744 574.64 367.464 579.44C358.344 584.08 348.584 586.4 338.184 586.4C331.464 586.4 325.064 585.28 318.984 583.04C313.064 580.8 307.944 577.84 303.624 574.16V632H270.024V464ZM333.384 558.56C342.504 558.56 349.944 555.52 355.704 549.44C361.464 543.36 364.344 534.88 364.344 524C364.344 513.12 361.384 504.64 355.464 498.56C349.704 492.48 342.184 489.44 332.904 489.44C324.584 489.44 317.624 492.08 312.024 497.36C306.424 502.48 303.624 509.44 303.624 518.24V529.76C303.624 538.4 306.424 545.36 312.024 550.64C317.784 555.92 324.904 558.56 333.384 558.56ZM473.739 586.4C461.259 586.4 450.059 583.68 440.139 578.24C430.219 572.8 422.459 565.36 416.859 555.92C411.259 546.48 408.459 535.84 408.459 524C408.459 512.16 411.259 501.52 416.859 492.08C422.459 482.64 430.219 475.2 440.139 469.76C450.059 464.32 461.259 461.6 473.739 461.6C486.379 461.6 497.659 464.32 507.579 469.76C517.499 475.2 525.259 482.64 530.859 492.08C536.459 501.52 539.259 512.16 539.259 524C539.259 535.84 536.459 546.48 530.859 555.92C525.259 565.36 517.499 572.8 507.579 578.24C497.659 583.68 486.379 586.4 473.739 586.4ZM473.739 557.36C483.019 557.36 490.619 554.4 496.539 548.48C502.619 542.4 505.659 534.24 505.659 524C505.659 513.76 502.619 505.68 496.539 499.76C490.619 493.68 483.019 490.64 473.739 490.64C464.459 490.64 456.859 493.68 450.939 499.76C445.019 505.68 442.059 513.76 442.059 524C442.059 534.24 445.019 542.4 450.939 548.48C456.859 554.4 464.459 557.36 473.739 557.36ZM593.064 586.4C583.624 586.4 576.104 583.84 570.504 578.72C565.064 573.6 562.344 566 562.344 555.92C562.344 552.24 562.664 548.72 563.304 545.36L572.904 491.84H551.544L556.344 464H577.704L583.704 429.68H588.024L615.624 439.76L611.064 464H636.504L631.704 491.84H606.264L596.904 545.36C596.424 547.76 596.184 549.36 596.184 550.16C596.184 553.2 597.144 555.44 599.064 556.88C601.144 558.16 603.864 558.8 607.224 558.8C610.584 558.8 613.944 558.24 617.304 557.12L618.744 558.08L614.184 584C607.464 585.6 600.424 586.4 593.064 586.4ZM681.02 586.4C671.58 586.4 664.06 583.84 658.46 578.72C653.02 573.6 650.3 566 650.3 555.92C650.3 552.24 650.62 548.72 651.26 545.36L660.86 491.84H639.5L644.3 464H665.66L671.66 429.68H675.98L703.58 439.76L699.02 464H724.46L719.66 491.84H694.22L684.86 545.36C684.38 547.76 684.14 549.36 684.14 550.16C684.14 553.2 685.1 555.44 687.02 556.88C689.1 558.16 691.82 558.8 695.18 558.8C698.54 558.8 701.9 558.24 705.26 557.12L706.7 558.08L702.14 584C695.42 585.6 688.38 586.4 681.02 586.4ZM731.536 408.8H765.136V584H731.536V408.8ZM826.497 580.88L777.057 464H815.457L839.937 523.76L841.137 541.28H843.057L873.537 464H909.057L840.897 632H805.857L826.497 580.88Z" fill="#3357F3"/>
</svg>
