<svg width="791" height="224" viewBox="0 0 791 224" fill="none" xmlns="http://www.w3.org/2000/svg">
<path d="M66.6 178.4C54.6 178.4 43.72 176.16 33.96 171.68C24.36 167.2 16.6 160.96 10.68 152.96C4.76 144.96 1.32 135.76 0.36 125.36L2.28 122.72L35.64 117.68C36.6 127.44 40.04 134.96 45.96 140.24C52.04 145.52 59.56 148.16 68.52 148.16C76.52 148.16 83 146.08 87.96 141.92C92.92 137.76 95.4 131.92 95.4 124.4C95.4 118.32 93.72 113.52 90.36 110C87.16 106.32 83 103.52 77.88 101.6C72.76 99.68 65.72 97.68 56.76 95.6C40.92 91.76 28.6 86.32 19.8 79.28C11.16 72.24 6.84 62.4 6.84 49.76C6.84 40.8 9.24 32.96 14.04 26.24C19 19.52 25.8 14.4 34.44 10.88C43.08 7.35999 52.84 5.59999 63.72 5.59999C81.32 5.59999 95.24 9.83999 105.48 18.32C115.72 26.64 121.88 37.76 123.96 51.68L122.04 54.32L91.08 57.68C90.12 49.68 87.24 43.44 82.44 38.96C77.8 34.48 71.4 32.24 63.24 32.24C56.84 32.24 51.64 33.68 47.64 36.56C43.64 39.28 41.64 42.96 41.64 47.6C41.64 51.6 43.08 54.96 45.96 57.68C49 60.24 53 62.4 57.96 64.16C63.08 65.76 70.12 67.6 79.08 69.68C95.24 73.52 107.96 79.36 117.24 87.2C126.68 95.04 131.4 106.64 131.4 122C131.4 133.52 128.52 143.6 122.76 152.24C117.16 160.72 109.4 167.2 99.48 171.68C89.72 176.16 78.76 178.4 66.6 178.4ZM151.024 56H184.624V68.96C194.544 58.72 207.424 53.6 223.264 53.6C232.544 53.6 241.504 56 250.144 60.8C258.784 65.44 265.824 72.48 271.264 81.92C276.704 91.2 279.424 102.56 279.424 116C279.424 129.44 276.544 140.88 270.784 150.32C265.184 159.6 257.744 166.64 248.464 171.44C239.344 176.08 229.584 178.4 219.184 178.4C212.464 178.4 206.064 177.28 199.984 175.04C194.064 172.8 188.944 169.84 184.624 166.16V224H151.024V56ZM214.384 150.56C223.504 150.56 230.944 147.52 236.704 141.44C242.464 135.36 245.344 126.88 245.344 116C245.344 105.12 242.384 96.64 236.464 90.56C230.704 84.48 223.184 81.44 213.904 81.44C205.584 81.44 198.624 84.08 193.024 89.36C187.424 94.48 184.624 101.44 184.624 110.24V121.76C184.624 130.4 187.424 137.36 193.024 142.64C198.784 147.92 205.904 150.56 214.384 150.56ZM354.739 178.4C342.259 178.4 331.059 175.68 321.139 170.24C311.219 164.8 303.459 157.36 297.859 147.92C292.259 138.48 289.459 127.84 289.459 116C289.459 104.16 292.259 93.52 297.859 84.08C303.459 74.64 311.219 67.2 321.139 61.76C331.059 56.32 342.259 53.6 354.739 53.6C367.379 53.6 378.659 56.32 388.579 61.76C398.499 67.2 406.259 74.64 411.859 84.08C417.459 93.52 420.259 104.16 420.259 116C420.259 127.84 417.459 138.48 411.859 147.92C406.259 157.36 398.499 164.8 388.579 170.24C378.659 175.68 367.379 178.4 354.739 178.4ZM354.739 149.36C364.019 149.36 371.619 146.4 377.539 140.48C383.619 134.4 386.659 126.24 386.659 116C386.659 105.76 383.619 97.68 377.539 91.76C371.619 85.68 364.019 82.64 354.739 82.64C345.459 82.64 337.859 85.68 331.939 91.76C326.019 97.68 323.059 105.76 323.059 116C323.059 126.24 326.019 134.4 331.939 140.48C337.859 146.4 345.459 149.36 354.739 149.36ZM474.064 178.4C464.624 178.4 457.104 175.84 451.504 170.72C446.064 165.6 443.344 158 443.344 147.92C443.344 144.24 443.664 140.72 444.304 137.36L453.904 83.84H432.544L437.344 56H458.704L464.704 21.68H469.024L496.624 31.76L492.064 56H517.504L512.704 83.84H487.264L477.904 137.36C477.424 139.76 477.184 141.36 477.184 142.16C477.184 145.2 478.144 147.44 480.064 148.88C482.144 150.16 484.864 150.8 488.224 150.8C491.584 150.8 494.944 150.24 498.304 149.12L499.744 150.08L495.184 176C488.464 177.6 481.424 178.4 474.064 178.4ZM562.02 178.4C552.58 178.4 545.06 175.84 539.46 170.72C534.02 165.6 531.3 158 531.3 147.92C531.3 144.24 531.62 140.72 532.26 137.36L541.86 83.84H520.5L525.3 56H546.66L552.66 21.68H556.98L584.58 31.76L580.02 56H605.46L600.66 83.84H575.22L565.86 137.36C565.38 139.76 565.14 141.36 565.14 142.16C565.14 145.2 566.1 147.44 568.02 148.88C570.1 150.16 572.82 150.8 576.18 150.8C579.54 150.8 582.9 150.24 586.26 149.12L587.7 150.08L583.14 176C576.42 177.6 569.38 178.4 562.02 178.4ZM612.536 0.799995H646.136V176H612.536V0.799995ZM707.497 172.88L658.057 56H696.457L720.937 115.76L722.137 133.28H724.057L754.537 56H790.057L721.897 224H686.857L707.497 172.88Z" fill="white"/>
</svg>
