<svg width="9" height="15" viewBox="0 0 9 15" fill="none" xmlns="http://www.w3.org/2000/svg">
<path fill-rule="evenodd" clip-rule="evenodd" d="M8.00242 0.827186C7.83524 0.660053 7.60853 0.566162 7.37215 0.566162C7.13576 0.566162 6.90905 0.660053 6.74187 0.827186L0.501564 7.06781C0.334439 7.23499 0.240554 7.46171 0.240554 7.69811C0.240554 7.93451 0.334439 8.16123 0.501564 8.32841L6.74187 14.569C6.91001 14.7314 7.1352 14.8213 7.36894 14.8193C7.60268 14.8172 7.82627 14.7235 7.99156 14.5582C8.15684 14.3929 8.2506 14.1693 8.25263 13.9355C8.25466 13.7018 8.16481 13.4766 8.00242 13.3084L2.39238 7.69811L8.00242 2.08779C8.16954 1.92061 8.26343 1.69389 8.26343 1.45749C8.26343 1.22109 8.16954 0.99437 8.00242 0.827186Z" fill="#686C7C"/>
</svg>
