<svg width="115" height="30" fill="none" xmlns="http://www.w3.org/2000/svg"><path d="M14.415.628c-.798.564-2.077.554-3.824.554-.416 0-.852-.01-1.321 0C3.315 1.235.204 4.964.204 12.847v1.343c0 5.944 3.068 9.13 8.022 9.13 4.943 0 8-3.186 8-8.182 0-4.794-2.801-7.66-6.977-7.66-2.632 0-4.4 1.14-5.38 3.143h-.16c.383-4.017 1.917-5.668 5.71-5.71 3.356-.054 4.986-.17 6.381-1.322L14.415.628zM8.247 19.804c-2.141 0-3.43-1.726-3.43-4.517.021-2.791 1.3-4.368 3.409-4.368 2.099 0 3.388 1.577 3.388 4.368 0 2.802-1.29 4.517-3.367 4.517zm8.605 9.332h4.539l1.449-8.757H23c.404 1.364 1.512 2.887 4.154 2.887 3.729 0 7.138-2.95 8.044-8.426.926-5.626-1.63-8.417-5.22-8.417-2.739 0-4.347 1.63-5.157 2.962h-.192l.448-2.749h-4.475l-3.75 22.5zm6.83-14.318c.468-2.919 2.034-4.783 4.229-4.783 2.248 0 3.1 1.95 2.652 4.783-.5 2.855-2.002 4.837-4.24 4.837-2.184 0-3.11-1.918-2.642-4.837zm21.935 8.502c4.964 0 8.054-3.399 8.054-8.438 0-5.07-3.09-8.459-8.054-8.459-4.965 0-8.054 3.388-8.054 8.46 0 5.038 3.09 8.437 8.054 8.437zm.021-3.516c-2.29 0-3.462-2.099-3.462-4.954 0-2.855 1.171-4.964 3.462-4.964 2.248 0 3.42 2.109 3.42 4.964 0 2.855-1.172 4.954-3.42 4.954zM62.343 6.636h-4.326L55.29 23h4.325l1.076-6.424h5.593L65.208 23h4.304L72.24 6.636h-4.304l-1.066 6.371h-5.593l1.066-6.37zm17.1 0h-4.527L72.19 23h4.528l1.054-6.296h2.546c.011 3.952 2.398 6.616 6.627 6.616 4.858 0 8.448-3.527 9.279-8.491.82-4.965-1.609-8.406-6.467-8.406-4.282 0-7.574 2.664-8.863 6.68h-2.525l1.076-6.467zm8.119 13.019c-2.536 0-3.26-2.003-2.78-4.826.457-2.823 1.832-4.794 4.367-4.794 2.514 0 3.207 1.992 2.749 4.794-.458 2.791-1.822 4.826-4.336 4.826zm16.081-2.642V6.636h-4.336V23h4.507l5.87-10.408V23h4.325V6.636h-4.475l-5.891 10.377zM108.757.926c0 1.002-.597 1.907-2.11 1.907-1.555 0-2.13-.927-2.12-1.907h-3.142c0 2.578 2.034 4.304 5.262 4.304 3.228 0 5.263-1.726 5.274-4.304h-3.164z" fill="#000"/></svg>