<svg width="115" height="30" viewBox="0 0 115 30" fill="none" xmlns="http://www.w3.org/2000/svg">
<path d="M14.4975 0.627839C13.6985 1.19247 12.4201 1.18182 10.6729 1.18182C10.2575 1.18182 9.82067 1.17116 9.35192 1.18182C3.39666 1.23508 0.285867 4.96378 0.285867 12.8473V14.1896C0.285867 20.1342 3.35405 23.3196 8.30788 23.3196C13.2511 23.3196 16.3086 20.1342 16.3086 15.1378C16.3086 10.3438 13.5067 7.47798 9.33061 7.47798C6.69922 7.47798 4.93075 8.6179 3.95064 10.6207H3.79084C4.17436 6.6044 5.70845 4.95312 9.50107 4.91051C12.8569 4.85724 14.4869 4.74006 15.8825 3.58949L14.4975 0.627839ZM8.32919 19.804C6.18786 19.804 4.89879 18.0781 4.89879 15.2869C4.9201 12.4957 6.19851 10.919 8.30788 10.919C10.4066 10.919 11.6957 12.4957 11.6957 15.2869C11.6957 18.0888 10.4066 19.804 8.32919 19.804ZM16.9345 29.1364H21.4728L22.9217 20.3793H23.0815C23.4863 21.7429 24.5943 23.2663 27.2363 23.2663C30.965 23.2663 34.3741 20.3153 35.2797 14.8395C36.2065 9.21449 33.6497 6.4233 30.0595 6.4233C27.3216 6.4233 25.7129 8.05327 24.9032 9.38494H24.7115L25.1589 6.63636H20.6845L16.9345 29.1364ZM23.7633 14.8182C24.2321 11.8991 25.7981 10.0348 27.9927 10.0348C30.2406 10.0348 31.0929 11.9844 30.6454 14.8182C30.1447 17.6733 28.6426 19.6548 26.4054 19.6548C24.2214 19.6548 23.2946 17.7372 23.7633 14.8182ZM45.6987 23.3196C50.6632 23.3196 53.7527 19.9212 53.7527 14.8821C53.7527 9.81108 50.6632 6.4233 45.6987 6.4233C40.7342 6.4233 37.6447 9.81108 37.6447 14.8821C37.6447 19.9212 40.7342 23.3196 45.6987 23.3196ZM45.72 19.804C43.4295 19.804 42.2576 17.7053 42.2576 14.8501C42.2576 11.995 43.4295 9.88565 45.72 9.88565C47.9679 9.88565 49.1397 11.995 49.1397 14.8501C49.1397 17.7053 47.9679 19.804 45.72 19.804ZM62.4245 6.63636H58.0993L55.372 23H59.6973L60.7733 16.576H66.3663L65.2903 23H69.5943L72.3216 6.63636H68.0176L66.9522 13.0071H61.3592L62.4245 6.63636ZM79.5259 6.63636H74.9982L72.271 23H76.7987L77.8533 16.7038H80.3995C80.4102 20.6562 82.7965 23.3196 87.0259 23.3196C91.8839 23.3196 95.4741 19.7933 96.305 14.8288C97.1254 9.86435 94.6964 6.4233 89.8384 6.4233C85.5558 6.4233 82.2638 9.08665 80.9748 13.103H78.4499L79.5259 6.63636ZM87.6438 19.6548C85.1083 19.6548 84.3839 17.652 84.8633 14.8288C85.3214 12.0057 86.6957 10.0348 89.2312 10.0348C91.7454 10.0348 92.4379 12.027 91.9798 14.8288C91.5217 17.62 90.158 19.6548 87.6438 19.6548ZM103.725 17.0128V6.63636H99.3892V23H103.896L109.766 12.5916V23H114.091V6.63636H109.616L103.725 17.0128ZM108.839 0.926135C108.839 1.92756 108.242 2.8331 106.729 2.8331C105.174 2.8331 104.599 1.90625 104.609 0.926135H101.467C101.467 3.50426 103.501 5.23011 106.729 5.23011C109.957 5.23011 111.992 3.50426 112.003 0.926135H108.839Z" fill="black"/>
</svg>
