<svg width="9" height="15" viewBox="0 0 9 15" fill="none" xmlns="http://www.w3.org/2000/svg">
<path fill-rule="evenodd" clip-rule="evenodd" d="M0.392847 0.827186C0.560023 0.660053 0.786732 0.566162 1.02312 0.566162C1.2595 0.566162 1.48621 0.660053 1.65339 0.827186L7.8937 7.06781C8.06082 7.23499 8.15471 7.46171 8.15471 7.69811C8.15471 7.93451 8.06082 8.16123 7.8937 8.32841L1.65339 14.569C1.48526 14.7314 1.26007 14.8213 1.02633 14.8193C0.792586 14.8172 0.568993 14.7235 0.403706 14.5582C0.23842 14.3929 0.144665 14.1693 0.142634 13.9355C0.140603 13.7018 0.230458 13.4766 0.392847 13.3084L6.00289 7.69811L0.392847 2.08779C0.225722 1.92061 0.131836 1.69389 0.131836 1.45749C0.131836 1.22109 0.225722 0.99437 0.392847 0.827186Z" fill="#686C7C"/>
</svg>
