<svg width="131" height="44" viewBox="0 0 131 44" fill="none" xmlns="http://www.w3.org/2000/svg">
<path d="M89.3075 20.8071V23.2897H87.7513V24.9179H89.3075V30.4499C89.3075 32.3389 90.162 33.0945 92.3119 33.0945C92.6897 33.0945 93.0495 33.0495 93.3643 32.9955V31.3854C93.0944 31.4124 92.9235 31.4304 92.6267 31.4304C91.6642 31.4304 91.2414 30.9806 91.2414 29.9551V24.9179H93.3643V23.2897H91.2414V20.8071H89.3075Z" fill="white"/>
<path d="M98.8409 33.2294C101.701 33.2294 103.455 31.3134 103.455 28.1381C103.455 24.9808 101.692 23.0559 98.8409 23.0559C95.9804 23.0559 94.2174 24.9808 94.2174 28.1381C94.2174 31.3134 95.9714 33.2294 98.8409 33.2294ZM98.8409 31.5113C97.1588 31.5113 96.2143 30.279 96.2143 28.1381C96.2143 26.0153 97.1588 24.7739 98.8409 24.7739C100.514 24.7739 101.467 26.0153 101.467 28.1381C101.467 30.27 100.514 31.5113 98.8409 31.5113Z" fill="white"/>
<path d="M104.956 33.0405H106.89V27.2566C106.89 25.8803 107.925 24.9538 109.391 24.9538C109.733 24.9538 110.308 25.0168 110.47 25.0708V23.1638C110.263 23.1098 109.894 23.0829 109.607 23.0829C108.329 23.0829 107.241 23.7845 106.962 24.747H106.818V23.2448H104.956V33.0405Z" fill="white"/>
<path d="M115.272 24.702C116.702 24.702 117.638 25.7004 117.683 27.2386H112.736C112.843 25.7094 113.842 24.702 115.272 24.702ZM117.674 30.3959C117.314 31.1605 116.513 31.5833 115.344 31.5833C113.797 31.5833 112.798 30.4949 112.736 28.7768V28.6688H119.653V27.9942C119.653 24.9179 118.007 23.0559 115.281 23.0559C112.52 23.0559 110.766 25.0438 110.766 28.1741C110.766 31.3044 112.484 33.2294 115.29 33.2294C117.53 33.2294 119.095 32.15 119.536 30.3959H117.674Z" fill="white"/>
<path d="M76.6249 29.4231C76.7741 31.8285 78.7785 33.3668 81.762 33.3668C84.9505 33.3668 86.9457 31.7539 86.9457 29.1807C86.9457 27.1575 85.8082 26.0388 83.0486 25.3955L81.5662 25.0318C79.8134 24.6216 79.1049 24.0716 79.1049 23.1113C79.1049 21.8993 80.205 21.1068 81.8552 21.1068C83.4215 21.1068 84.503 21.8806 84.6988 23.1206H86.7312C86.61 20.8551 84.6149 19.2608 81.8832 19.2608C78.9464 19.2608 76.9885 20.8551 76.9885 23.2511C76.9885 25.2276 78.0979 26.4024 80.5313 26.9711L82.2654 27.3906C84.0462 27.8102 84.8293 28.4255 84.8293 29.451C84.8293 30.6444 83.5986 31.5115 81.9205 31.5115C80.1211 31.5115 78.8718 30.7004 78.6946 29.4231H76.6249Z" fill="white"/>
<path d="M56.5911 23.0829C55.2598 23.0829 54.1084 23.7485 53.5147 24.8639H53.3708V23.2448H51.5088V36.2967H53.4428V31.5563H53.5957C54.1084 32.5907 55.2148 33.2024 56.6091 33.2024C59.0827 33.2024 60.6569 31.2504 60.6569 28.1381C60.6569 25.0258 59.0827 23.0829 56.5911 23.0829ZM56.0424 31.4663C54.4233 31.4663 53.4068 30.189 53.4068 28.1471C53.4068 26.0962 54.4233 24.8189 56.0514 24.8189C57.6885 24.8189 58.669 26.0692 58.669 28.1381C58.669 30.216 57.6885 31.4663 56.0424 31.4663Z" fill="white"/>
<path d="M67.4241 23.0829C66.0928 23.0829 64.9415 23.7485 64.3478 24.8639H64.2039V23.2448H62.3419V36.2967H64.2758V31.5563H64.4287C64.9415 32.5907 66.0479 33.2024 67.4421 33.2024C69.9158 33.2024 71.4899 31.2504 71.4899 28.1381C71.4899 25.0258 69.9158 23.0829 67.4241 23.0829ZM66.8754 31.4663C65.2563 31.4663 64.2398 30.189 64.2398 28.1471C64.2398 26.0962 65.2563 24.8189 66.8844 24.8189C68.5215 24.8189 69.502 26.0692 69.502 28.1381C69.502 30.216 68.5215 31.4663 66.8754 31.4663Z" fill="white"/>
<path d="M48.039 33.0405H50.2579L45.4005 19.5871H43.1536L38.2962 33.0405H40.4406L41.6806 29.4697H46.8083L48.039 33.0405ZM44.1699 22.0298H44.3283L46.2769 27.7169H42.212L44.1699 22.0298Z" fill="white"/>
<path d="M39.5953 9.43961V15.9296H41.9386C43.8725 15.9296 44.9924 14.7378 44.9924 12.6644C44.9924 10.6225 43.8635 9.43961 41.9386 9.43961H39.5953ZM40.6028 10.3571H41.8261C43.1709 10.3571 43.967 11.2117 43.967 12.6779C43.967 14.1666 43.1844 15.0121 41.8261 15.0121H40.6028V10.3571Z" fill="white"/>
<path d="M48.4223 16.0241C49.8525 16.0241 50.7295 15.0661 50.7295 13.4784C50.7295 11.8998 49.848 10.9373 48.4223 10.9373C46.992 10.9373 46.1105 11.8998 46.1105 13.4784C46.1105 15.0661 46.9875 16.0241 48.4223 16.0241ZM48.4223 15.165C47.5812 15.165 47.109 14.5489 47.109 13.4784C47.109 12.417 47.5812 11.7963 48.4223 11.7963C49.2588 11.7963 49.7356 12.417 49.7356 13.4784C49.7356 14.5444 49.2588 15.165 48.4223 15.165Z" fill="white"/>
<path d="M58.1982 11.0318H57.2312L56.3587 14.7692H56.2822L55.2748 11.0318H54.3483L53.3408 14.7692H53.2689L52.3918 11.0318H51.4114L52.7606 15.9296H53.7546L54.762 12.3226H54.8385L55.8505 15.9296H56.8534L58.1982 11.0318Z" fill="white"/>
<path d="M59.3118 15.9296H60.2788V13.0647C60.2788 12.3001 60.733 11.8233 61.4481 11.8233C62.1632 11.8233 62.5051 12.2146 62.5051 13.0017V15.9296H63.472V12.7588C63.472 11.5939 62.8694 10.9373 61.7765 10.9373C61.0389 10.9373 60.5531 11.2656 60.3147 11.8098H60.2428V11.0318H59.3118V15.9296Z" fill="white"/>
<path d="M64.9949 15.9296H65.9619V9.12029H64.9949V15.9296Z" fill="white"/>
<path d="M69.5986 16.0241C71.0289 16.0241 71.9059 15.0661 71.9059 13.4784C71.9059 11.8998 71.0244 10.9373 69.5986 10.9373C68.1684 10.9373 67.2869 11.8998 67.2869 13.4784C67.2869 15.0661 68.1639 16.0241 69.5986 16.0241ZM69.5986 15.165C68.7576 15.165 68.2853 14.5489 68.2853 13.4784C68.2853 12.417 68.7576 11.7963 69.5986 11.7963C70.4352 11.7963 70.9119 12.417 70.9119 13.4784C70.9119 14.5444 70.4352 15.165 69.5986 15.165Z" fill="white"/>
<path d="M74.787 15.1965C74.2608 15.1965 73.8785 14.9401 73.8785 14.4994C73.8785 14.0676 74.1844 13.8382 74.859 13.7933L76.0553 13.7168V14.1261C76.0553 14.7333 75.5156 15.1965 74.787 15.1965ZM74.5397 16.0106C75.1828 16.0106 75.718 15.7317 76.0104 15.2415H76.0868V15.9296H77.0178V12.5834C77.0178 11.549 76.3252 10.9373 75.0974 10.9373C73.9865 10.9373 73.1949 11.477 73.0959 12.3181H74.0314C74.1394 11.9717 74.5127 11.7739 75.0524 11.7739C75.7135 11.7739 76.0553 12.0662 76.0553 12.5834V13.0062L74.7286 13.0826C73.5637 13.1546 72.907 13.6628 72.907 14.5444C72.907 15.4394 73.5952 16.0106 74.5397 16.0106Z" fill="white"/>
<path d="M80.2993 16.0106C80.9739 16.0106 81.5451 15.6912 81.8374 15.156H81.9139V15.9296H82.8404V9.12029H81.8734V11.8098H81.8014C81.5361 11.2701 80.9694 10.9508 80.2993 10.9508C79.0624 10.9508 78.2663 11.9313 78.2663 13.4784C78.2663 15.0301 79.0534 16.0106 80.2993 16.0106ZM80.5736 11.8188C81.3832 11.8188 81.8914 12.462 81.8914 13.4829C81.8914 14.5084 81.3877 15.1425 80.5736 15.1425C79.755 15.1425 79.2648 14.5174 79.2648 13.4784C79.2648 12.4485 79.7595 11.8188 80.5736 11.8188Z" fill="white"/>
<path d="M89.1109 16.0241C90.5411 16.0241 91.4182 15.0661 91.4182 13.4784C91.4182 11.8998 90.5366 10.9373 89.1109 10.9373C87.6807 10.9373 86.7991 11.8998 86.7991 13.4784C86.7991 15.0661 87.6762 16.0241 89.1109 16.0241ZM89.1109 15.165C88.2699 15.165 87.7976 14.5489 87.7976 13.4784C87.7976 12.417 88.2699 11.7963 89.1109 11.7963C89.9474 11.7963 90.4242 12.417 90.4242 13.4784C90.4242 14.5444 89.9474 15.165 89.1109 15.165Z" fill="white"/>
<path d="M92.6982 15.9296H93.6651V13.0647C93.6651 12.3001 94.1194 11.8233 94.8345 11.8233C95.5496 11.8233 95.8914 12.2146 95.8914 13.0017V15.9296H96.8584V12.7588C96.8584 11.5939 96.2557 10.9373 95.1628 10.9373C94.4252 10.9373 93.9395 11.2656 93.7011 11.8098H93.6292V11.0318H92.6982V15.9296Z" fill="white"/>
<path d="M101.312 9.81291V11.0542H100.534V11.8683H101.312V14.6343C101.312 15.5788 101.739 15.9566 102.814 15.9566C103.003 15.9566 103.183 15.9341 103.34 15.9071V15.1021C103.205 15.1155 103.12 15.1245 102.972 15.1245C102.49 15.1245 102.279 14.8997 102.279 14.3869V11.8683H103.34V11.0542H102.279V9.81291H101.312Z" fill="white"/>
<path d="M104.638 15.9296H105.605V13.0692C105.605 12.3271 106.046 11.8278 106.838 11.8278C107.521 11.8278 107.886 12.2236 107.886 13.0062V15.9296H108.853V12.7678C108.853 11.6029 108.209 10.9418 107.166 10.9418C106.428 10.9418 105.911 11.2701 105.673 11.8188H105.596V9.12029H104.638V15.9296Z" fill="white"/>
<path d="M112.341 11.7604C113.056 11.7604 113.524 12.2596 113.546 13.0287H111.073C111.127 12.2641 111.626 11.7604 112.341 11.7604ZM113.542 14.6073C113.362 14.9896 112.962 15.201 112.377 15.201C111.603 15.201 111.104 14.6568 111.073 13.7978V13.7438H114.531V13.4065C114.531 11.8683 113.708 10.9373 112.345 10.9373C110.965 10.9373 110.088 11.9313 110.088 13.4964C110.088 15.0616 110.947 16.0241 112.35 16.0241C113.47 16.0241 114.252 15.4843 114.473 14.6073H113.542Z" fill="white"/>
<path d="M27.8029 21.999C27.8264 20.1774 28.8047 18.4537 30.3566 17.4996C29.3775 16.1013 27.7377 15.2148 26.0316 15.1614C24.2119 14.9704 22.4477 16.2503 21.5204 16.2503C20.5752 16.2503 19.1475 15.1804 17.6101 15.212C15.6061 15.2768 13.738 16.4161 12.763 18.1681C10.6672 21.7966 12.2305 27.1293 14.2381 30.0623C15.2425 31.4985 16.4164 33.1028 17.9524 33.0459C19.4555 32.9836 20.0169 32.0875 21.8312 32.0875C23.6288 32.0875 24.1554 33.0459 25.7226 33.0098C27.3355 32.9836 28.3517 31.5672 29.3209 30.1173C30.0426 29.094 30.5979 27.963 30.9663 26.7661C29.0709 25.9645 27.8051 24.057 27.8029 21.999Z" fill="white"/>
<path d="M24.8427 13.2325C25.7221 12.1768 26.1554 10.8199 26.0505 9.44992C24.7069 9.59103 23.4659 10.2332 22.5746 11.2484C21.703 12.2403 21.2495 13.5733 21.3352 14.8909C22.6792 14.9048 24.0005 14.28 24.8427 13.2325Z" fill="white"/>
<rect x="1.5038" y="0.541825" width="128.954" height="42.2624" rx="7.04373" stroke="white" stroke-width="1.08365"/>
</svg>
