<svg width="147" height="44" viewBox="0 0 147 44" fill="none" xmlns="http://www.w3.org/2000/svg">
<path d="M73.8356 23.5706C71.2868 23.5706 69.2095 25.5093 69.2095 28.1794C69.2095 30.8332 71.2868 32.7881 73.8356 32.7881C76.3854 32.7881 78.4628 30.8332 78.4628 28.1794C78.4617 25.5093 76.3843 23.5706 73.8356 23.5706ZM73.8356 30.9741C72.4388 30.9741 71.2348 29.8222 71.2348 28.1805C71.2348 26.5214 72.4398 25.3868 73.8356 25.3868C75.2324 25.3868 76.4363 26.5214 76.4363 28.1805C76.4363 29.8211 75.2324 30.9741 73.8356 30.9741ZM63.7425 23.5706C61.1937 23.5706 59.1164 25.5093 59.1164 28.1794C59.1164 30.8332 61.1937 32.7881 63.7425 32.7881C66.2923 32.7881 68.3696 30.8332 68.3696 28.1794C68.3696 25.5093 66.2923 23.5706 63.7425 23.5706ZM63.7425 30.9741C62.3456 30.9741 61.1417 29.8222 61.1417 28.1805C61.1417 26.5214 62.3467 25.3868 63.7425 25.3868C65.1393 25.3868 66.3432 26.5214 66.3432 28.1805C66.3443 29.8211 65.1393 30.9741 63.7425 30.9741ZM51.7378 24.9859V26.9408H56.417C56.2772 28.0407 55.9109 28.8436 55.3518 29.4017C54.6712 30.0823 53.606 30.8332 51.7378 30.8332C48.8574 30.8332 46.6056 28.511 46.6056 25.6306C46.6056 22.7503 48.8574 20.428 51.7378 20.428C53.2917 20.428 54.4263 21.0392 55.264 21.8248L56.6435 20.4454C55.4731 19.3281 53.9203 18.4731 51.7378 18.4731C47.7922 18.4731 44.4752 21.6851 44.4752 25.6306C44.4752 29.5762 47.7922 32.7881 51.7378 32.7881C53.8672 32.7881 55.4742 32.0892 56.7302 30.7801C58.0219 29.4884 58.4239 27.6722 58.4239 26.206C58.4239 25.7531 58.3892 25.3337 58.3188 24.9848H51.7378V24.9859ZM100.836 26.504C100.452 25.4746 99.2819 23.5706 96.8902 23.5706C94.516 23.5706 92.5426 25.4388 92.5426 28.1794C92.5426 30.7628 94.4986 32.7881 97.1167 32.7881C99.2288 32.7881 100.451 31.4964 100.958 30.7455L99.387 29.6976C98.8636 30.4659 98.1473 30.9719 97.1167 30.9719C96.0873 30.9719 95.3536 30.5005 94.8822 29.5751L101.045 27.0264L100.836 26.504ZM94.5506 28.0407C94.4986 26.2591 95.9301 25.3521 96.9607 25.3521C97.7637 25.3521 98.4442 25.7542 98.6718 26.3296L94.5506 28.0407ZM89.5409 32.5096H91.5652V18.9629H89.5409V32.5096ZM86.2228 24.6012H86.1534C85.6994 24.0593 84.826 23.5706 83.7271 23.5706C81.4222 23.5706 79.3102 25.5959 79.3102 28.1978C79.3102 30.7812 81.4222 32.7892 83.7271 32.7892C84.827 32.7892 85.6994 32.3005 86.1534 31.7424H86.2228V32.4056C86.2228 34.1687 85.28 35.1115 83.7618 35.1115C82.5221 35.1115 81.7538 34.2218 81.4396 33.4708L79.6765 34.2045C80.1825 35.4257 81.5262 36.9277 83.7618 36.9277C86.1361 36.9277 88.1441 35.5308 88.1441 32.126V23.8513H86.2239V24.6012H86.2228ZM83.9016 30.9741C82.5048 30.9741 81.3355 29.8038 81.3355 28.1978C81.3355 26.5734 82.5048 25.3868 83.9016 25.3868C85.28 25.3868 86.3626 26.5734 86.3626 28.1978C86.3626 29.8038 85.28 30.9741 83.9016 30.9741ZM110.322 18.9629H105.477V32.5096H107.498V27.3775H110.321C112.562 27.3775 114.766 25.7552 114.766 23.1707C114.766 20.5862 112.563 18.9629 110.322 18.9629ZM110.374 25.4919H107.498V20.8485H110.374C111.886 20.8485 112.744 22.1001 112.744 23.1707C112.744 24.2197 111.886 25.4919 110.374 25.4919ZM122.871 23.5468C121.407 23.5468 119.891 24.1915 119.263 25.6209L121.058 26.3697C121.441 25.6209 122.157 25.376 122.905 25.376C123.951 25.376 125.014 26.0034 125.032 27.1185V27.2583C124.665 27.0491 123.881 26.7359 122.923 26.7359C120.988 26.7359 119.018 27.799 119.018 29.7853C119.018 31.5983 120.605 32.7654 122.382 32.7654C123.741 32.7654 124.491 32.1553 124.961 31.4401H125.03V32.4858H126.983V27.2919C126.984 24.8883 125.188 23.5468 122.871 23.5468ZM122.626 30.9709C121.965 30.9709 121.04 30.6393 121.04 29.82C121.04 28.7743 122.191 28.3733 123.185 28.3733C124.073 28.3733 124.492 28.5651 125.032 28.8263C124.874 30.0823 123.794 30.9709 122.626 30.9709ZM134.094 23.8426L131.776 29.716H131.707L129.301 23.8426H127.123L130.73 32.0512L128.674 36.6178H130.782L136.343 23.8426H134.094ZM115.882 32.5096H117.903V18.9629H115.882V32.5096Z" fill="white"/>
<path d="M51.3845 11.0998C51.3845 12.0079 51.1158 12.7307 50.5772 13.2703C49.966 13.9118 49.1685 14.2326 48.1888 14.2326C47.2504 14.2326 46.4517 13.9075 45.7961 13.2573C45.1394 12.606 44.8111 11.7998 44.8111 10.8375C44.8111 9.87417 45.1394 9.06793 45.7961 8.41774C46.4517 7.76647 47.2504 7.44137 48.1888 7.44137C48.6548 7.44137 49.1002 7.5324 49.5228 7.71337C49.9465 7.89542 50.2857 8.13708 50.5393 8.43941L49.9682 9.01158C49.538 8.49685 48.9452 8.24002 48.1877 8.24002C47.5029 8.24002 46.9112 8.48059 46.4116 8.96173C45.9121 9.44287 45.6628 10.0681 45.6628 10.8364C45.6628 11.6048 45.9121 12.23 46.4116 12.7112C46.9112 13.1923 47.5029 13.4329 48.1877 13.4329C48.9138 13.4329 49.5196 13.1912 50.0039 12.7068C50.3182 12.3915 50.5003 11.9526 50.549 11.3902H48.1877V10.6089H51.3379C51.3704 10.779 51.3845 10.9426 51.3845 11.0998Z" fill="white"/>
<path d="M56.3802 8.38421H53.4197V10.4453H56.0898V11.2266H53.4197V13.2877H56.3802V14.0875H52.5842V7.58556H56.3802V8.38421Z" fill="white"/>
<path d="M59.9031 14.0875H59.0676V8.38421H57.2514V7.58556H61.7193V8.38421H59.9031V14.0875Z" fill="white"/>
<path d="M64.9518 14.0875V7.58556H65.7872V14.0875H64.9518Z" fill="white"/>
<path d="M69.4924 14.0875H68.6569V8.38421H66.8407V7.58556H71.3086V8.38421H69.4924V14.0875Z" fill="white"/>
<path d="M79.7663 13.2476C79.1269 13.9043 78.3326 14.2327 77.3822 14.2327C76.4319 14.2327 75.6376 13.9043 74.9993 13.2476C74.3599 12.5909 74.0413 11.7869 74.0413 10.8365C74.0413 9.88614 74.3599 9.08207 74.9993 8.42538C75.6376 7.76868 76.4319 7.43925 77.3822 7.43925C78.3272 7.43925 79.1204 7.76977 79.7619 8.42971C80.4035 9.08965 80.7242 9.89156 80.7242 10.8365C80.7242 11.7869 80.4045 12.5909 79.7663 13.2476ZM75.6159 12.7025C76.097 13.1902 76.6854 13.4329 77.3822 13.4329C78.079 13.4329 78.6685 13.1891 79.1486 12.7025C79.6297 12.2149 79.8714 11.5929 79.8714 10.8365C79.8714 10.0801 79.6297 9.4581 79.1486 8.97045C78.6685 8.48281 78.079 8.24007 77.3822 8.24007C76.6854 8.24007 76.097 8.48389 75.6159 8.97045C75.1358 9.4581 74.8942 10.0801 74.8942 10.8365C74.8942 11.5929 75.1358 12.2149 75.6159 12.7025Z" fill="white"/>
<path d="M81.8967 14.0875V7.58556H82.9132L86.0731 12.643H86.1089L86.0731 11.3903V7.58556H86.9086V14.0875H86.0363L82.7301 8.78408H82.6943L82.7301 10.0368V14.0875H81.8967Z" fill="white"/>
<path d="M51.3845 11.0998C51.3845 12.0079 51.1158 12.7307 50.5772 13.2703C49.966 13.9118 49.1685 14.2326 48.1888 14.2326C47.2504 14.2326 46.4517 13.9075 45.7961 13.2573C45.1394 12.606 44.8111 11.7998 44.8111 10.8375C44.8111 9.87417 45.1394 9.06793 45.7961 8.41774C46.4517 7.76647 47.2504 7.44137 48.1888 7.44137C48.6548 7.44137 49.1002 7.5324 49.5228 7.71337C49.9465 7.89542 50.2857 8.13708 50.5393 8.43941L49.9682 9.01158C49.538 8.49685 48.9452 8.24002 48.1877 8.24002C47.5029 8.24002 46.9112 8.48059 46.4116 8.96173C45.9121 9.44287 45.6628 10.0681 45.6628 10.8364C45.6628 11.6048 45.9121 12.23 46.4116 12.7112C46.9112 13.1923 47.5029 13.4329 48.1877 13.4329C48.9138 13.4329 49.5196 13.1912 50.0039 12.7068C50.3182 12.3915 50.5003 11.9526 50.549 11.3902H48.1877V10.6089H51.3379C51.3704 10.779 51.3845 10.9426 51.3845 11.0998Z" stroke="white" stroke-width="0.21673" stroke-miterlimit="10"/>
<path d="M56.3802 8.38421H53.4197V10.4453H56.0898V11.2266H53.4197V13.2877H56.3802V14.0875H52.5842V7.58556H56.3802V8.38421Z" stroke="white" stroke-width="0.21673" stroke-miterlimit="10"/>
<path d="M59.9031 14.0875H59.0676V8.38421H57.2514V7.58556H61.7193V8.38421H59.9031V14.0875Z" stroke="white" stroke-width="0.21673" stroke-miterlimit="10"/>
<path d="M64.9518 14.0875V7.58556H65.7872V14.0875H64.9518Z" stroke="white" stroke-width="0.21673" stroke-miterlimit="10"/>
<path d="M69.4924 14.0875H68.6569V8.38421H66.8407V7.58556H71.3086V8.38421H69.4924V14.0875Z" stroke="white" stroke-width="0.21673" stroke-miterlimit="10"/>
<path d="M79.7663 13.2476C79.1269 13.9043 78.3326 14.2327 77.3822 14.2327C76.4319 14.2327 75.6376 13.9043 74.9993 13.2476C74.3599 12.5909 74.0413 11.7869 74.0413 10.8365C74.0413 9.88614 74.3599 9.08207 74.9993 8.42538C75.6376 7.76868 76.4319 7.43925 77.3822 7.43925C78.3272 7.43925 79.1204 7.76977 79.7619 8.42971C80.4035 9.08965 80.7242 9.89156 80.7242 10.8365C80.7242 11.7869 80.4045 12.5909 79.7663 13.2476ZM75.6159 12.7025C76.097 13.1902 76.6854 13.4329 77.3822 13.4329C78.079 13.4329 78.6685 13.1891 79.1486 12.7025C79.6297 12.2149 79.8714 11.5929 79.8714 10.8365C79.8714 10.0801 79.6297 9.4581 79.1486 8.97045C78.6685 8.48281 78.079 8.24007 77.3822 8.24007C76.6854 8.24007 76.097 8.48389 75.6159 8.97045C75.1358 9.4581 74.8942 10.0801 74.8942 10.8365C74.8942 11.5929 75.1358 12.2149 75.6159 12.7025Z" stroke="white" stroke-width="0.21673" stroke-miterlimit="10"/>
<path d="M81.8967 14.0875V7.58556H82.9132L86.0731 12.643H86.1089L86.0731 11.3903V7.58556H86.9086V14.0875H86.0363L82.7301 8.78408H82.6943L82.7301 10.0368V14.0875H81.8967Z" stroke="white" stroke-width="0.21673" stroke-miterlimit="10"/>
<path fill-rule="evenodd" clip-rule="evenodd" d="M11.006 8.63284C10.878 8.92272 10.8073 9.27792 10.8073 9.69108V33.6571C10.8073 34.0712 10.8781 34.4264 11.0062 34.7161L24.0468 21.6737L11.006 8.63284ZM11.7594 35.4955C12.2427 35.7023 12.8733 35.6367 13.5608 35.2468L28.9022 26.5291L24.8131 22.4399L11.7594 35.4955ZM29.8801 25.9745L34.6931 23.24C36.2069 22.3785 36.2069 20.9708 34.6931 20.1104L29.878 17.3743L25.5793 21.6736L29.8801 25.9745ZM28.9008 16.819L13.5608 8.10245C12.8732 7.71172 12.2426 7.64652 11.7593 7.85363L24.813 20.9074L28.9008 16.819Z" fill="white"/>
<rect x="0.541825" y="0.541825" width="145.209" height="42.2624" rx="4.87643" stroke="white" stroke-width="1.08365"/>
</svg>
