<svg width="233" height="485" viewBox="0 0 233 485" fill="none" xmlns="http://www.w3.org/2000/svg">
<g filter="url(#filter0_ii_3195:6918)">
<rect x="0.184814" y="0.942574" width="232.815" height="484.026" rx="28.7426" fill="#1B1D21"/>
</g>
<rect x="10.3799" y="13.8841" width="212.079" height="458.992" rx="18.2512" fill="url(#paint0_linear_3195:6918)"/>
<rect x="33.6497" y="288.656" width="169.645" height="48.0007" rx="4.5628" transform="rotate(-90 33.6497 288.656)" fill="#2B2F3A" fill-opacity="0.35"/>
<path d="M51.2646 130.574H51.9146V126.949H53.942V130.574H54.592V126.343H51.2646V130.574ZM56.4293 126.343H55.7792V130.574H56.4293V128.767H58.4566V130.574H59.1067V126.343H58.4566V128.161H56.4293V126.343ZM59.8422 131.786H60.4922V130.574H63.6214V131.786H64.2715V129.968H63.6214V126.343H60.933L60.7897 128.018C60.6878 129.202 60.5363 129.61 60.1948 129.968H59.8422V131.786ZM60.933 129.968C61.2305 129.577 61.3379 128.902 61.4288 128.018L61.539 126.949H62.9713V129.968H60.933Z" fill="white"/>
<path d="M53.9727 151.656C55.687 151.656 56.9131 150.713 56.9093 149.409C56.9131 148.458 56.3093 147.78 55.1876 147.638V147.579C56.041 147.426 56.6298 146.822 56.6261 145.965C56.6298 144.761 55.5752 143.815 53.9951 143.815C52.4298 143.815 51.2522 144.731 51.2298 146.051H52.7764C52.795 145.469 53.328 145.093 53.9876 145.093C54.6398 145.093 55.0758 145.488 55.0721 146.062C55.0758 146.662 54.5652 147.068 53.8311 147.068H53.1193V148.253H53.8311C54.6957 148.253 55.2361 148.686 55.2323 149.3C55.2361 149.908 54.7143 150.325 53.9764 150.325C53.2646 150.325 52.7317 149.953 52.7019 149.394H51.077C51.1031 150.728 52.2957 151.656 53.9727 151.656ZM61.0618 151.719C62.9811 151.719 64.1401 150.258 64.1438 147.743C64.1476 145.246 62.9737 143.815 61.0618 143.815C59.1463 143.815 57.9836 145.242 57.9798 147.743C57.9724 150.251 59.1389 151.715 61.0618 151.719ZM61.0618 150.381C60.1861 150.381 59.6196 149.502 59.6233 147.743C59.6271 146.01 60.1898 145.138 61.0618 145.138C61.9302 145.138 62.4966 146.01 62.4966 147.743C62.5004 149.502 61.9339 150.381 61.0618 150.381Z" fill="white"/>
<rect x="39.4902" y="165.826" width="36.2287" height="16.4261" rx="4.5628" fill="#A06AF9"/>
<path d="M48.5395 170.441H47.2865L45.7256 171.429V172.611L47.1695 171.706H47.2064V176.746H48.5395V170.441ZM52.5101 176.884C54.0956 176.884 55.053 175.677 55.0561 173.599C55.0592 171.537 54.0894 170.354 52.5101 170.354C50.9277 170.354 49.9672 171.534 49.9641 173.599C49.9579 175.671 50.9215 176.881 52.5101 176.884ZM52.5101 175.779C51.7866 175.779 51.3187 175.052 51.3218 173.599C51.3248 172.168 51.7897 171.447 52.5101 171.447C53.2274 171.447 53.6953 172.168 53.6953 173.599C53.6984 175.052 53.2305 175.779 52.5101 175.779ZM56.7855 172.922C57.1796 172.922 57.5213 172.593 57.5244 172.183C57.5213 171.78 57.1796 171.45 56.7855 171.45C56.3791 171.45 56.0435 171.78 56.0466 172.183C56.0435 172.593 56.3791 172.922 56.7855 172.922ZM56.7855 176.013C57.1796 176.013 57.5213 175.683 57.5244 175.274C57.5213 174.871 57.1796 174.541 56.7855 174.541C56.3791 174.541 56.0435 174.871 56.0466 175.274C56.0435 175.683 56.3791 176.013 56.7855 176.013ZM61.0609 176.884C62.6464 176.884 63.6038 175.677 63.6069 173.599C63.61 171.537 62.6402 170.354 61.0609 170.354C59.4785 170.354 58.518 171.534 58.5149 173.599C58.5087 175.671 59.4723 176.881 61.0609 176.884ZM61.0609 175.779C60.3374 175.779 59.8695 175.052 59.8726 173.599C59.8756 172.168 60.3405 171.447 61.0609 171.447C61.7782 171.447 62.2462 172.168 62.2462 173.599C62.2492 175.052 61.7813 175.779 61.0609 175.779ZM67.0295 176.884C68.615 176.884 69.5724 175.677 69.5755 173.599C69.5786 171.537 68.6088 170.354 67.0295 170.354C65.4471 170.354 64.4866 171.534 64.4835 173.599C64.4774 175.671 65.441 176.881 67.0295 176.884ZM67.0295 175.779C66.3061 175.779 65.8381 175.052 65.8412 173.599C65.8443 172.168 66.3091 171.447 67.0295 171.447C67.7468 171.447 68.2148 172.168 68.2148 173.599C68.2179 175.052 67.7499 175.779 67.0295 175.779Z" fill="white"/>
<path d="M48.5402 237.24H47.2872L45.7264 238.228V239.411L47.1703 238.506H47.2072V243.545H48.5402V237.24ZM49.9433 242.437H52.9696V243.545H54.2441V242.437H55.0261V241.369H54.2441V237.24H52.5755L49.9433 241.387V242.437ZM52.9942 241.369H51.2856V241.319L52.9449 238.693H52.9942V241.369ZM56.6931 239.722C57.0872 239.722 57.4289 239.392 57.432 238.983C57.4289 238.579 57.0872 238.25 56.6931 238.25C56.2867 238.25 55.9512 238.579 55.9543 238.983C55.9512 239.392 56.2867 239.722 56.6931 239.722ZM56.6931 242.812C57.0872 242.812 57.4289 242.483 57.432 242.074C57.4289 241.67 57.0872 241.341 56.6931 241.341C56.2867 241.341 55.9512 241.67 55.9543 242.074C55.9512 242.483 56.2867 242.812 56.6931 242.812ZM60.9685 243.684C62.554 243.684 63.5114 242.477 63.5145 240.399C63.5176 238.336 62.5478 237.154 60.9685 237.154C59.3861 237.154 58.4256 238.333 58.4225 240.399C58.4164 242.471 59.38 243.681 60.9685 243.684ZM60.9685 242.578C60.2451 242.578 59.7771 241.852 59.7802 240.399C59.7833 238.967 60.2481 238.247 60.9685 238.247C61.6858 238.247 62.1538 238.967 62.1538 240.399C62.1569 241.852 61.6889 242.578 60.9685 242.578ZM66.9372 243.684C68.5226 243.684 69.4801 242.477 69.4832 240.399C69.4862 238.336 68.5165 237.154 66.9372 237.154C65.3548 237.154 64.3942 238.333 64.3912 240.399C64.385 242.471 65.3486 243.681 66.9372 243.684ZM66.9372 242.578C66.2137 242.578 65.7457 241.852 65.7488 240.399C65.7519 238.967 66.2168 238.247 66.9372 238.247C67.6545 238.247 68.1224 238.967 68.1224 240.399C68.1255 241.852 67.6575 242.578 66.9372 242.578Z" fill="white"/>
<path d="M48.7934 203.84H47.5404L45.9795 204.829V206.011L47.4234 205.106H47.4603V210.145H48.7934V203.84ZM50.2919 210.145H54.7866V209.056H52.139V209.013L53.0595 208.11C54.3556 206.928 54.7035 206.337 54.7035 205.62C54.7035 204.527 53.8107 203.754 52.4592 203.754C51.1354 203.754 50.2272 204.545 50.2303 205.783H51.4956C51.4925 205.18 51.8743 204.81 52.45 204.81C53.0041 204.81 53.4166 205.155 53.4166 205.709C53.4166 206.211 53.1088 206.556 52.5362 207.107L50.2919 209.185V210.145ZM56.5314 206.322C56.9255 206.322 57.2672 205.992 57.2703 205.583C57.2672 205.18 56.9255 204.85 56.5314 204.85C56.125 204.85 55.7895 205.18 55.7926 205.583C55.7895 205.992 56.125 206.322 56.5314 206.322ZM56.5314 209.413C56.9255 209.413 57.2672 209.083 57.2703 208.674C57.2672 208.271 56.9255 207.941 56.5314 207.941C56.125 207.941 55.7895 208.271 55.7926 208.674C55.7895 209.083 56.125 209.413 56.5314 209.413ZM60.8068 210.284C62.3923 210.284 63.3497 209.077 63.3528 206.999C63.3559 204.936 62.3861 203.754 60.8068 203.754C59.2244 203.754 58.2639 204.933 58.2608 206.999C58.2547 209.071 59.2183 210.281 60.8068 210.284ZM60.8068 209.179C60.0833 209.179 59.6154 208.452 59.6185 206.999C59.6216 205.568 60.0864 204.847 60.8068 204.847C61.5241 204.847 61.9921 205.568 61.9921 206.999C61.9952 208.452 61.5272 209.179 60.8068 209.179ZM66.7754 210.284C68.3609 210.284 69.3184 209.077 69.3214 206.999C69.3245 204.936 68.3548 203.754 66.7754 203.754C65.193 203.754 64.2325 204.933 64.2294 206.999C64.2233 209.071 65.1869 210.281 66.7754 210.284ZM66.7754 209.179C66.052 209.179 65.584 208.452 65.5871 206.999C65.5902 205.568 66.0551 204.847 66.7754 204.847C67.4928 204.847 67.9607 205.568 67.9607 206.999C67.9638 208.452 67.4958 209.179 66.7754 209.179Z" fill="white"/>
<path d="M48.6164 270.64H47.3634L45.8026 271.628V272.81L47.2464 271.905H47.2834V276.945H48.6164V270.64ZM52.5347 277.031C53.9385 277.037 54.896 276.117 54.8929 274.833C54.896 273.651 54.0709 272.798 52.9534 272.798C52.2607 272.798 51.6481 273.131 51.3648 273.688H51.3217C51.3279 272.459 51.7589 271.696 52.5809 271.696C53.0642 271.696 53.4121 271.961 53.5137 272.401H54.8283C54.702 271.363 53.84 270.554 52.5809 270.554C51.0231 270.554 50.0226 271.816 50.0164 273.934C50.0133 276.243 51.2386 277.025 52.5347 277.031ZM52.5286 275.984C51.9128 275.984 51.4572 275.489 51.4572 274.873C51.4603 274.26 51.9251 273.762 52.5378 273.762C53.1535 273.762 53.603 274.245 53.5999 274.87C53.603 275.501 53.1443 275.984 52.5286 275.984ZM56.6169 273.121C57.011 273.121 57.3527 272.792 57.3558 272.382C57.3527 271.979 57.011 271.65 56.6169 271.65C56.2106 271.65 55.875 271.979 55.8781 272.382C55.875 272.792 56.2106 273.121 56.6169 273.121ZM56.6169 276.212C57.011 276.212 57.3527 275.883 57.3558 275.473C57.3527 275.07 57.011 274.741 56.6169 274.741C56.2106 274.741 55.875 275.07 55.8781 275.473C55.875 275.883 56.2106 276.212 56.6169 276.212ZM60.8923 277.083C62.4778 277.083 63.4353 275.877 63.4383 273.799C63.4414 271.736 62.4717 270.554 60.8923 270.554C59.3099 270.554 58.3494 271.733 58.3463 273.799C58.3402 275.87 59.3038 277.08 60.8923 277.083ZM60.8923 275.978C60.1689 275.978 59.7009 275.252 59.704 273.799C59.7071 272.367 60.1719 271.647 60.8923 271.647C61.6096 271.647 62.0776 272.367 62.0776 273.799C62.0807 275.252 61.6127 275.978 60.8923 275.978ZM66.861 277.083C68.4464 277.083 69.4039 275.877 69.407 273.799C69.41 271.736 68.4403 270.554 66.861 270.554C65.2786 270.554 64.318 271.733 64.315 273.799C64.3088 275.87 65.2724 277.08 66.861 277.083ZM66.861 275.978C66.1375 275.978 65.6695 275.252 65.6726 273.799C65.6757 272.367 66.1406 271.647 66.861 271.647C67.5783 271.647 68.0462 272.367 68.0462 273.799C68.0493 275.252 67.5814 275.978 66.861 275.978Z" fill="white"/>
<path d="M102.913 130.665H104.907C105.767 130.665 106.285 130.18 106.285 129.53C106.285 128.866 105.781 128.508 105.315 128.44C105.792 128.34 106.13 128.073 106.13 127.558C106.13 126.883 105.552 126.434 104.643 126.434H102.913V130.665ZM103.53 130.07V128.77H104.907C105.354 128.77 105.623 129.037 105.623 129.475C105.623 129.844 105.354 130.07 104.907 130.07H103.53ZM103.53 128.208V127.029H104.643C105.163 127.029 105.48 127.247 105.48 127.602C105.48 127.98 105.163 128.208 104.643 128.208H103.53ZM107.269 130.665H107.919V126.434H107.269V130.665ZM107.599 125.729C107.853 125.729 108.062 125.531 108.062 125.288C108.062 125.046 107.853 124.848 107.599 124.848C107.346 124.848 107.136 125.046 107.136 125.288C107.136 125.531 107.346 125.729 107.599 125.729ZM109.109 130.665H111.104C111.963 130.665 112.481 130.18 112.481 129.53C112.481 128.866 111.977 128.508 111.511 128.44C111.988 128.34 112.327 128.073 112.327 127.558C112.327 126.883 111.748 126.434 110.839 126.434H109.109V130.665ZM109.726 130.07V128.77H111.104C111.55 128.77 111.82 129.037 111.82 129.475C111.82 129.844 111.55 130.07 111.104 130.07H109.726ZM109.726 128.208V127.029H110.839C111.36 127.029 111.677 127.247 111.677 127.602C111.677 127.98 111.36 128.208 110.839 128.208H109.726ZM113.223 127.04H114.622V130.665H115.272V127.04H116.66V126.434H113.223V127.04Z" fill="white"/>
<path d="M111.038 143.919H109.521L107.631 145.115V146.546L109.379 145.451H109.424V151.551H111.038V143.919Z" fill="white"/>
<path d="M139.75 203.84H138.498L136.937 204.829V206.011L138.381 205.106H138.417V210.145H139.75V203.84ZM141.154 209.037H144.18V210.145H145.454V209.037H146.236V207.969H145.454V203.84H143.786L141.154 207.987V209.037ZM144.204 207.969H142.496V207.92L144.155 205.294H144.204V207.969ZM147.903 206.322C148.297 206.322 148.639 205.992 148.642 205.583C148.639 205.18 148.297 204.85 147.903 204.85C147.497 204.85 147.161 205.18 147.165 205.583C147.161 205.992 147.497 206.322 147.903 206.322ZM147.903 209.413C148.297 209.413 148.639 209.083 148.642 208.674C148.639 208.271 148.297 207.941 147.903 207.941C147.497 207.941 147.161 208.271 147.165 208.674C147.161 209.083 147.497 209.413 147.903 209.413ZM152.179 210.284C153.764 210.284 154.722 209.077 154.725 206.999C154.728 204.936 153.758 203.754 152.179 203.754C150.596 203.754 149.636 204.933 149.633 206.999C149.627 209.071 150.59 210.281 152.179 210.284ZM152.179 209.179C151.455 209.179 150.987 208.452 150.99 206.999C150.994 205.568 151.458 204.847 152.179 204.847C152.896 204.847 153.364 205.568 153.364 206.999C153.367 208.452 152.899 209.179 152.179 209.179ZM158.147 210.284C159.733 210.284 160.69 209.077 160.693 206.999C160.696 204.936 159.727 203.754 158.147 203.754C156.565 203.754 155.604 204.933 155.601 206.999C155.595 209.071 156.559 210.281 158.147 210.284ZM158.147 209.179C157.424 209.179 156.956 208.452 156.959 206.999C156.962 205.568 157.427 204.847 158.147 204.847C158.865 204.847 159.333 205.568 159.333 206.999C159.336 208.452 158.868 209.179 158.147 209.179Z" fill="white"/>
<path d="M139.912 170.441H138.659L137.098 171.429V172.611L138.542 171.706H138.579V176.746H139.912V170.441ZM141.411 176.746H145.906V175.656H143.258V175.613L144.178 174.711C145.475 173.529 145.822 172.937 145.822 172.22C145.822 171.127 144.93 170.355 143.578 170.355C142.254 170.355 141.346 171.146 141.349 172.383H142.615C142.611 171.78 142.993 171.41 143.569 171.41C144.123 171.41 144.536 171.755 144.536 172.309C144.536 172.811 144.228 173.156 143.655 173.707L141.411 175.785V176.746ZM147.65 172.922C148.044 172.922 148.386 172.593 148.389 172.183C148.386 171.78 148.044 171.451 147.65 171.451C147.244 171.451 146.908 171.78 146.911 172.183C146.908 172.593 147.244 172.922 147.65 172.922ZM147.65 176.013C148.044 176.013 148.386 175.684 148.389 175.274C148.386 174.871 148.044 174.541 147.65 174.541C147.244 174.541 146.908 174.871 146.911 175.274C146.908 175.684 147.244 176.013 147.65 176.013ZM151.926 176.884C153.511 176.884 154.469 175.677 154.472 173.599C154.475 171.537 153.505 170.355 151.926 170.355C150.343 170.355 149.383 171.534 149.38 173.599C149.374 175.671 150.337 176.881 151.926 176.884ZM151.926 175.779C151.202 175.779 150.734 175.052 150.737 173.599C150.74 172.168 151.205 171.447 151.926 171.447C152.643 171.447 153.111 172.168 153.111 173.599C153.114 175.052 152.646 175.779 151.926 175.779ZM157.894 176.884C159.48 176.884 160.437 175.677 160.44 173.599C160.443 171.537 159.474 170.355 157.894 170.355C156.312 170.355 155.351 171.534 155.348 173.599C155.342 175.671 156.306 176.881 157.894 176.884ZM157.894 175.779C157.171 175.779 156.703 175.052 156.706 173.599C156.709 172.168 157.174 171.447 157.894 171.447C158.612 171.447 159.08 172.168 159.08 173.599C159.083 175.052 158.615 175.779 157.894 175.779Z" fill="white"/>
<path d="M139.827 237.24H138.574L137.013 238.228V239.411L138.457 238.506H138.494V243.545H139.827V237.24ZM143.745 243.631C145.149 243.638 146.106 242.717 146.103 241.433C146.106 240.251 145.281 239.398 144.164 239.398C143.471 239.398 142.858 239.731 142.575 240.288H142.532C142.538 239.06 142.969 238.296 143.791 238.296C144.274 238.296 144.622 238.561 144.724 239.001H146.039C145.912 237.964 145.05 237.154 143.791 237.154C142.233 237.154 141.233 238.416 141.227 240.534C141.224 242.843 142.449 243.625 143.745 243.631ZM143.739 242.585C143.123 242.585 142.667 242.089 142.667 241.473C142.671 240.861 143.135 240.362 143.748 240.362C144.364 240.362 144.813 240.845 144.81 241.47C144.813 242.101 144.355 242.585 143.739 242.585ZM147.827 239.722C148.221 239.722 148.563 239.392 148.566 238.983C148.563 238.579 148.221 238.25 147.827 238.25C147.421 238.25 147.085 238.579 147.088 238.983C147.085 239.392 147.421 239.722 147.827 239.722ZM147.827 242.812C148.221 242.812 148.563 242.483 148.566 242.074C148.563 241.67 148.221 241.341 147.827 241.341C147.421 241.341 147.085 241.67 147.088 242.074C147.085 242.483 147.421 242.812 147.827 242.812ZM152.103 243.684C153.688 243.684 154.646 242.477 154.649 240.399C154.652 238.336 153.682 237.154 152.103 237.154C150.52 237.154 149.56 238.333 149.557 240.399C149.55 242.471 150.514 243.681 152.103 243.684ZM152.103 242.578C151.379 242.578 150.911 241.852 150.914 240.399C150.917 238.967 151.382 238.247 152.103 238.247C152.82 238.247 153.288 238.967 153.288 240.399C153.291 241.852 152.823 242.578 152.103 242.578ZM158.071 243.684C159.657 243.684 160.614 242.477 160.617 240.399C160.62 238.336 159.651 237.154 158.071 237.154C156.489 237.154 155.528 238.333 155.525 240.399C155.519 242.471 156.483 243.681 158.071 243.684ZM158.071 242.578C157.348 242.578 156.88 241.852 156.883 240.399C156.886 238.967 157.351 238.247 158.071 238.247C158.789 238.247 159.256 238.967 159.256 240.399C159.26 241.852 158.792 242.578 158.071 242.578Z" fill="white"/>
<path d="M144.341 130.753C145.278 130.753 145.895 130.18 146.005 129.431H145.355C145.234 129.894 144.848 130.169 144.341 130.169C143.57 130.169 143.074 129.53 143.074 128.55C143.074 127.591 143.581 126.963 144.341 126.963C144.914 126.963 145.256 127.316 145.355 127.701H146.005C145.895 126.908 145.223 126.379 144.33 126.379C143.184 126.379 142.424 127.283 142.424 128.572C142.424 129.839 143.151 130.753 144.341 130.753ZM148.729 130.753C149.589 130.753 150.217 130.324 150.415 129.685L149.787 129.508C149.622 129.949 149.239 130.169 148.729 130.169C147.966 130.169 147.44 129.676 147.41 128.77H150.481V128.495C150.481 126.919 149.545 126.379 148.663 126.379C147.517 126.379 146.757 127.283 146.757 128.583C146.757 129.883 147.506 130.753 148.729 130.753ZM147.41 128.208C147.454 127.55 147.919 126.963 148.663 126.963C149.368 126.963 149.82 127.492 149.82 128.208H147.41ZM151.47 132.252H152.12V130.015H152.175C152.318 130.246 152.594 130.753 153.409 130.753C154.467 130.753 155.205 129.905 155.205 128.561C155.205 127.228 154.467 126.379 153.398 126.379C152.572 126.379 152.318 126.886 152.175 127.106H152.098V126.434H151.47V132.252ZM152.109 128.55C152.109 127.602 152.528 126.963 153.321 126.963C154.147 126.963 154.555 127.657 154.555 128.55C154.555 129.453 154.136 130.169 153.321 130.169C152.539 130.169 152.109 129.508 152.109 128.55Z" fill="white"/>
<path d="M146.128 151.551H151.569V150.232H148.364V150.18L149.478 149.088C151.047 147.657 151.469 146.941 151.469 146.073C151.469 144.75 150.388 143.815 148.752 143.815C147.149 143.815 146.05 144.772 146.054 146.271H147.585C147.582 145.54 148.044 145.093 148.741 145.093C149.411 145.093 149.911 145.51 149.911 146.181C149.911 146.789 149.538 147.206 148.845 147.873L146.128 150.389V151.551Z" fill="white"/>
<path d="M178.899 203.84H177.646L176.086 204.829V206.011L177.529 205.106H177.566V210.145H178.899V203.84ZM180.302 209.037H183.329V210.145H184.603V209.037H185.385V207.969H184.603V203.84H182.935L180.302 207.987V209.037ZM183.353 207.969H181.645V207.92L183.304 205.294H183.353V207.969ZM187.052 206.322C187.446 206.322 187.788 205.992 187.791 205.583C187.788 205.18 187.446 204.85 187.052 204.85C186.646 204.85 186.31 205.18 186.313 205.583C186.31 205.992 186.646 206.322 187.052 206.322ZM187.052 209.413C187.446 209.413 187.788 209.083 187.791 208.674C187.788 208.271 187.446 207.941 187.052 207.941C186.646 207.941 186.31 208.271 186.313 208.674C186.31 209.083 186.646 209.413 187.052 209.413ZM191.328 210.284C192.913 210.284 193.871 209.077 193.874 206.999C193.877 204.936 192.907 203.754 191.328 203.754C189.745 203.754 188.785 204.933 188.782 206.999C188.776 209.071 189.739 210.281 191.328 210.284ZM191.328 209.179C190.604 209.179 190.136 208.452 190.139 206.999C190.142 205.568 190.607 204.847 191.328 204.847C192.045 204.847 192.513 205.568 192.513 206.999C192.516 208.452 192.048 209.179 191.328 209.179ZM197.296 210.284C198.882 210.284 199.839 209.077 199.842 206.999C199.845 204.936 198.876 203.754 197.296 203.754C195.714 203.754 194.753 204.933 194.75 206.999C194.744 209.071 195.708 210.281 197.296 210.284ZM197.296 209.179C196.573 209.179 196.105 208.452 196.108 206.999C196.111 205.568 196.576 204.847 197.296 204.847C198.014 204.847 198.482 205.568 198.482 206.999C198.485 208.452 198.017 209.179 197.296 209.179Z" fill="white"/>
<path d="M178.807 170.441H177.554L175.993 171.429V172.611L177.437 171.706H177.474V176.746H178.807V170.441ZM182.778 176.884C184.363 176.884 185.321 175.677 185.324 173.599C185.327 171.537 184.357 170.355 182.778 170.355C181.195 170.355 180.235 171.534 180.232 173.599C180.226 175.671 181.189 176.881 182.778 176.884ZM182.778 175.779C182.054 175.779 181.586 175.052 181.59 173.599C181.593 172.168 182.057 171.447 182.778 171.447C183.495 171.447 183.963 172.168 183.963 173.599C183.966 175.052 183.498 175.779 182.778 175.779ZM187.053 172.922C187.447 172.922 187.789 172.593 187.792 172.183C187.789 171.78 187.447 171.451 187.053 171.451C186.647 171.451 186.311 171.78 186.314 172.183C186.311 172.593 186.647 172.922 187.053 172.922ZM187.053 176.013C187.447 176.013 187.789 175.684 187.792 175.274C187.789 174.871 187.447 174.541 187.053 174.541C186.647 174.541 186.311 174.871 186.314 175.274C186.311 175.684 186.647 176.013 187.053 176.013ZM191.329 176.884C192.914 176.884 193.872 175.677 193.875 173.599C193.878 171.537 192.908 170.355 191.329 170.355C189.746 170.355 188.786 171.534 188.783 173.599C188.777 175.671 189.74 176.881 191.329 176.884ZM191.329 175.779C190.605 175.779 190.137 175.052 190.14 173.599C190.143 172.168 190.608 171.447 191.329 171.447C192.046 171.447 192.514 172.168 192.514 173.599C192.517 175.052 192.049 175.779 191.329 175.779ZM197.297 176.884C198.883 176.884 199.84 175.677 199.843 173.599C199.846 171.537 198.877 170.355 197.297 170.355C195.715 170.355 194.754 171.534 194.751 173.599C194.745 175.671 195.709 176.881 197.297 176.884ZM197.297 175.779C196.574 175.779 196.106 175.052 196.109 173.599C196.112 172.168 196.577 171.447 197.297 171.447C198.015 171.447 198.483 172.168 198.483 173.599C198.486 175.052 198.018 175.779 197.297 175.779Z" fill="white"/>
<path d="M175.5 243.545H179.995V242.455H177.347V242.412L178.268 241.51C179.564 240.328 179.912 239.737 179.912 239.02C179.912 237.927 179.019 237.154 177.668 237.154C176.344 237.154 175.436 237.945 175.439 239.183H176.704C176.701 238.579 177.083 238.21 177.658 238.21C178.213 238.21 178.625 238.555 178.625 239.109C178.625 239.611 178.317 239.956 177.745 240.507L175.5 242.585V243.545ZM183.433 243.684C185.019 243.684 185.976 242.477 185.979 240.399C185.982 238.336 185.012 237.154 183.433 237.154C181.851 237.154 180.89 238.333 180.887 240.399C180.881 242.471 181.844 243.681 183.433 243.684ZM183.433 242.578C182.71 242.578 182.242 241.852 182.245 240.399C182.248 238.967 182.713 238.247 183.433 238.247C184.15 238.247 184.618 238.967 184.618 240.399C184.621 241.852 184.153 242.578 183.433 242.578ZM187.708 239.722C188.102 239.722 188.444 239.392 188.447 238.983C188.444 238.579 188.102 238.25 187.708 238.25C187.302 238.25 186.966 238.579 186.97 238.983C186.966 239.392 187.302 239.722 187.708 239.722ZM187.708 242.812C188.102 242.812 188.444 242.483 188.447 242.074C188.444 241.67 188.102 241.341 187.708 241.341C187.302 241.341 186.966 241.67 186.97 242.074C186.966 242.483 187.302 242.812 187.708 242.812ZM191.984 243.684C193.569 243.684 194.527 242.477 194.53 240.399C194.533 238.336 193.563 237.154 191.984 237.154C190.401 237.154 189.441 238.333 189.438 240.399C189.432 242.471 190.395 243.681 191.984 243.684ZM191.984 242.578C191.26 242.578 190.792 241.852 190.795 240.399C190.799 238.967 191.263 238.247 191.984 238.247C192.701 238.247 193.169 238.967 193.169 240.399C193.172 241.852 192.704 242.578 191.984 242.578ZM197.952 243.684C199.538 243.684 200.495 242.477 200.498 240.399C200.502 238.336 199.532 237.154 197.952 237.154C196.37 237.154 195.41 238.333 195.406 240.399C195.4 242.471 196.364 243.681 197.952 243.684ZM197.952 242.578C197.229 242.578 196.761 241.852 196.764 240.399C196.767 238.967 197.232 238.247 197.952 238.247C198.67 238.247 199.138 238.967 199.138 240.399C199.141 241.852 198.673 242.578 197.952 242.578Z" fill="white"/>
<path d="M185.34 126.434H184.69V128.58C184.375 128.671 184.053 128.726 183.665 128.726C183.136 128.726 182.728 128.428 182.728 127.778V126.423H182.078V127.778C182.078 128.814 182.706 129.332 183.665 129.332C184.064 129.332 184.384 129.28 184.69 129.189V130.665H185.34V126.434ZM188.306 130.753C189.166 130.753 189.794 130.324 189.992 129.685L189.364 129.508C189.199 129.949 188.816 130.169 188.306 130.169C187.543 130.169 187.017 129.676 186.987 128.77H190.058V128.495C190.058 126.919 189.122 126.379 188.24 126.379C187.094 126.379 186.334 127.283 186.334 128.583C186.334 129.883 187.083 130.753 188.306 130.753ZM186.987 128.208C187.031 127.55 187.496 126.963 188.24 126.963C188.945 126.963 189.397 127.492 189.397 128.208H186.987ZM190.653 127.04H192.052V130.665H192.702V127.04H194.091V126.434H190.653V127.04Z" fill="white"/>
<path d="M187.944 151.656C189.659 151.656 190.885 150.713 190.881 149.409C190.885 148.458 190.281 147.78 189.159 147.638V147.579C190.013 147.426 190.602 146.822 190.598 145.965C190.602 144.761 189.547 143.815 187.967 143.815C186.402 143.815 185.224 144.731 185.202 146.051H186.748C186.767 145.469 187.3 145.093 187.959 145.093C188.612 145.093 189.048 145.488 189.044 146.062C189.048 146.662 188.537 147.068 187.803 147.068H187.091V148.253H187.803C188.667 148.253 189.208 148.686 189.204 149.3C189.208 149.908 188.686 150.325 187.948 150.325C187.236 150.325 186.704 149.953 186.674 149.394H185.049C185.075 150.728 186.267 151.656 187.944 151.656Z" fill="white"/>
<path d="M39.1612 98.6567H35.7521V103.634H37.0937V99.7423H39.1612V98.6567ZM40.003 105.501H41.3835V102.837H41.4256C41.6168 103.252 42.0348 103.715 42.8385 103.715C43.9727 103.715 44.8574 102.818 44.8574 101.152C44.8574 99.4409 43.9339 98.5919 42.8418 98.5919C42.0089 98.5919 41.6103 99.0877 41.4256 99.4928H41.364V98.6567H40.003V105.501ZM41.3543 101.145C41.3543 100.258 41.7302 99.6904 42.401 99.6904C43.0848 99.6904 43.4478 100.283 43.4478 101.145C43.4478 102.014 43.0783 102.617 42.401 102.617C41.7367 102.617 41.3543 102.033 41.3543 101.145ZM46.4607 105.501C47.488 105.501 48.0324 104.976 48.3144 104.172L50.249 98.6632L48.7875 98.6567L47.7473 102.312H47.6954L46.6649 98.6567H45.2131L46.9987 103.777L46.9177 103.988C46.7362 104.454 46.3894 104.477 45.9033 104.328L45.5922 105.358C45.7899 105.443 46.1107 105.501 46.4607 105.501ZM50.1656 105.093H51.5137V103.634H54.5566V105.093H55.8723V102.539H55.1011V98.6567H51.2836L51.154 100.283C51.0762 101.262 50.9822 102.263 50.548 102.539H50.1656V105.093ZM51.922 102.539C52.2169 102.076 52.3303 101.346 52.4049 100.283L52.4567 99.7196H53.7983V102.539H51.922ZM58.9453 103.731C60.1767 103.731 61.0063 103.132 61.2007 102.208L59.9239 102.124C59.7846 102.503 59.4281 102.701 58.9679 102.701C58.2777 102.701 57.8402 102.244 57.8402 101.502V101.499H61.2299V101.12C61.2299 99.4279 60.2059 98.5919 58.8902 98.5919C57.4254 98.5919 56.4759 99.6321 56.4759 101.168C56.4759 102.746 57.4124 103.731 58.9453 103.731ZM57.8402 100.643C57.8694 100.076 58.3004 99.6224 58.9128 99.6224C59.5124 99.6224 59.9272 100.05 59.9304 100.643H57.8402ZM63.4497 98.6567H62.1308V103.634H63.4497V101.68H65.1511V103.634H66.4603V98.6567H65.1511V100.595H63.4497V98.6567ZM68.8502 100.186V98.6567H67.5313V103.634H69.884C71.2029 103.634 71.9774 102.944 71.9807 101.917C71.9774 100.87 71.2029 100.186 69.884 100.186H68.8502ZM68.8502 101.272H69.884C70.3474 101.272 70.6747 101.544 70.6812 101.926C70.6747 102.289 70.3474 102.549 69.884 102.549H68.8502V101.272ZM74.9953 103.634H79.7266V102.487H76.9397V102.442L77.9086 101.492C79.2729 100.248 79.6391 99.6256 79.6391 98.8706C79.6391 97.7201 78.6993 96.9067 77.2767 96.9067C75.8832 96.9067 74.9272 97.7396 74.9305 99.0423H76.2624C76.2591 98.4071 76.661 98.0183 77.267 98.0183C77.8503 98.0183 78.2845 98.3812 78.2845 98.9645C78.2845 99.4928 77.9605 99.8557 77.3577 100.436L74.9953 102.623V103.634ZM83.3456 103.78C85.0145 103.78 86.0223 102.51 86.0256 100.322C86.0288 98.1511 85.008 96.9067 83.3456 96.9067C81.6799 96.9067 80.6688 98.1479 80.6656 100.322C80.6591 102.503 81.6734 103.777 83.3456 103.78ZM83.3456 102.617C82.584 102.617 82.0914 101.852 82.0947 100.322C82.0979 98.8155 82.5873 98.0572 83.3456 98.0572C84.1006 98.0572 84.5932 98.8155 84.5932 100.322C84.5965 101.852 84.1039 102.617 83.3456 102.617ZM87.0261 103.634H91.7574V102.487H88.9705V102.442L89.9394 101.492C91.3037 100.248 91.6699 99.6256 91.6699 98.8706C91.6699 97.7201 90.7301 96.9067 89.3075 96.9067C87.914 96.9067 86.9581 97.7396 86.9613 99.0423H88.2932C88.29 98.4071 88.6918 98.0183 89.2978 98.0183C89.8811 98.0183 90.3153 98.3812 90.3153 98.9645C90.3153 99.4928 89.9913 99.8557 89.3885 100.436L87.0261 102.623V103.634ZM95.3764 103.78C97.0453 103.78 98.0532 102.51 98.0564 100.322C98.0596 98.1511 97.0388 96.9067 95.3764 96.9067C93.7107 96.9067 92.6996 98.1479 92.6964 100.322C92.6899 102.503 93.7042 103.777 95.3764 103.78ZM95.3764 102.617C94.6149 102.617 94.1223 101.852 94.1255 100.322C94.1288 98.8155 94.6181 98.0572 95.3764 98.0572C96.1315 98.0572 96.624 98.8155 96.624 100.322C96.6273 101.852 96.1347 102.617 95.3764 102.617Z" fill="white"/>
<path d="M197.546 99.6501L194.592 96.7044C194.495 96.608 194.338 96.6081 194.241 96.7049C194.145 96.8017 194.145 96.9585 194.242 97.055L197.021 99.8254L194.242 102.596C194.145 102.692 194.145 102.849 194.241 102.946C194.29 102.994 194.353 103.018 194.417 103.018C194.48 103.018 194.543 102.994 194.592 102.946L197.546 100.001C197.593 99.9542 197.619 99.8911 197.619 99.8254C197.619 99.7596 197.593 99.6966 197.546 99.6501Z" fill="white"/>
<path d="M178.364 100.001L181.318 102.946C181.415 103.043 181.572 103.043 181.668 102.946C181.765 102.849 181.765 102.692 181.668 102.596L178.889 99.8253L181.668 97.0549C181.765 96.9584 181.765 96.8017 181.669 96.7049C181.62 96.6564 181.557 96.6321 181.493 96.6321C181.43 96.6321 181.367 96.6562 181.318 96.7044L178.364 99.65C178.317 99.6964 178.291 99.7595 178.291 99.8253C178.291 99.891 178.317 99.9541 178.364 100.001Z" fill="white"/>
<path d="M31.8525 439.645H30.699V442.456H29.75V438.806H32.8016V442.456H31.8525V439.645ZM33.4603 440.631C33.4603 440.013 33.6111 439.538 33.9129 439.207C34.2147 438.871 34.6381 438.704 35.1832 438.704C35.4752 438.704 35.7283 438.75 35.9424 438.842C36.1566 438.935 36.3342 439.066 36.4754 439.236C36.6165 439.402 36.7211 439.604 36.7893 439.842C36.8623 440.081 36.8988 440.344 36.8988 440.631C36.8988 441.249 36.7479 441.726 36.4462 442.062C36.1493 442.393 35.7283 442.558 35.1832 442.558C34.8912 442.558 34.6381 442.512 34.4239 442.419C34.2098 442.327 34.0297 442.198 33.8837 442.033C33.7426 441.862 33.6355 441.658 33.5625 441.419C33.4943 441.181 33.4603 440.918 33.4603 440.631ZM34.4385 440.631C34.4385 440.791 34.4531 440.94 34.4823 441.076C34.5115 441.212 34.5553 441.332 34.6137 441.434C34.6721 441.536 34.7476 441.616 34.8401 441.675C34.9374 441.728 35.0518 441.755 35.1832 441.755C35.4314 441.755 35.6163 441.665 35.738 441.485C35.8597 441.305 35.9205 441.02 35.9205 440.631C35.9205 440.295 35.8646 440.025 35.7526 439.82C35.6407 439.611 35.4509 439.507 35.1832 439.507C34.9496 439.507 34.7671 439.594 34.6356 439.769C34.5042 439.945 34.4385 440.232 34.4385 440.631ZM37.5566 438.813C37.727 438.798 37.9314 438.784 38.1699 438.769C38.4132 438.755 38.6736 438.747 38.951 438.747C39.4864 438.747 39.866 438.825 40.0899 438.981C40.3186 439.132 40.433 439.361 40.433 439.667C40.433 439.838 40.3843 440.003 40.287 440.164C40.1897 440.324 40.0363 440.441 39.8271 440.514V440.543C40.0899 440.602 40.2797 440.706 40.3965 440.857C40.5133 441.003 40.5717 441.193 40.5717 441.427C40.5717 441.792 40.4306 442.064 40.1483 442.244C39.8709 442.424 39.4231 442.514 38.805 442.514C38.6006 442.514 38.384 442.507 38.1553 442.492C37.9265 442.483 37.727 442.468 37.5566 442.449V438.813ZM38.4838 441.726C38.5519 441.736 38.6152 441.743 38.6736 441.748C38.732 441.753 38.805 441.755 38.8926 441.755C39.1554 441.755 39.3428 441.719 39.4547 441.646C39.5667 441.573 39.6227 441.461 39.6227 441.31C39.6227 441.183 39.574 441.081 39.4766 441.003C39.3842 440.92 39.2163 440.879 38.9729 440.879H38.4838V441.726ZM38.9875 440.295C39.1433 440.295 39.2698 440.259 39.3671 440.186C39.4693 440.108 39.5204 440.01 39.5204 439.894C39.5204 439.767 39.4766 439.672 39.389 439.609C39.3063 439.541 39.153 439.507 38.9291 439.507C38.8172 439.507 38.7271 439.509 38.659 439.514C38.5957 439.519 38.5373 439.524 38.4838 439.528V440.295H38.9875ZM41.3228 438.806H42.2719V442.456H41.3228V438.806ZM41.206 437.776C41.206 437.635 41.2571 437.516 41.3593 437.419C41.4664 437.316 41.6124 437.265 41.7973 437.265C41.9823 437.265 42.1307 437.316 42.2427 437.419C42.3595 437.516 42.4179 437.635 42.4179 437.776C42.4179 437.918 42.3595 438.037 42.2427 438.134C42.1307 438.227 41.9823 438.273 41.7973 438.273C41.6124 438.273 41.4664 438.227 41.3593 438.134C41.2571 438.037 41.206 437.918 41.206 437.776ZM46.8314 443.288H46.1378L46.0283 442.456H43.5754L43.4659 443.288H42.7723V441.616H43.2031C43.242 441.563 43.2907 441.473 43.3491 441.346C43.4123 441.215 43.4732 441.037 43.5316 440.813C43.5949 440.589 43.6484 440.312 43.6922 439.981C43.736 439.65 43.7579 439.258 43.7579 438.806H46.2985V441.616H46.8314V443.288ZM45.3494 441.66V439.609H44.5829C44.5731 439.784 44.5561 439.971 44.5317 440.171C44.5074 440.366 44.4758 440.555 44.4368 440.74C44.4028 440.925 44.3614 441.098 44.3127 441.259C44.2641 441.419 44.2105 441.553 44.1521 441.66H45.3494ZM47.1771 440.631C47.1771 440.013 47.328 439.538 47.6298 439.207C47.9315 438.871 48.3549 438.704 48.9 438.704C49.1921 438.704 49.4451 438.75 49.6593 438.842C49.8734 438.935 50.0511 439.066 50.1922 439.236C50.3334 439.402 50.438 439.604 50.5061 439.842C50.5791 440.081 50.6156 440.344 50.6156 440.631C50.6156 441.249 50.4648 441.726 50.163 442.062C49.8661 442.393 49.4451 442.558 48.9 442.558C48.608 442.558 48.3549 442.512 48.1408 442.419C47.9266 442.327 47.7466 442.198 47.6006 442.033C47.4594 441.862 47.3523 441.658 47.2793 441.419C47.2112 441.181 47.1771 440.918 47.1771 440.631ZM48.1554 440.631C48.1554 440.791 48.17 440.94 48.1992 441.076C48.2284 441.212 48.2722 441.332 48.3306 441.434C48.389 441.536 48.4644 441.616 48.5569 441.675C48.6543 441.728 48.7686 441.755 48.9 441.755C49.1483 441.755 49.3332 441.665 49.4549 441.485C49.5766 441.305 49.6374 441.02 49.6374 440.631C49.6374 440.295 49.5814 440.025 49.4695 439.82C49.3575 439.611 49.1677 439.507 48.9 439.507C48.6664 439.507 48.4839 439.594 48.3525 439.769C48.2211 439.945 48.1554 440.232 48.1554 440.631ZM54.3981 440.784L54.4565 440.025H54.42L54.128 440.653L53.4417 441.784H53.0986L52.3467 440.653L52.0692 440.025H52.0254L52.1203 440.777V442.456H51.2735V438.806H52.259L53.0986 440.178L53.303 440.638H53.3322L53.5439 440.164L54.3178 438.806H55.3106V442.456H54.3981V440.784ZM58.3331 440.791L58.3696 440.273H58.3477L58.0338 440.806L56.7343 442.456H56.1357V438.806H57.0848V440.543L57.041 441.04H57.0702L57.3695 440.521L58.6836 438.806H59.2822V442.456H58.3331V440.791ZM62.742 439.645H61.7127V442.456H60.7344V439.645H59.7051V438.806H62.742V439.645ZM65.3627 440.791L65.3992 440.273H65.3773L65.0634 440.806L63.7639 442.456H63.1652V438.806H64.1143V440.543L64.0705 441.04H64.0997L64.399 440.521L65.7131 438.806H66.3117V442.456H65.3627V440.791ZM71.0924 439.645H69.939V442.456H68.9899V438.806H72.0415V442.456H71.0924V439.645ZM72.8754 438.806H73.569L73.6785 439.244H73.7077C73.8342 439.059 73.9826 438.923 74.153 438.835C74.3282 438.747 74.5399 438.704 74.7881 438.704C75.2456 438.704 75.5887 438.85 75.8175 439.142C76.0462 439.429 76.1606 439.894 76.1606 440.536C76.1606 440.847 76.1241 441.13 76.0511 441.383C75.9781 441.631 75.8686 441.843 75.7226 442.018C75.5814 442.193 75.4062 442.327 75.197 442.419C74.9925 442.512 74.7565 442.558 74.4888 442.558C74.3379 442.558 74.2138 442.546 74.1165 442.522C74.0191 442.502 73.9218 442.468 73.8245 442.419V443.916H72.8754V438.806ZM74.5034 439.507C74.3185 439.507 74.1725 439.553 74.0654 439.645C73.9632 439.738 73.8829 439.876 73.8245 440.061V441.58C73.8926 441.633 73.9656 441.677 74.0435 441.711C74.1262 441.741 74.2333 441.755 74.3647 441.755C74.6372 441.755 74.8417 441.66 74.9779 441.47C75.1142 441.276 75.1824 440.957 75.1824 440.514C75.1824 440.193 75.1288 439.945 75.0217 439.769C74.9147 439.594 74.7419 439.507 74.5034 439.507ZM76.6427 440.631C76.6427 440.013 76.7936 439.538 77.0954 439.207C77.3971 438.871 77.8205 438.704 78.3656 438.704C78.6576 438.704 78.9107 438.75 79.1249 438.842C79.339 438.935 79.5167 439.066 79.6578 439.236C79.799 439.402 79.9036 439.604 79.9717 439.842C80.0447 440.081 80.0812 440.344 80.0812 440.631C80.0812 441.249 79.9304 441.726 79.6286 442.062C79.3317 442.393 78.9107 442.558 78.3656 442.558C78.0736 442.558 77.8205 442.512 77.6064 442.419C77.3922 442.327 77.2122 442.198 77.0662 442.033C76.925 441.862 76.8179 441.658 76.7449 441.419C76.6768 441.181 76.6427 440.918 76.6427 440.631ZM77.621 440.631C77.621 440.791 77.6356 440.94 77.6648 441.076C77.694 441.212 77.7378 441.332 77.7962 441.434C77.8546 441.536 77.93 441.616 78.0225 441.675C78.1198 441.728 78.2342 441.755 78.3656 441.755C78.6138 441.755 78.7988 441.665 78.9205 441.485C79.0421 441.305 79.103 441.02 79.103 440.631C79.103 440.295 79.047 440.025 78.9351 439.82C78.8231 439.611 78.6333 439.507 78.3656 439.507C78.132 439.507 77.9495 439.594 77.8181 439.769C77.6867 439.945 77.621 440.232 77.621 440.631ZM82.5856 438.813C82.7559 438.798 82.9603 438.784 83.1988 438.769C83.4422 438.755 83.7025 438.747 83.98 438.747C84.5153 438.747 84.895 438.825 85.1188 438.981C85.3476 439.132 85.462 439.361 85.462 439.667C85.462 439.838 85.4133 440.003 85.3159 440.164C85.2186 440.324 85.0653 440.441 84.856 440.514V440.543C85.1188 440.602 85.3086 440.706 85.4255 440.857C85.5423 441.003 85.6007 441.193 85.6007 441.427C85.6007 441.792 85.4595 442.064 85.1772 442.244C84.8998 442.424 84.4521 442.514 83.834 442.514C83.6295 442.514 83.413 442.507 83.1842 442.492C82.9555 442.483 82.7559 442.468 82.5856 442.449V438.813ZM83.5127 441.726C83.5809 441.736 83.6441 441.743 83.7025 441.748C83.761 441.753 83.834 441.755 83.9216 441.755C84.1844 441.755 84.3718 441.719 84.4837 441.646C84.5956 441.573 84.6516 441.461 84.6516 441.31C84.6516 441.183 84.6029 441.081 84.5056 441.003C84.4131 440.92 84.2452 440.879 84.0019 440.879H83.5127V441.726ZM84.0165 440.295C84.1722 440.295 84.2988 440.259 84.3961 440.186C84.4983 440.108 84.5494 440.01 84.5494 439.894C84.5494 439.767 84.5056 439.672 84.418 439.609C84.3353 439.541 84.1819 439.507 83.9581 439.507C83.8461 439.507 83.7561 439.509 83.6879 439.514C83.6247 439.519 83.5663 439.524 83.5127 439.528V440.295H84.0165ZM86.3518 438.806H87.3008V442.456H86.3518V438.806ZM86.2349 437.776C86.2349 437.635 86.2861 437.516 86.3883 437.419C86.4953 437.316 86.6413 437.265 86.8263 437.265C87.0112 437.265 87.1597 437.316 87.2716 437.419C87.3884 437.516 87.4468 437.635 87.4468 437.776C87.4468 437.918 87.3884 438.037 87.2716 438.134C87.1597 438.227 87.0112 438.273 86.8263 438.273C86.6413 438.273 86.4953 438.227 86.3883 438.134C86.2861 438.037 86.2349 437.918 86.2349 437.776ZM90.2177 439.645H89.495C89.4658 439.991 89.4317 440.334 89.3928 440.675C89.3539 441.015 89.2906 441.322 89.203 441.595C89.1202 441.862 89.0059 442.081 88.8599 442.252C88.7139 442.417 88.524 442.5 88.2904 442.5C88.0081 442.5 87.8086 442.463 87.6918 442.39L87.8086 441.602C87.8865 441.631 87.9595 441.646 88.0276 441.646C88.1249 441.646 88.2101 441.604 88.2831 441.522C88.3561 441.439 88.417 441.29 88.4656 441.076C88.5192 440.862 88.5605 440.572 88.5897 440.207C88.6238 439.838 88.6481 439.37 88.6627 438.806H91.1668V442.456H90.2177V439.645ZM92.9382 441.66C93.0843 441.689 93.223 441.704 93.3544 441.704C93.588 441.704 93.7559 441.665 93.8581 441.587C93.9652 441.504 94.0187 441.378 94.0187 441.208C94.0187 440.891 93.8046 440.733 93.3763 440.733C93.2157 440.733 93.0697 440.75 92.9382 440.784V441.66ZM92.9382 440.105C93.0551 440.086 93.1719 440.074 93.2887 440.069C93.4103 440.059 93.5199 440.054 93.6172 440.054C93.8703 440.054 94.0844 440.083 94.2596 440.142C94.4348 440.195 94.576 440.273 94.6831 440.375C94.795 440.478 94.8753 440.599 94.924 440.74C94.9726 440.877 94.997 441.025 94.997 441.186C94.997 441.629 94.8656 441.96 94.6028 442.179C94.3399 442.398 93.8946 442.507 93.2668 442.507C92.9894 442.507 92.7484 442.502 92.544 442.492C92.3445 442.483 92.1595 442.471 91.9892 442.456V438.806H92.9382V440.105ZM97.7072 441.018H96.5172V442.456H95.5681V438.806H96.5172V440.178H97.7072V438.806H98.6562V442.456H97.7072V441.018ZM101.687 440.791L101.723 440.273H101.701L101.387 440.806L100.088 442.456H99.4893V438.806H100.438V440.543L100.395 441.04H100.424L100.723 440.521L102.037 438.806H102.636V442.456H101.687V440.791ZM105.665 440.791L105.701 440.273H105.679L105.366 440.806L104.066 442.456H103.467V438.806H104.416V440.543L104.373 441.04H104.402L104.701 440.521L106.015 438.806H106.614V442.456H105.665V440.791ZM104.65 437.316C104.684 437.506 104.74 437.64 104.818 437.718C104.901 437.796 105.005 437.835 105.132 437.835C105.268 437.835 105.375 437.796 105.453 437.718C105.536 437.64 105.592 437.509 105.621 437.324L106.344 437.506C106.285 437.823 106.142 438.059 105.913 438.214C105.684 438.365 105.417 438.441 105.11 438.441C104.959 438.441 104.813 438.424 104.672 438.39C104.531 438.356 104.404 438.302 104.292 438.229C104.18 438.151 104.086 438.054 104.008 437.937C103.93 437.82 103.876 437.677 103.847 437.506L104.65 437.316ZM109.945 438.806V439.638C109.945 439.789 109.95 439.92 109.959 440.032C109.974 440.139 109.998 440.229 110.032 440.302C110.071 440.37 110.122 440.422 110.186 440.456C110.254 440.49 110.341 440.507 110.448 440.507C110.59 440.507 110.711 440.49 110.814 440.456C110.921 440.422 111.008 440.38 111.076 440.332V438.806H112.025V442.456H111.076V441.025C111.003 441.079 110.891 441.139 110.741 441.208C110.59 441.271 110.388 441.302 110.135 441.302C109.954 441.302 109.794 441.283 109.653 441.244C109.512 441.205 109.392 441.137 109.295 441.04C109.198 440.942 109.122 440.813 109.069 440.653C109.02 440.492 108.996 440.29 108.996 440.047V438.806H109.945ZM112.835 439.017C113.03 438.93 113.261 438.862 113.528 438.813C113.796 438.76 114.076 438.733 114.368 438.733C114.621 438.733 114.833 438.764 115.003 438.828C115.173 438.886 115.307 438.971 115.405 439.083C115.507 439.195 115.577 439.329 115.616 439.485C115.66 439.64 115.682 439.816 115.682 440.01C115.682 440.224 115.675 440.441 115.66 440.66C115.646 440.874 115.636 441.086 115.631 441.295C115.631 441.504 115.638 441.709 115.653 441.908C115.667 442.103 115.704 442.288 115.762 442.463H114.989L114.835 441.96H114.799C114.701 442.11 114.565 442.242 114.39 442.354C114.22 442.461 113.998 442.514 113.726 442.514C113.555 442.514 113.402 442.49 113.266 442.441C113.129 442.388 113.013 442.315 112.915 442.222C112.818 442.125 112.742 442.013 112.689 441.887C112.635 441.755 112.609 441.609 112.609 441.449C112.609 441.225 112.657 441.037 112.755 440.886C112.857 440.731 113 440.607 113.185 440.514C113.375 440.417 113.599 440.351 113.857 440.317C114.12 440.278 114.412 440.266 114.733 440.28C114.767 440.008 114.748 439.813 114.675 439.696C114.602 439.575 114.439 439.514 114.185 439.514C113.996 439.514 113.794 439.533 113.58 439.572C113.37 439.611 113.197 439.662 113.061 439.726L112.835 439.017ZM114.039 441.733C114.229 441.733 114.38 441.692 114.492 441.609C114.604 441.522 114.687 441.429 114.74 441.332V440.857C114.589 440.843 114.443 440.84 114.302 440.85C114.166 440.86 114.044 440.881 113.937 440.916C113.83 440.95 113.745 440.998 113.682 441.062C113.618 441.125 113.587 441.205 113.587 441.302C113.587 441.439 113.626 441.546 113.704 441.624C113.786 441.697 113.898 441.733 114.039 441.733ZM119.063 442.23C118.917 442.337 118.739 442.417 118.53 442.471C118.326 442.529 118.114 442.558 117.895 442.558C117.603 442.558 117.355 442.512 117.15 442.419C116.951 442.327 116.788 442.198 116.661 442.033C116.534 441.862 116.442 441.658 116.384 441.419C116.33 441.181 116.303 440.918 116.303 440.631C116.303 440.013 116.442 439.538 116.719 439.207C116.997 438.871 117.401 438.704 117.931 438.704C118.199 438.704 118.413 438.725 118.574 438.769C118.739 438.813 118.888 438.869 119.019 438.937L118.793 439.711C118.681 439.657 118.569 439.616 118.457 439.587C118.35 439.558 118.226 439.543 118.085 439.543C117.822 439.543 117.622 439.631 117.486 439.806C117.35 439.976 117.282 440.251 117.282 440.631C117.282 440.787 117.299 440.93 117.333 441.062C117.367 441.193 117.418 441.307 117.486 441.405C117.554 441.502 117.642 441.58 117.749 441.638C117.861 441.692 117.99 441.719 118.136 441.719C118.296 441.719 118.433 441.699 118.545 441.66C118.656 441.616 118.756 441.565 118.844 441.507L119.063 442.23Z" fill="white"/>
<path d="M29.3339 443.186H119.223V443.551H29.3339V443.186Z" fill="white"/>
<path d="M27.9212 37.4484L25.7478 39.6217L27.9212 41.7951" stroke="white" stroke-width="1.02454" stroke-linecap="round" stroke-linejoin="round"/>
<path d="M30.8705 39.6217H25.7478" stroke="white" stroke-width="1.02454" stroke-linecap="round" stroke-linejoin="round"/>
<path d="M46.3036 38.7889H49.1416C50.6336 38.7889 51.4282 38.0105 51.4282 36.9531C51.4282 35.9704 50.7244 35.3768 49.9687 35.3411V35.2763C50.6596 35.1206 51.1688 34.6308 51.1688 33.8492C51.1688 32.8534 50.4293 32.1464 48.9632 32.1464H46.3036V38.7889ZM47.708 37.6407V35.8763H48.8854C49.56 35.8763 49.9784 36.2655 49.9784 36.8137C49.9784 37.3131 49.6379 37.6407 48.853 37.6407H47.708ZM47.708 34.926V33.2816H48.7751C49.3979 33.2816 49.7514 33.6027 49.7514 34.0827C49.7514 34.6081 49.3233 34.926 48.7492 34.926H47.708ZM53.7367 38.883C54.473 38.883 54.9498 38.5619 55.193 38.0981H55.232V38.7889H56.5423V35.4287C56.5423 34.2416 55.5368 33.7421 54.4276 33.7421C53.234 33.7421 52.4491 34.313 52.2577 35.2211L53.5357 35.3249C53.6297 34.9941 53.9249 34.7508 54.4211 34.7508C54.8914 34.7508 55.1606 34.9876 55.1606 35.3963V35.4157C55.1606 35.7368 54.82 35.779 53.9541 35.8633C52.9681 35.9542 52.0826 36.285 52.0826 37.3975C52.0826 38.3835 52.7864 38.883 53.7367 38.883ZM54.1324 37.9294C53.7076 37.9294 53.4027 37.7315 53.4027 37.3521C53.4027 36.9629 53.7238 36.7715 54.2103 36.7034C54.5119 36.6612 55.0049 36.5899 55.1703 36.4796V37.0083C55.1703 37.5305 54.739 37.9294 54.1324 37.9294ZM57.6142 38.7889H58.9959V35.9704C58.9959 35.3574 59.4435 34.9357 60.0533 34.9357C60.2447 34.9357 60.5074 34.9682 60.6371 35.0103V33.7843C60.5139 33.7551 60.342 33.7357 60.2025 33.7357C59.6446 33.7357 59.1873 34.06 59.0057 34.6762H58.9538V33.807H57.6142V38.7889ZM61.3774 38.7889H62.7397V37.991H62.8013C62.9926 38.4062 63.411 38.87 64.2154 38.87C65.3506 38.87 66.2361 37.9716 66.2361 36.3044C66.2361 34.5919 65.3117 33.7421 64.2187 33.7421C63.3851 33.7421 62.9862 34.2384 62.8013 34.6438H62.7591V32.1464H61.3774V38.7889ZM62.7299 36.298C62.7299 35.4093 63.1062 34.8417 63.7775 34.8417C64.4619 34.8417 64.8252 35.4352 64.8252 36.298C64.8252 37.1672 64.4554 37.7705 63.7775 37.7705C63.1126 37.7705 62.7299 37.1867 62.7299 36.298ZM69.4284 38.8862C70.6609 38.8862 71.4912 38.2862 71.6858 37.3618L70.4079 37.2775C70.2684 37.6569 69.9117 37.8548 69.4511 37.8548C68.7602 37.8548 68.3224 37.3975 68.3224 36.6547V36.6515H71.715V36.272C71.715 34.5789 70.6901 33.7421 69.3732 33.7421C67.9072 33.7421 66.9569 34.7833 66.9569 36.3207C66.9569 37.9002 67.8943 38.8862 69.4284 38.8862ZM68.3224 35.7952C68.3516 35.2276 68.7829 34.7736 69.396 34.7736C69.996 34.7736 70.4111 35.2017 70.4144 35.7952H68.3224ZM72.6167 38.7889H73.9984V35.9704C73.9984 35.3574 74.4459 34.9357 75.0557 34.9357C75.2471 34.9357 75.5098 34.9682 75.6395 35.0103V33.7843C75.5163 33.7551 75.3444 33.7357 75.2049 33.7357C74.647 33.7357 74.1897 34.06 74.0081 34.6762H73.9562V33.807H72.6167V38.7889ZM80.499 35.2276C80.3757 34.3097 79.6362 33.7421 78.3778 33.7421C77.1031 33.7421 76.2631 34.3324 76.2663 35.2925C76.2631 36.0385 76.7334 36.5218 77.7064 36.7164L78.5691 36.8883C79.0038 36.9758 79.2016 37.1348 79.2081 37.3845C79.2016 37.6797 78.8805 37.8905 78.3972 37.8905C77.9042 37.8905 77.5767 37.6797 77.4923 37.2742L76.1333 37.3456C76.2631 38.2991 77.0739 38.8862 78.394 38.8862C79.6849 38.8862 80.6092 38.2278 80.6125 37.245C80.6092 36.525 80.139 36.0936 79.1724 35.8958L78.2707 35.7141C77.8069 35.6136 77.635 35.4547 77.6383 35.2147C77.635 34.9163 77.9724 34.7217 78.4005 34.7217C78.8805 34.7217 79.1659 34.9844 79.234 35.3055L80.499 35.2276ZM82.8642 35.9087C82.8675 35.2665 83.2599 34.8903 83.8243 34.8903C84.3854 34.8903 84.7162 35.2503 84.713 35.8633V38.7889H86.0947V35.6168C86.0979 34.4492 85.4103 33.7421 84.3724 33.7421C83.6167 33.7421 83.1107 34.0989 82.8837 34.686H82.8253V32.1464H81.4825V38.7889H82.8642V35.9087ZM89.433 38.8862C90.9444 38.8862 91.885 37.8516 91.885 36.3174C91.885 34.7736 90.9444 33.7421 89.433 33.7421C87.9215 33.7421 86.9809 34.7736 86.9809 36.3174C86.9809 37.8516 87.9215 38.8862 89.433 38.8862ZM89.4394 37.8159C88.7421 37.8159 88.3853 37.1769 88.3853 36.3077C88.3853 35.4385 88.7421 34.7963 89.4394 34.7963C90.1238 34.7963 90.4806 35.4385 90.4806 36.3077C90.4806 37.1769 90.1238 37.8159 89.4394 37.8159ZM92.7834 40.6571H94.1651V37.991H94.2073C94.3986 38.4062 94.817 38.87 95.6214 38.87C96.7566 38.87 97.642 37.9716 97.642 36.3044C97.642 34.5919 96.7177 33.7421 95.6246 33.7421C94.7911 33.7421 94.3921 34.2384 94.2073 34.6438H94.1456V33.807H92.7834V40.6571ZM94.1359 36.298C94.1359 35.4093 94.5121 34.8417 95.1835 34.8417C95.8679 34.8417 96.2312 35.4352 96.2312 36.298C96.2312 37.1672 95.8614 37.7705 95.1835 37.7705C94.5186 37.7705 94.1359 37.1867 94.1359 36.298Z" fill="white"/>
<path d="M46.1171 47.0588H46.6829V44.5739H47.9837V47.0588H48.5534V44.0722H46.1171V47.0588ZM50.6179 47.1191C51.2692 47.1191 51.73 46.7982 51.8623 46.3122L51.312 46.213C51.207 46.4949 50.9542 46.6388 50.6237 46.6388C50.1259 46.6388 49.7915 46.316 49.776 45.7405H51.8992V45.5344C51.8992 44.4553 51.2537 44.0334 50.577 44.0334C49.7448 44.0334 49.1965 44.6672 49.1965 45.585C49.1965 46.5124 49.7371 47.1191 50.6179 47.1191ZM49.7779 45.305C49.8012 44.8811 50.1084 44.5136 50.5809 44.5136C51.032 44.5136 51.3276 44.848 51.3295 45.305H49.7779ZM52.5442 48.1787H53.1256V46.5941H53.1606C53.2656 46.7846 53.4795 47.1171 54.0239 47.1171C54.7472 47.1171 55.2722 46.5377 55.2722 45.5713C55.2722 44.6031 54.7394 44.0334 54.0181 44.0334C53.4639 44.0334 53.2637 44.3717 53.1606 44.5564H53.112V44.0722H52.5442V48.1787ZM53.1139 45.5655C53.1139 44.9414 53.3862 44.5272 53.8936 44.5272C54.4206 44.5272 54.685 44.9725 54.685 45.5655C54.685 46.1644 54.4128 46.6213 53.8936 46.6213C53.3939 46.6213 53.1139 46.1935 53.1139 45.5655ZM57.2107 47.1191C57.8621 47.1191 58.3229 46.7982 58.4551 46.3122L57.9049 46.213C57.7999 46.4949 57.5471 46.6388 57.2166 46.6388C56.7188 46.6388 56.3844 46.316 56.3688 45.7405H58.4921V45.5344C58.4921 44.4553 57.8465 44.0334 57.1699 44.0334C56.3377 44.0334 55.7894 44.6672 55.7894 45.585C55.7894 46.5124 56.3299 47.1191 57.2107 47.1191ZM56.3708 45.305C56.3941 44.8811 56.7013 44.5136 57.1738 44.5136C57.6249 44.5136 57.9204 44.848 57.9224 45.305H56.3708ZM59.7068 46.2441V44.0722H59.1371V47.0588H59.769L61.0795 44.885V47.0588H61.6492V44.0722H61.0232L59.7068 46.2441ZM60.7743 43.0612C60.7743 43.2576 60.6654 43.4306 60.3932 43.4306C60.1171 43.4306 60.014 43.2556 60.014 43.0612H59.5377C59.5377 43.4987 59.8701 43.8 60.3932 43.8C60.9201 43.8 61.2526 43.4987 61.2526 43.0612H60.7743ZM62.0605 44.5739H63.0385V47.0588H63.6063V44.5739H64.5804V44.0722H62.0605V44.5739ZM65.765 46.2441V44.0722H65.1953V47.0588H65.8272L67.1377 44.885V47.0588H67.7074V44.0722H67.0813L65.765 46.2441ZM69.9381 47.0588H71.3653C72.0186 47.0588 72.4016 46.7282 72.4016 46.2538C72.4016 45.8105 72.0613 45.5383 71.6627 45.4916C72.0302 45.4216 72.2733 45.2194 72.2733 44.8694C72.2733 44.3795 71.8494 44.0722 71.1767 44.0722H69.9381V47.0588ZM70.4845 46.5727V45.7425H71.3653C71.653 45.7425 71.8261 45.9116 71.8261 46.1897C71.8261 46.4269 71.653 46.5727 71.3653 46.5727H70.4845ZM70.4845 45.3166V44.5642H71.1767C71.5072 44.5642 71.7075 44.7022 71.7075 44.9317C71.7075 45.1708 71.5091 45.3166 71.1825 45.3166H70.4845ZM74.4884 47.0588H75.0542V44.5739H76.355V47.0588H76.9247V44.0722H74.4884V47.0588ZM77.702 48.1787H78.2833V46.5941H78.3183C78.4233 46.7846 78.6372 47.1171 79.1816 47.1171C79.9049 47.1171 80.4299 46.5377 80.4299 45.5713C80.4299 44.6031 79.8971 44.0334 79.1758 44.0334C78.6216 44.0334 78.4214 44.3717 78.3183 44.5564H78.2697V44.0722H77.702V48.1787ZM78.2717 45.5655C78.2717 44.9414 78.5439 44.5272 79.0513 44.5272C79.5783 44.5272 79.8427 44.9725 79.8427 45.5655C79.8427 46.1644 79.5705 46.6213 79.0513 46.6213C78.5516 46.6213 78.2717 46.1935 78.2717 45.5655ZM82.3393 47.1191C83.1812 47.1191 83.7314 46.5027 83.7314 45.5791C83.7314 44.6497 83.1812 44.0334 82.3393 44.0334C81.4974 44.0334 80.9471 44.6497 80.9471 45.5791C80.9471 46.5027 81.4974 47.1191 82.3393 47.1191ZM82.3412 46.631C81.791 46.631 81.5343 46.1508 81.5343 45.5772C81.5343 45.0055 81.791 44.5194 82.3412 44.5194C82.8876 44.5194 83.1442 45.0055 83.1442 45.5772C83.1442 46.1508 82.8876 46.631 82.3412 46.631ZM85.6656 48.0757H86.247V47.1191C87.0908 47.1191 87.6644 46.5008 87.6644 45.5791C87.6644 44.6517 87.0908 44.0334 86.247 44.0334V43.0767H85.6656V44.0334C84.8217 44.0334 84.2462 44.6517 84.2462 45.5791C84.2462 46.5008 84.8217 47.1191 85.6656 47.1191V48.0757ZM85.6656 46.6291C85.1076 46.6291 84.8354 46.1449 84.8354 45.5791C84.8354 45.0133 85.1076 44.5233 85.6656 44.5233V46.6291ZM86.247 46.6291V44.5233C86.805 44.5233 87.0753 45.0133 87.0753 45.5791C87.0753 46.1449 86.805 46.6291 86.247 46.6291ZM88.3104 47.0588H88.8918V44.0722H88.3104V47.0588ZM88.604 43.6114C88.8043 43.6114 88.9715 43.4559 88.9715 43.2653C88.9715 43.0748 88.8043 42.9173 88.604 42.9173C88.4018 42.9173 88.2365 43.0748 88.2365 43.2653C88.2365 43.4559 88.4018 43.6114 88.604 43.6114ZM89.4387 47.0588H89.6253C90.2767 47.0588 90.5158 46.5766 90.5625 45.5888L90.6092 44.5739H91.5852V47.0588H92.1549V44.0722H90.0706L90.0181 45.3944C89.9811 46.316 89.8761 46.5552 89.5436 46.5552H89.4367L89.4387 47.0588ZM93.5 45.0989V44.0722H92.9303V47.0588H94.2349C94.966 47.0588 95.3743 46.6349 95.3743 46.073C95.3743 45.4994 94.966 45.0989 94.2349 45.0989H93.5ZM93.5 45.6005H94.2349C94.5694 45.6005 94.8085 45.8027 94.8085 46.0905C94.8085 46.3627 94.5694 46.5571 94.2349 46.5571H93.5V45.6005Z" fill="#4E5256"/>
<path d="M197.125 45.0097V42.914C197.125 42.8213 197.088 42.7325 197.022 42.667C196.957 42.6015 196.868 42.5647 196.775 42.5647H195.378C195.286 42.5647 195.197 42.6015 195.131 42.667C195.066 42.7325 195.029 42.8213 195.029 42.914V45.0097C195.029 45.1023 194.992 45.1911 194.927 45.2566C194.861 45.3221 194.772 45.3589 194.68 45.3589L192.584 45.3592C192.538 45.3592 192.493 45.3502 192.451 45.3326C192.408 45.3151 192.37 45.2894 192.337 45.2569C192.305 45.2245 192.279 45.186 192.262 45.1436C192.244 45.1012 192.235 45.0558 192.235 45.0099V40.9732C192.235 40.9245 192.245 40.8764 192.265 40.8319C192.285 40.7874 192.313 40.7475 192.349 40.7148L195.842 37.5392C195.906 37.4808 195.99 37.4484 196.077 37.4484C196.164 37.4484 196.247 37.4808 196.312 37.5392L199.805 40.7148C199.841 40.7475 199.869 40.7874 199.889 40.8319C199.909 40.8764 199.919 40.9245 199.919 40.9732V45.0099C199.919 45.0558 199.91 45.1012 199.892 45.1436C199.875 45.186 199.849 45.2245 199.817 45.2569C199.784 45.2894 199.746 45.3151 199.703 45.3326C199.661 45.3502 199.616 45.3592 199.57 45.3592L197.474 45.3589C197.381 45.3589 197.292 45.3221 197.227 45.2566C197.161 45.1911 197.125 45.1023 197.125 45.0097V45.0097Z" stroke="white" stroke-width="1.02454" stroke-linecap="round" stroke-linejoin="round"/>
<path d="M53.2655 75.2241C54.7849 75.2241 55.8949 74.1894 56.147 72.6504C56.4024 71.0852 55.6231 70.0309 54.0907 70.0309C52.5681 70.0309 51.458 71.0623 51.2092 72.6078C50.9505 74.1697 51.7298 75.2241 53.2655 75.2241ZM53.4063 74.1435C52.7187 74.1435 52.4731 73.5083 52.6139 72.6439C52.758 71.7565 53.2426 71.095 53.9499 71.095C54.6375 71.095 54.8798 71.7336 54.7423 72.6013C54.595 73.4887 54.1103 74.1435 53.4063 74.1435ZM61.9919 68.2496C61.7234 68.4231 61.3272 68.4198 60.7902 68.4198C60.6625 68.4198 60.5282 68.4166 60.3842 68.4198C58.5472 68.4362 57.4044 69.579 56.9951 72.0053L56.9296 72.4179C56.6284 74.2451 57.411 75.2241 58.9336 75.2241C60.4529 75.2241 61.5531 74.2418 61.8151 72.7093C62.0509 71.2326 61.337 70.355 60.06 70.355C59.2447 70.355 58.6454 70.7054 58.2394 71.321H58.1903C58.5145 70.0865 59.0678 69.579 60.2401 69.5659C61.2715 69.5495 61.7824 69.5135 62.267 69.1598L61.9919 68.2496ZM59.117 74.1435C58.4621 74.1435 58.1543 73.6131 58.2983 72.7552C58.4391 71.8973 58.9139 71.4127 59.5656 71.4127C60.2073 71.4127 60.525 71.8973 60.3874 72.7552C60.2434 73.6164 59.7587 74.1435 59.117 74.1435ZM64.6655 75.2241C65.9163 75.2241 66.843 74.6183 67.1999 73.6851L65.9262 73.6C65.7199 73.9831 65.3269 74.1828 64.862 74.1828C64.1481 74.1828 63.7912 73.7965 63.9189 73.004L63.9255 72.968H67.3505L67.4127 72.5849C67.6976 70.8757 66.807 70.0309 65.4743 70.0309C63.9942 70.0309 62.8613 71.0819 62.6026 72.634C62.3341 74.2287 63.1167 75.2241 64.6655 75.2241ZM64.0826 72.1036C64.2005 71.5502 64.7343 71.0721 65.3335 71.0721C65.936 71.0721 66.2732 71.5043 66.175 72.1036H64.0826ZM67.592 77.012H68.9869L69.4323 74.3204H69.4814C69.6058 74.7395 69.9463 75.2077 70.7584 75.2077C71.9045 75.2077 72.9523 74.3007 73.2306 72.6177C73.5155 70.8888 72.7296 70.0309 71.6261 70.0309C70.7846 70.0309 70.2902 70.5318 70.0413 70.9411H69.9824L70.1199 70.0963H68.7446L67.592 77.012ZM69.6909 72.6111C69.835 71.7139 70.3164 71.1409 70.9909 71.1409C71.6818 71.1409 71.9438 71.7401 71.8062 72.6111C71.6523 73.4887 71.1906 74.0977 70.503 74.0977C69.8317 74.0977 69.5469 73.5083 69.6909 72.6111ZM75.3885 73.2856L75.9189 70.0963H74.5895L73.7512 75.1259H75.1331L77.471 71.9268L76.9373 75.1259H78.27L79.1082 70.0963H77.7297L75.3885 73.2856ZM80.8928 76.5994H82.255L82.4973 75.1259H85.572L85.3297 76.5994H86.6591L87.088 74.0191H86.3087L86.9538 70.0963H83.0965L82.6937 71.7401C82.4514 72.729 82.1895 73.7408 81.7081 74.0191H81.3217L80.8928 76.5994ZM83.0965 74.0191C83.4731 73.5509 83.7055 72.8141 83.9577 71.7401L84.1083 71.1704H85.4639L84.9924 74.0191H83.0965ZM89.1378 75.2208C89.8811 75.2208 90.4181 74.8967 90.739 74.4284H90.7783L90.6604 75.1259H91.9833L92.5498 71.7336C92.7463 70.5351 91.8131 70.0309 90.6997 70.0309C89.4915 70.0309 88.5976 70.6072 88.257 71.524L89.5275 71.6288C89.6781 71.2948 90.035 71.0492 90.5327 71.0492C91.0043 71.0492 91.2269 71.2882 91.1614 71.7008V71.7205C91.1025 72.0414 90.7456 72.0839 89.8648 72.1723C88.853 72.264 87.9066 72.6013 87.7167 73.7211C87.553 74.7133 88.1817 75.2208 89.1378 75.2208ZM89.6978 74.2582C89.2623 74.2582 88.997 74.0551 89.056 73.6753C89.1182 73.2824 89.4816 73.0892 89.9859 73.0204C90.2904 72.9713 90.8045 72.9058 90.9846 72.7945L90.8995 73.3282C90.8078 73.8554 90.3101 74.2582 89.6978 74.2582ZM93.2243 71.1933H94.8354L94.1805 75.1259H95.5132L96.1648 71.1933H97.7824L97.9657 70.0963H93.4077L93.2243 71.1933ZM98.5265 77.012C99.5579 77.012 100.2 76.488 100.622 75.6694L103.5 70.0963H101.971L100.304 73.7965H100.252L99.8264 70.0963H98.4119L99.3549 75.2601L99.2305 75.473C98.9587 75.9412 98.628 75.9772 98.1597 75.8266L97.6686 76.8679C97.8585 76.953 98.1696 77.012 98.5265 77.012ZM105.903 71.1933H107.514L106.859 75.1259H108.192L108.843 71.1933H110.461L110.644 70.0963H106.086L105.903 71.1933ZM111.893 75.2208C112.636 75.2208 113.173 74.8967 113.494 74.4284H113.533L113.415 75.1259H114.738L115.305 71.7336C115.501 70.5351 114.568 70.0309 113.455 70.0309C112.246 70.0309 111.352 70.6072 111.012 71.524L112.282 71.6288C112.433 71.2948 112.79 71.0492 113.288 71.0492C113.759 71.0492 113.982 71.2882 113.916 71.7008V71.7205C113.857 72.0414 113.5 72.0839 112.62 72.1723C111.608 72.264 110.662 72.6013 110.472 73.7211C110.308 74.7133 110.937 75.2208 111.893 75.2208ZM112.453 74.2582C112.017 74.2582 111.752 74.0551 111.811 73.6753C111.873 73.2824 112.237 73.0892 112.741 73.0204C113.045 72.9713 113.559 72.9058 113.74 72.7945L113.654 73.3282C113.563 73.8554 113.065 74.2582 112.453 74.2582ZM123.154 70.0963H121.831L121.432 72.5031C121.183 72.5587 120.944 72.5849 120.702 72.5849C119.962 72.5849 119.723 72.3884 119.818 71.8056L120.103 70.0898H118.79L118.505 71.8056C118.289 73.1154 119.074 73.6818 120.522 73.6818C120.741 73.6818 121 73.6524 121.249 73.6033L120.996 75.1259H122.319L123.154 70.0963ZM124.823 75.2208C125.567 75.2208 126.104 74.8967 126.425 74.4284H126.464L126.346 75.1259H127.669L128.235 71.7336C128.432 70.5351 127.499 70.0309 126.385 70.0309C125.177 70.0309 124.283 70.6072 123.943 71.524L125.213 71.6288C125.364 71.2948 125.721 71.0492 126.218 71.0492C126.69 71.0492 126.913 71.2882 126.847 71.7008V71.7205C126.788 72.0414 126.431 72.0839 125.55 72.1723C124.539 72.264 123.592 72.6013 123.402 73.7211C123.239 74.7133 123.867 75.2208 124.823 75.2208ZM125.383 74.2582C124.948 74.2582 124.683 74.0551 124.742 73.6753C124.804 73.2824 125.167 73.0892 125.672 73.0204C125.976 72.9713 126.49 72.9058 126.67 72.7945L126.585 73.3282C126.493 73.8554 125.996 74.2582 125.383 74.2582ZM131.011 75.2241C132.35 75.2241 133.316 74.4382 133.581 73.2824H132.265C132.091 73.8161 131.692 74.1206 131.207 74.1206C130.555 74.1206 130.225 73.5738 130.385 72.6111C130.536 71.6615 131.056 71.118 131.711 71.118C132.216 71.118 132.487 71.4585 132.481 71.9562H133.794C133.931 70.7938 133.181 70.0309 131.868 70.0309C130.343 70.0309 129.216 71.0885 128.967 72.6308C128.709 74.1599 129.462 75.2241 131.011 75.2241Z" fill="white"/>
<path d="M32.4082 76.606C35.6899 76.606 38.2804 74.8669 38.6878 72.3856C39.0007 70.4865 37.8801 69.0384 35.8791 68.7619V68.6528C37.6691 68.3617 38.9644 67.3721 39.2481 65.6621C39.6265 63.3336 37.8656 61.2962 34.7076 61.2962C31.7388 61.2962 29.1847 63.0935 28.7335 65.6621H31.7388C31.9279 64.527 33.245 63.7921 34.5475 63.7921C35.8209 63.7921 36.4103 64.4833 36.2357 65.5166C36.0319 66.7754 34.8386 67.6486 33.3905 67.6486H32.0808L31.6951 69.9626H33.1431C34.7949 69.9626 35.6972 70.6611 35.508 71.8399C35.3188 73.0769 34.06 74.0083 32.561 74.0083C31.2221 74.0083 30.3417 73.2807 30.4945 72.1892H27.3656C26.9581 74.8015 29.0537 76.606 32.4082 76.606ZM41.8349 76.5915C42.7445 76.5915 43.625 75.8129 43.6977 74.8451C43.7778 73.8992 43.0283 73.1279 42.0969 73.1279C41.1291 73.1279 40.2705 73.8846 40.205 74.8451C40.1468 75.8129 40.8526 76.5915 41.8349 76.5915Z" fill="white"/>
<defs>
<filter id="filter0_ii_3195:6918" x="-0.96489" y="-4.80595" width="239.713" height="490.924" filterUnits="userSpaceOnUse" color-interpolation-filters="sRGB">
<feFlood flood-opacity="0" result="BackgroundImageFix"/>
<feBlend mode="normal" in="SourceGraphic" in2="BackgroundImageFix" result="shape"/>
<feColorMatrix in="SourceAlpha" type="matrix" values="0 0 0 0 0 0 0 0 0 0 0 0 0 0 0 0 0 0 127 0" result="hardAlpha"/>
<feOffset dx="5.74852" dy="1.1497"/>
<feGaussianBlur stdDeviation="5.74852"/>
<feComposite in2="hardAlpha" operator="arithmetic" k2="-1" k3="1"/>
<feColorMatrix type="matrix" values="0 0 0 0 0.105882 0 0 0 0 0.113725 0 0 0 0 0.129412 0 0 0 1 0"/>
<feBlend mode="normal" in2="shape" result="effect1_innerShadow_3195:6918"/>
<feColorMatrix in="SourceAlpha" type="matrix" values="0 0 0 0 0 0 0 0 0 0 0 0 0 0 0 0 0 0 127 0" result="hardAlpha"/>
<feOffset dx="-1.1497" dy="-5.74852"/>
<feGaussianBlur stdDeviation="5.74852"/>
<feComposite in2="hardAlpha" operator="arithmetic" k2="-1" k3="1"/>
<feColorMatrix type="matrix" values="0 0 0 0 0.399479 0 0 0 0 0.514406 0 0 0 0 0.7375 0 0 0 0.25 0"/>
<feBlend mode="normal" in2="effect1_innerShadow_3195:6918" result="effect2_innerShadow_3195:6918"/>
</filter>
<linearGradient id="paint0_linear_3195:6918" x1="10.3799" y1="13.8841" x2="222.37" y2="472.917" gradientUnits="userSpaceOnUse">
<stop stop-color="#1C192D"/>
<stop offset="0.40625" stop-color="#181A20"/>
</linearGradient>
</defs>
</svg>
