<svg width="234" height="485" viewBox="0 0 234 485" fill="none" xmlns="http://www.w3.org/2000/svg">
<g filter="url(#filter0_ii_3195:6955)">
<rect x="0.0924072" width="233.032" height="484.482" rx="28.8257" fill="#1B1D21"/>
</g>
<rect x="10.1284" y="11.4832" width="212.533" height="459.975" rx="18.2902" fill="url(#paint0_linear_3195:6955)"/>
<path d="M30.4314 438.626H29.2388V440.067H28.2877V436.409H29.2388V437.784H30.4314V436.409H31.3824V440.067H30.4314V438.626ZM35.1437 439.752C34.9974 439.869 34.7974 439.969 34.5438 440.052C34.2951 440.13 34.0292 440.169 33.7463 440.169C33.1562 440.169 32.7245 439.999 32.4514 439.657C32.1783 439.311 32.0417 438.838 32.0417 438.238C32.0417 437.594 32.1953 437.111 32.5026 436.789C32.8099 436.467 33.2415 436.306 33.7976 436.306C33.9829 436.306 34.1634 436.331 34.3389 436.38C34.5145 436.428 34.6706 436.509 34.8072 436.621C34.9437 436.733 35.0535 436.884 35.1364 437.075C35.2193 437.265 35.2608 437.501 35.2608 437.784C35.2608 437.887 35.2535 437.996 35.2388 438.114C35.2291 438.231 35.212 438.353 35.1876 438.479H32.9928C33.0074 438.787 33.0855 439.018 33.2269 439.174C33.3732 439.33 33.6073 439.408 33.9292 439.408C34.1292 439.408 34.3072 439.379 34.4633 439.321C34.6243 439.257 34.7462 439.194 34.8291 439.13L35.1437 439.752ZM33.7829 437.067C33.5342 437.067 33.3488 437.143 33.2269 437.294C33.1098 437.44 33.0391 437.638 33.0147 437.887H34.3755C34.395 437.623 34.3536 437.421 34.2512 437.279C34.1536 437.138 33.9975 437.067 33.7829 437.067ZM37.7829 436.416C37.9536 436.402 38.1585 436.387 38.3975 436.372C38.6414 436.358 38.9023 436.35 39.1803 436.35C39.7168 436.35 40.0973 436.428 40.3216 436.584C40.5509 436.736 40.6655 436.965 40.6655 437.272C40.6655 437.443 40.6167 437.609 40.5192 437.77C40.4216 437.931 40.268 438.048 40.0582 438.121V438.15C40.3216 438.209 40.5118 438.314 40.6289 438.465C40.746 438.611 40.8045 438.801 40.8045 439.035C40.8045 439.401 40.663 439.674 40.3802 439.855C40.1021 440.035 39.6534 440.125 39.034 440.125C38.8291 440.125 38.6121 440.118 38.3829 440.104C38.1536 440.094 37.9536 440.079 37.7829 440.06V436.416ZM38.7121 439.335C38.7804 439.345 38.8438 439.352 38.9023 439.357C38.9608 439.362 39.034 439.365 39.1218 439.365C39.3852 439.365 39.5729 439.328 39.6851 439.255C39.7973 439.182 39.8534 439.069 39.8534 438.918C39.8534 438.791 39.8046 438.689 39.7071 438.611C39.6144 438.528 39.4461 438.487 39.2023 438.487H38.7121V439.335ZM39.2169 437.901C39.373 437.901 39.4998 437.865 39.5973 437.792C39.6998 437.714 39.751 437.616 39.751 437.499C39.751 437.372 39.7071 437.277 39.6193 437.214C39.5364 437.145 39.3827 437.111 39.1584 437.111C39.0462 437.111 38.956 437.114 38.8877 437.119C38.8243 437.123 38.7657 437.128 38.7121 437.133V437.901H39.2169ZM41.4548 436.621C41.6499 436.533 41.8815 436.465 42.1498 436.416C42.418 436.363 42.6985 436.336 42.9911 436.336C43.2448 436.336 43.4569 436.367 43.6276 436.431C43.7983 436.489 43.9325 436.575 44.03 436.687C44.1324 436.799 44.2032 436.933 44.2422 437.089C44.2861 437.245 44.308 437.421 44.308 437.616C44.308 437.831 44.3007 438.048 44.2861 438.267C44.2715 438.482 44.2617 438.694 44.2568 438.904C44.2568 439.113 44.2641 439.318 44.2788 439.518C44.2934 439.713 44.33 439.899 44.3885 440.074H43.613L43.4594 439.569H43.4228C43.3252 439.721 43.1887 439.852 43.0131 439.964C42.8424 440.072 42.6205 440.125 42.3473 440.125C42.1766 440.125 42.023 440.101 41.8864 440.052C41.7498 439.999 41.6328 439.925 41.5352 439.833C41.4377 439.735 41.3621 439.623 41.3084 439.496C41.2548 439.365 41.228 439.218 41.228 439.057C41.228 438.833 41.2767 438.645 41.3743 438.494C41.4767 438.338 41.6206 438.214 41.8059 438.121C41.9961 438.023 42.2205 437.957 42.479 437.923C42.7424 437.884 43.035 437.872 43.3569 437.887C43.3911 437.614 43.3716 437.419 43.2984 437.301C43.2253 437.18 43.0619 437.119 42.8082 437.119C42.618 437.119 42.4156 437.138 42.201 437.177C41.9913 437.216 41.8181 437.267 41.6816 437.331L41.4548 436.621ZM42.6619 439.343C42.8521 439.343 43.0033 439.301 43.1155 439.218C43.2277 439.13 43.3106 439.038 43.3643 438.94V438.465C43.2131 438.45 43.0667 438.448 42.9253 438.457C42.7887 438.467 42.6668 438.489 42.5595 438.523C42.4522 438.557 42.3668 438.606 42.3034 438.67C42.24 438.733 42.2083 438.813 42.2083 438.911C42.2083 439.048 42.2473 439.155 42.3254 439.233C42.4083 439.306 42.5205 439.343 42.6619 439.343ZM46.4596 438.582L45.7134 440.067H44.6453L45.6037 438.392L45.8524 438.172L45.4793 437.894L44.7257 436.409H45.7427L46.4231 437.894H46.7377V436.409H47.6449V437.967L47.9229 437.865L48.6106 436.409H49.6202L48.8227 437.894L48.5374 438.128L48.9105 438.421L49.7958 440.067H48.7057L47.9594 438.552H47.6449V440.067H46.7377V438.479L46.4596 438.582ZM52.3903 437.25H51.666C51.6368 437.597 51.6026 437.94 51.5636 438.282C51.5246 438.623 51.4612 438.93 51.3734 439.204C51.2905 439.472 51.1758 439.691 51.0295 439.862C50.8832 440.028 50.693 440.111 50.4589 440.111C50.176 440.111 49.976 440.074 49.8589 440.001L49.976 439.211C50.054 439.24 50.1272 439.255 50.1955 439.255C50.293 439.255 50.3784 439.213 50.4515 439.13C50.5247 439.048 50.5857 438.899 50.6344 438.684C50.6881 438.47 50.7296 438.179 50.7588 437.814C50.793 437.443 50.8173 436.975 50.832 436.409H53.3414V440.067H52.3903V437.25ZM56.3677 438.399L56.4043 437.879H56.3823L56.0677 438.413L54.7655 440.067H54.1655V436.409H55.1166V438.15L55.0727 438.648H55.102L55.402 438.128L56.7189 436.409H57.3188V440.067H56.3677V438.399ZM58.1522 436.416C58.3229 436.402 58.5278 436.387 58.7668 436.372C59.0107 436.358 59.2716 436.35 59.5496 436.35C60.0861 436.35 60.4666 436.428 60.6909 436.584C60.9202 436.736 61.0348 436.965 61.0348 437.272C61.0348 437.443 60.986 437.609 60.8885 437.77C60.7909 437.931 60.6373 438.048 60.4275 438.121V438.15C60.6909 438.209 60.8811 438.314 60.9982 438.465C61.1153 438.611 61.1738 438.801 61.1738 439.035C61.1738 439.401 61.0323 439.674 60.7495 439.855C60.4714 440.035 60.0227 440.125 59.4033 440.125C59.1984 440.125 58.9814 440.118 58.7522 440.104C58.5229 440.094 58.3229 440.079 58.1522 440.06V436.416ZM59.0814 439.335C59.1497 439.345 59.2131 439.352 59.2716 439.357C59.3301 439.362 59.4033 439.365 59.4911 439.365C59.7545 439.365 59.9422 439.328 60.0544 439.255C60.1666 439.182 60.2227 439.069 60.2227 438.918C60.2227 438.791 60.1739 438.689 60.0764 438.611C59.9837 438.528 59.8154 438.487 59.5716 438.487H59.0814V439.335ZM59.5862 437.901C59.7423 437.901 59.8691 437.865 59.9666 437.792C60.0691 437.714 60.1203 437.616 60.1203 437.499C60.1203 437.372 60.0764 437.277 59.9886 437.214C59.9057 437.145 59.752 437.111 59.5277 437.111C59.4155 437.111 59.3253 437.114 59.257 437.119C59.1936 437.123 59.135 437.128 59.0814 437.133V437.901H59.5862ZM61.6704 438.238C61.6704 437.618 61.8216 437.143 62.124 436.811C62.4264 436.475 62.8507 436.306 63.397 436.306C63.6897 436.306 63.9433 436.353 64.1579 436.445C64.3725 436.538 64.5505 436.67 64.692 436.841C64.8334 437.006 64.9383 437.209 65.0066 437.448C65.0797 437.687 65.1163 437.95 65.1163 438.238C65.1163 438.857 64.9651 439.335 64.6627 439.672C64.3652 440.004 63.9433 440.169 63.397 440.169C63.1044 440.169 62.8507 440.123 62.6361 440.03C62.4215 439.938 62.2411 439.808 62.0948 439.643C61.9533 439.472 61.846 439.267 61.7728 439.028C61.7046 438.789 61.6704 438.526 61.6704 438.238ZM62.6508 438.238C62.6508 438.399 62.6654 438.548 62.6947 438.684C62.7239 438.821 62.7678 438.94 62.8264 439.043C62.8849 439.145 62.9605 439.226 63.0532 439.284C63.1507 439.338 63.2653 439.365 63.397 439.365C63.6458 439.365 63.8311 439.274 63.953 439.094C64.075 438.913 64.1359 438.628 64.1359 438.238C64.1359 437.901 64.0799 437.631 63.9677 437.426C63.8555 437.216 63.6653 437.111 63.397 437.111C63.1629 437.111 62.98 437.199 62.8483 437.375C62.7166 437.55 62.6508 437.838 62.6508 438.238Z" fill="white"/>
<path d="M30.4311 438.626H29.2386V440.067H28.2875V436.409H29.2386V437.784H30.4311V436.409H31.3822V440.067H30.4311V438.626ZM35.1435 439.752C34.9972 439.869 34.7972 439.969 34.5436 440.052C34.2948 440.13 34.029 440.169 33.7461 440.169C33.1559 440.169 32.7243 439.999 32.4512 439.657C32.178 439.311 32.0415 438.838 32.0415 438.238C32.0415 437.594 32.1951 437.111 32.5024 436.789C32.8096 436.467 33.2413 436.306 33.7973 436.306C33.9827 436.306 34.1631 436.331 34.3387 436.38C34.5143 436.428 34.6704 436.509 34.8069 436.621C34.9435 436.733 35.0532 436.884 35.1362 437.075C35.2191 437.265 35.2605 437.501 35.2605 437.784C35.2605 437.887 35.2532 437.997 35.2386 438.114C35.2288 438.231 35.2118 438.353 35.1874 438.479H32.9925C33.0072 438.787 33.0852 439.018 33.2267 439.174C33.373 439.33 33.6071 439.409 33.929 439.409C34.129 439.409 34.307 439.379 34.4631 439.321C34.624 439.257 34.746 439.194 34.8289 439.13L35.1435 439.752ZM33.7827 437.067C33.5339 437.067 33.3486 437.143 33.2267 437.294C33.1096 437.44 33.0389 437.638 33.0145 437.887H34.3753C34.3948 437.623 34.3533 437.421 34.2509 437.28C34.1534 437.138 33.9973 437.067 33.7827 437.067ZM37.7827 436.416C37.9534 436.402 38.1583 436.387 38.3972 436.372C38.6411 436.358 38.9021 436.35 39.1801 436.35C39.7166 436.35 40.097 436.428 40.3214 436.584C40.5506 436.736 40.6652 436.965 40.6652 437.272C40.6652 437.443 40.6165 437.609 40.5189 437.77C40.4214 437.931 40.2677 438.048 40.058 438.121V438.15C40.3214 438.209 40.5116 438.314 40.6287 438.465C40.7457 438.611 40.8042 438.801 40.8042 439.035C40.8042 439.401 40.6628 439.674 40.3799 439.855C40.1019 440.035 39.6532 440.125 39.0337 440.125C38.8289 440.125 38.6119 440.118 38.3826 440.104C38.1534 440.094 37.9534 440.079 37.7827 440.06V436.416ZM38.7118 439.335C38.7801 439.345 38.8435 439.352 38.9021 439.357C38.9606 439.362 39.0337 439.365 39.1215 439.365C39.3849 439.365 39.5727 439.328 39.6849 439.255C39.7971 439.182 39.8531 439.07 39.8531 438.918C39.8531 438.792 39.8044 438.689 39.7068 438.611C39.6142 438.528 39.4459 438.487 39.202 438.487H38.7118V439.335ZM39.2166 437.901C39.3727 437.901 39.4995 437.865 39.5971 437.792C39.6995 437.714 39.7507 437.616 39.7507 437.499C39.7507 437.372 39.7068 437.277 39.619 437.214C39.5361 437.145 39.3825 437.111 39.1581 437.111C39.0459 437.111 38.9557 437.114 38.8874 437.119C38.824 437.123 38.7655 437.128 38.7118 437.133V437.901H39.2166ZM41.4545 436.621C41.6496 436.533 41.8813 436.465 42.1495 436.416C42.4178 436.363 42.6982 436.336 42.9909 436.336C43.2445 436.336 43.4567 436.367 43.6274 436.431C43.7981 436.489 43.9322 436.575 44.0298 436.687C44.1322 436.799 44.2029 436.933 44.2419 437.089C44.2858 437.245 44.3078 437.421 44.3078 437.616C44.3078 437.831 44.3005 438.048 44.2858 438.267C44.2712 438.482 44.2615 438.694 44.2566 438.904C44.2566 439.113 44.2639 439.318 44.2785 439.518C44.2932 439.713 44.3297 439.899 44.3883 440.074H43.6128L43.4591 439.569H43.4225C43.325 439.721 43.1884 439.852 43.0128 439.965C42.8421 440.072 42.6202 440.125 42.3471 440.125C42.1764 440.125 42.0227 440.101 41.8862 440.052C41.7496 439.999 41.6325 439.926 41.535 439.833C41.4374 439.735 41.3618 439.623 41.3082 439.496C41.2545 439.365 41.2277 439.218 41.2277 439.057C41.2277 438.833 41.2765 438.645 41.374 438.494C41.4765 438.338 41.6203 438.214 41.8057 438.121C41.9959 438.023 42.2203 437.957 42.4788 437.923C42.7421 437.884 43.0348 437.872 43.3567 437.887C43.3908 437.614 43.3713 437.419 43.2982 437.301C43.225 437.18 43.0616 437.119 42.808 437.119C42.6178 437.119 42.4154 437.138 42.2008 437.177C41.991 437.216 41.8179 437.267 41.6813 437.331L41.4545 436.621ZM42.6617 439.343C42.8519 439.343 43.0031 439.301 43.1153 439.218C43.2274 439.13 43.3104 439.038 43.364 438.94V438.465C43.2128 438.45 43.0665 438.448 42.925 438.457C42.7885 438.467 42.6665 438.489 42.5592 438.523C42.4519 438.557 42.3666 438.606 42.3032 438.67C42.2398 438.733 42.2081 438.813 42.2081 438.911C42.2081 439.048 42.2471 439.155 42.3251 439.233C42.408 439.306 42.5202 439.343 42.6617 439.343ZM46.4594 438.582L45.7132 440.067H44.645L45.6034 438.392L45.8522 438.172L45.479 437.894L44.7255 436.409H45.7424L46.4228 437.894H46.7374V436.409H47.6446V437.967L47.9226 437.865L48.6103 436.409H49.62L48.8225 437.894L48.5372 438.128L48.9103 438.421L49.7955 440.067H48.7054L47.9592 438.553H47.6446V440.067H46.7374V438.479L46.4594 438.582ZM52.3901 437.25H51.6658C51.6365 437.597 51.6024 437.94 51.5633 438.282C51.5243 438.623 51.4609 438.931 51.3731 439.204C51.2902 439.472 51.1756 439.691 51.0293 439.862C50.8829 440.028 50.6927 440.111 50.4586 440.111C50.1757 440.111 49.9758 440.074 49.8587 440.001L49.9758 439.211C50.0538 439.24 50.127 439.255 50.1952 439.255C50.2928 439.255 50.3781 439.213 50.4513 439.13C50.5245 439.048 50.5854 438.899 50.6342 438.684C50.6879 438.47 50.7293 438.179 50.7586 437.814C50.7927 437.443 50.8171 436.975 50.8317 436.409H53.3412V440.067H52.3901V437.25ZM56.3674 438.399L56.404 437.879H56.3821L56.0675 438.414L54.7652 440.067H54.1653V436.409H55.1164V438.15L55.0725 438.648H55.1018L55.4017 438.128L56.7186 436.409H57.3185V440.067H56.3674V438.399ZM58.152 436.416C58.3227 436.402 58.5276 436.387 58.7665 436.372C59.0104 436.358 59.2714 436.35 59.5494 436.35C60.0859 436.35 60.4663 436.428 60.6907 436.584C60.9199 436.736 61.0345 436.965 61.0345 437.272C61.0345 437.443 60.9858 437.609 60.8882 437.77C60.7907 437.931 60.637 438.048 60.4273 438.121V438.15C60.6907 438.209 60.8809 438.314 60.998 438.465C61.115 438.611 61.1735 438.801 61.1735 439.035C61.1735 439.401 61.0321 439.674 60.7492 439.855C60.4712 440.035 60.0225 440.125 59.403 440.125C59.1982 440.125 58.9812 440.118 58.7519 440.104C58.5227 440.094 58.3227 440.079 58.152 440.06V436.416ZM59.0811 439.335C59.1494 439.345 59.2128 439.352 59.2714 439.357C59.3299 439.362 59.403 439.365 59.4908 439.365C59.7542 439.365 59.942 439.328 60.0542 439.255C60.1664 439.182 60.2224 439.07 60.2224 438.918C60.2224 438.792 60.1737 438.689 60.0761 438.611C59.9835 438.528 59.8152 438.487 59.5713 438.487H59.0811V439.335ZM59.5859 437.901C59.742 437.901 59.8688 437.865 59.9664 437.792C60.0688 437.714 60.12 437.616 60.12 437.499C60.12 437.372 60.0761 437.277 59.9883 437.214C59.9054 437.145 59.7518 437.111 59.5274 437.111C59.4152 437.111 59.325 437.114 59.2567 437.119C59.1933 437.123 59.1348 437.128 59.0811 437.133V437.901H59.5859ZM61.6702 438.238C61.6702 437.619 61.8214 437.143 62.1238 436.811C62.4262 436.475 62.8505 436.306 63.3968 436.306C63.6894 436.306 63.943 436.353 64.1576 436.445C64.3723 436.538 64.5503 436.67 64.6917 436.841C64.8332 437.006 64.938 437.209 65.0063 437.448C65.0795 437.687 65.1161 437.95 65.1161 438.238C65.1161 438.857 64.9649 439.335 64.6625 439.672C64.3649 440.004 63.943 440.169 63.3968 440.169C63.1041 440.169 62.8505 440.123 62.6359 440.03C62.4213 439.938 62.2408 439.808 62.0945 439.643C61.9531 439.472 61.8458 439.267 61.7726 439.028C61.7043 438.789 61.6702 438.526 61.6702 438.238ZM62.6505 438.238C62.6505 438.399 62.6652 438.548 62.6944 438.684C62.7237 438.821 62.7676 438.94 62.8261 439.043C62.8846 439.145 62.9602 439.226 63.0529 439.284C63.1505 439.338 63.2651 439.365 63.3968 439.365C63.6455 439.365 63.8309 439.274 63.9528 439.094C64.0747 438.913 64.1357 438.628 64.1357 438.238C64.1357 437.901 64.0796 437.631 63.9674 437.426C63.8552 437.216 63.665 437.111 63.3968 437.111C63.1627 437.111 62.9798 437.199 62.8481 437.375C62.7164 437.55 62.6505 437.838 62.6505 438.238Z" fill="white"/>
<path d="M27.8705 440.799H65.3575V441.164H27.8705V440.799Z" fill="white"/>
<rect x="28.0962" y="94.1349" width="177.111" height="28.2351" rx="5.13365" fill="#2B2F3A"/>
<path d="M60.2549 110.788H61.234V107.862H62.5347V110.788H63.526V107.046H60.2549V110.788ZM66.0445 110.861C67.1795 110.861 67.8858 110.084 67.8858 108.932C67.8858 107.772 67.1795 106.998 66.0445 106.998C64.9094 106.998 64.2031 107.772 64.2031 108.932C64.2031 110.084 64.9094 110.861 66.0445 110.861ZM66.0493 110.057C65.5257 110.057 65.2577 109.577 65.2577 108.924C65.2577 108.272 65.5257 107.789 66.0493 107.789C66.5633 107.789 66.8312 108.272 66.8312 108.924C66.8312 109.577 66.5633 110.057 66.0493 110.057ZM68.5605 107.046V110.788H73.6437V107.046H72.6524V109.964H71.5978V107.046H70.6065V109.964H69.5518V107.046H68.5605ZM74.9547 112.191C75.7268 112.191 76.136 111.796 76.3479 111.192L77.802 107.051L76.7035 107.046L75.9217 109.794H75.8827L75.1082 107.046H74.017L75.359 110.895L75.2982 111.053C75.1618 111.404 74.9011 111.421 74.5358 111.309L74.302 112.083C74.4505 112.147 74.6917 112.191 74.9547 112.191ZM78.333 110.788H79.3706V109.46H79.7579L80.681 110.788H81.9134L80.5762 108.902L81.8988 107.046H80.681L79.6629 108.498H79.3706V107.046H78.333V110.788ZM82.9583 110.851C83.2701 110.851 83.5404 110.59 83.5429 110.266C83.5404 109.947 83.2701 109.687 82.9583 109.687C82.6368 109.687 82.3713 109.947 82.3738 110.266C82.3713 110.59 82.6368 110.851 82.9583 110.851ZM85.0012 110.851C85.313 110.851 85.5834 110.59 85.5858 110.266C85.5834 109.947 85.313 109.687 85.0012 109.687C84.6797 109.687 84.4142 109.947 84.4167 110.266C84.4142 110.59 84.6797 110.851 85.0012 110.851ZM87.0442 110.851C87.3559 110.851 87.6263 110.59 87.6287 110.266C87.6263 109.947 87.3559 109.687 87.0442 109.687C86.7226 109.687 86.4572 109.947 86.4596 110.266C86.4572 110.59 86.7226 110.851 87.0442 110.851Z" fill="#5E6271"/>
<path d="M27.7073 35.0979L25.5293 37.276L27.7073 39.454" stroke="white" stroke-width="1.02673" stroke-linecap="round" stroke-linejoin="round"/>
<path d="M30.6629 37.276H25.5293" stroke="white" stroke-width="1.02673" stroke-linecap="round" stroke-linejoin="round"/>
<path d="M41.5671 110.81C43.3365 110.81 44.7708 109.375 44.7708 107.606C44.7708 105.837 43.3365 104.402 41.5671 104.402C39.7977 104.402 38.3634 105.837 38.3634 107.606C38.3634 109.375 39.7977 110.81 41.5671 110.81Z" stroke="white" stroke-width="0.915302" stroke-linecap="round" stroke-linejoin="round"/>
<path d="M43.8324 109.871L45.686 111.725" stroke="white" stroke-width="0.915302" stroke-linecap="round" stroke-linejoin="round"/>
<path d="M46.1291 36.4242H48.9732C50.4683 36.4242 51.2647 35.6441 51.2647 34.5845C51.2647 33.5996 50.5593 33.0048 49.802 32.9691V32.9041C50.4943 32.748 51.0046 32.2572 51.0046 31.4739C51.0046 30.476 50.2636 29.7675 48.7944 29.7675H46.1291V36.4242ZM47.5365 35.2736V33.5054H48.7164C49.3925 33.5054 49.8118 33.8954 49.8118 34.4447C49.8118 34.9453 49.4705 35.2736 48.6839 35.2736H47.5365ZM47.5365 32.553V30.9051H48.6059C49.2299 30.9051 49.5842 31.2269 49.5842 31.7079C49.5842 32.2345 49.1552 32.553 48.5799 32.553H47.5365ZM53.5781 36.5185C54.3159 36.5185 54.7938 36.1967 55.0375 35.7319H55.0765V36.4242H56.3897V33.0568C56.3897 31.8672 55.3821 31.3666 54.2704 31.3666C53.0743 31.3666 52.2877 31.9387 52.096 32.8488L53.3766 32.9528C53.4709 32.6213 53.7666 32.3775 54.2639 32.3775C54.7352 32.3775 55.005 32.6148 55.005 33.0243V33.0438C55.005 33.3656 54.6637 33.4079 53.7959 33.4924C52.8078 33.5834 51.9204 33.9149 51.9204 35.0298C51.9204 36.0179 52.6258 36.5185 53.5781 36.5185ZM53.9747 35.5628C53.5489 35.5628 53.2433 35.3646 53.2433 34.9843C53.2433 34.5942 53.5651 34.4025 54.0527 34.3342C54.355 34.292 54.849 34.2204 55.0148 34.1099V34.6397C55.0148 35.1631 54.5825 35.5628 53.9747 35.5628ZM57.4639 36.4242H58.8486V33.5996C58.8486 32.9853 59.2971 32.5628 59.9082 32.5628C60.1 32.5628 60.3632 32.5953 60.4933 32.6375V31.4089C60.3697 31.3796 60.1975 31.3601 60.0577 31.3601C59.4987 31.3601 59.0404 31.6852 58.8583 32.3027H58.8063V31.4316H57.4639V36.4242ZM61.2352 36.4242H62.6003V35.6246H62.6621C62.8538 36.0407 63.2731 36.5055 64.0792 36.5055C65.2168 36.5055 66.1042 35.6051 66.1042 33.9344C66.1042 32.2182 65.1778 31.3666 64.0825 31.3666C63.2471 31.3666 62.8473 31.8639 62.6621 32.2702H62.6198V29.7675H61.2352V36.4242ZM62.5906 33.9279C62.5906 33.0373 62.9676 32.4685 63.6404 32.4685C64.3263 32.4685 64.6903 33.0633 64.6903 33.9279C64.6903 34.799 64.3198 35.4036 63.6404 35.4036C62.9741 35.4036 62.5906 34.8185 62.5906 33.9279ZM69.3034 36.5217C70.5385 36.5217 71.3706 35.9204 71.5656 34.994L70.285 34.9095C70.1452 35.2898 69.7877 35.4881 69.3261 35.4881C68.6338 35.4881 68.195 35.0298 68.195 34.2855V34.2822H71.5949V33.9019C71.5949 32.2052 70.5678 31.3666 69.2481 31.3666C67.7789 31.3666 66.8266 32.41 66.8266 33.9507C66.8266 35.5336 67.7659 36.5217 69.3034 36.5217ZM68.195 33.4241C68.2242 32.8553 68.6565 32.4002 69.2709 32.4002C69.8722 32.4002 70.2882 32.8293 70.2915 33.4241H68.195ZM72.4985 36.4242H73.8831V33.5996C73.8831 32.9853 74.3317 32.5628 74.9427 32.5628C75.1345 32.5628 75.3978 32.5953 75.5278 32.6375V31.4089C75.4043 31.3796 75.232 31.3601 75.0923 31.3601C74.5332 31.3601 74.0749 31.6852 73.8929 32.3027H73.8409V31.4316H72.4985V36.4242ZM80.3977 32.8553C80.2741 31.9354 79.5331 31.3666 78.2719 31.3666C76.9945 31.3666 76.1527 31.9582 76.1559 32.9203C76.1527 33.6679 76.624 34.1522 77.5991 34.3472L78.4637 34.5195C78.8992 34.6072 79.0975 34.7665 79.104 35.0168C79.0975 35.3126 78.7757 35.5238 78.2914 35.5238C77.7974 35.5238 77.4691 35.3126 77.3846 34.9063L76.0227 34.9778C76.1527 35.9334 76.9653 36.5217 78.2882 36.5217C79.5818 36.5217 80.5082 35.8619 80.5114 34.877C80.5082 34.1554 80.0369 33.7231 79.0683 33.5249L78.1647 33.3429C77.6999 33.2421 77.5276 33.0828 77.5308 32.8423C77.5276 32.5433 77.8656 32.3482 78.2947 32.3482C78.7757 32.3482 79.0618 32.6115 79.13 32.9333L80.3977 32.8553ZM82.768 33.5379C82.7712 32.8943 83.1645 32.5173 83.7301 32.5173C84.2924 32.5173 84.6239 32.878 84.6207 33.4924V36.4242H86.0053V33.2453C86.0086 32.0752 85.3195 31.3666 84.2794 31.3666C83.5221 31.3666 83.015 31.7242 82.7875 32.3125H82.729V29.7675H81.3833V36.4242H82.768V33.5379ZM89.3508 36.5217C90.8655 36.5217 91.8081 35.4848 91.8081 33.9474C91.8081 32.4002 90.8655 31.3666 89.3508 31.3666C87.8361 31.3666 86.8935 32.4002 86.8935 33.9474C86.8935 35.4848 87.8361 36.5217 89.3508 36.5217ZM89.3573 35.4491C88.6585 35.4491 88.3009 34.8088 88.3009 33.9377C88.3009 33.0666 88.6585 32.423 89.3573 32.423C90.0431 32.423 90.4007 33.0666 90.4007 33.9377C90.4007 34.8088 90.0431 35.4491 89.3573 35.4491ZM92.7084 38.2964H94.0931V35.6246H94.1353C94.3271 36.0407 94.7464 36.5055 95.5525 36.5055C96.6901 36.5055 97.5774 35.6051 97.5774 33.9344C97.5774 32.2182 96.6511 31.3666 95.5557 31.3666C94.7204 31.3666 94.3206 31.8639 94.1353 32.2702H94.0736V31.4316H92.7084V38.2964ZM94.0638 33.9279C94.0638 33.0373 94.4408 32.4685 95.1137 32.4685C95.7995 32.4685 96.1635 33.0633 96.1635 33.9279C96.1635 34.799 95.793 35.4036 95.1137 35.4036C94.4474 35.4036 94.0638 34.8185 94.0638 33.9279Z" fill="white"/>
<path d="M45.9422 44.7182H46.5092V42.228H47.8128V44.7182H48.3837V41.7253H45.9422V44.7182ZM50.4526 44.7786C51.1053 44.7786 51.5671 44.4571 51.6996 43.97L51.1482 43.8706C51.043 44.1531 50.7897 44.2973 50.4584 44.2973C49.9596 44.2973 49.6244 43.9739 49.6088 43.3971H51.7366V43.1906C51.7366 42.1091 51.0897 41.6863 50.4116 41.6863C49.5777 41.6863 49.0282 42.3215 49.0282 43.2412C49.0282 44.1707 49.5699 44.7786 50.4526 44.7786ZM49.6108 42.9606C49.6342 42.5359 49.942 42.1676 50.4155 42.1676C50.8676 42.1676 51.1638 42.5027 51.1657 42.9606H49.6108ZM52.3831 45.8406H52.9657V44.2525H53.0008C53.106 44.4435 53.3203 44.7767 53.8659 44.7767C54.5908 44.7767 55.1169 44.196 55.1169 43.2276C55.1169 42.2572 54.583 41.6863 53.8601 41.6863C53.3047 41.6863 53.104 42.0254 53.0008 42.2105H52.952V41.7253H52.3831V45.8406ZM52.954 43.2217C52.954 42.5963 53.2268 42.1812 53.7354 42.1812C54.2634 42.1812 54.5284 42.6274 54.5284 43.2217C54.5284 43.8219 54.2556 44.2798 53.7354 44.2798C53.2346 44.2798 52.954 43.8511 52.954 43.2217ZM57.0595 44.7786C57.7123 44.7786 58.1741 44.4571 58.3066 43.97L57.7552 43.8706C57.65 44.1531 57.3966 44.2973 57.0654 44.2973C56.5666 44.2973 56.2314 43.9739 56.2158 43.3971H58.3436V43.1906C58.3436 42.1091 57.6967 41.6863 57.0186 41.6863C56.1847 41.6863 55.6352 42.3215 55.6352 43.2412C55.6352 44.1707 56.1769 44.7786 57.0595 44.7786ZM56.2178 42.9606C56.2412 42.5359 56.549 42.1676 57.0225 42.1676C57.4746 42.1676 57.7708 42.5027 57.7727 42.9606H56.2178ZM59.561 43.9018V41.7253H58.9901V44.7182H59.6233L60.9366 42.5398V44.7182H61.5076V41.7253H60.8801L59.561 43.9018ZM60.6307 40.712C60.6307 40.9088 60.5216 41.0823 60.2488 41.0823C59.9721 41.0823 59.8688 40.9069 59.8688 40.712H59.3915C59.3915 41.1505 59.7247 41.4525 60.2488 41.4525C60.7769 41.4525 61.1101 41.1505 61.1101 40.712H60.6307ZM61.9197 42.228H62.8998V44.7182H63.4688V42.228H64.445V41.7253H61.9197V42.228ZM65.6321 43.9018V41.7253H65.0612V44.7182H65.6945L67.0078 42.5398V44.7182H67.5787V41.7253H66.9513L65.6321 43.9018ZM69.8142 44.7182H71.2444C71.8991 44.7182 72.283 44.387 72.283 43.9115C72.283 43.4673 71.942 43.1945 71.5425 43.1477C71.9108 43.0776 72.1544 42.8749 72.1544 42.5242C72.1544 42.0331 71.7296 41.7253 71.0554 41.7253H69.8142V44.7182ZM70.3617 44.2311V43.3991H71.2444C71.5328 43.3991 71.7062 43.5686 71.7062 43.8472C71.7062 44.085 71.5328 44.2311 71.2444 44.2311H70.3617ZM70.3617 42.9723V42.2183H71.0554C71.3866 42.2183 71.5873 42.3566 71.5873 42.5865C71.5873 42.8262 71.3886 42.9723 71.0612 42.9723H70.3617ZM74.3742 44.7182H74.9412V42.228H76.2448V44.7182H76.8157V41.7253H74.3742V44.7182ZM77.5947 45.8406H78.1773V44.2525H78.2123C78.3176 44.4435 78.5319 44.7767 79.0775 44.7767C79.8023 44.7767 80.3284 44.196 80.3284 43.2276C80.3284 42.2572 79.7946 41.6863 79.0716 41.6863C78.5163 41.6863 78.3156 42.0254 78.2123 42.2105H78.1636V41.7253H77.5947V45.8406ZM78.1656 43.2217C78.1656 42.5963 78.4384 42.1812 78.9469 42.1812C79.475 42.1812 79.74 42.6274 79.74 43.2217C79.74 43.8219 79.4672 44.2798 78.9469 44.2798C78.4462 44.2798 78.1656 43.8511 78.1656 43.2217ZM82.2419 44.7786C83.0856 44.7786 83.6371 44.1609 83.6371 43.2354C83.6371 42.304 83.0856 41.6863 82.2419 41.6863C81.3982 41.6863 80.8468 42.304 80.8468 43.2354C80.8468 44.1609 81.3982 44.7786 82.2419 44.7786ZM82.2439 44.2895C81.6924 44.2895 81.4352 43.8083 81.4352 43.2334C81.4352 42.6606 81.6924 42.1734 82.2439 42.1734C82.7914 42.1734 83.0486 42.6606 83.0486 43.2334C83.0486 43.8083 82.7914 44.2895 82.2439 44.2895ZM85.5754 45.7373H86.158V44.7786C87.0036 44.7786 87.5785 44.159 87.5785 43.2354C87.5785 42.3059 87.0036 41.6863 86.158 41.6863V40.7276H85.5754V41.6863C84.7297 41.6863 84.1529 42.3059 84.1529 43.2354C84.1529 44.159 84.7297 44.7786 85.5754 44.7786V45.7373ZM85.5754 44.2876C85.0161 44.2876 84.7433 43.8024 84.7433 43.2354C84.7433 42.6684 85.0161 42.1773 85.5754 42.1773V44.2876ZM86.158 44.2876V42.1773C86.7172 42.1773 86.988 42.6684 86.988 43.2354C86.988 43.8024 86.7172 44.2876 86.158 44.2876ZM88.2259 44.7182H88.8085V41.7253H88.2259V44.7182ZM88.5201 41.2635C88.7208 41.2635 88.8884 41.1076 88.8884 40.9166C88.8884 40.7257 88.7208 40.5678 88.5201 40.5678C88.3174 40.5678 88.1518 40.7257 88.1518 40.9166C88.1518 41.1076 88.3174 41.2635 88.5201 41.2635ZM89.3565 44.7182H89.5435C90.1963 44.7182 90.436 44.235 90.4827 43.2451L90.5295 42.228H91.5077V44.7182H92.0786V41.7253H89.9898L89.9372 43.0503C89.9001 43.9739 89.7949 44.2136 89.4617 44.2136H89.3545L89.3565 44.7182ZM93.4265 42.7541V41.7253H92.8556V44.7182H94.163C94.8957 44.7182 95.3049 44.2934 95.3049 43.7303C95.3049 43.1555 94.8957 42.7541 94.163 42.7541H93.4265ZM93.4265 43.2568H94.163C94.4982 43.2568 94.7379 43.4595 94.7379 43.7479C94.7379 44.0206 94.4982 44.2155 94.163 44.2155H93.4265V43.2568Z" fill="#4E5256"/>
<path d="M197.273 41.1353V39.0352C197.273 38.9423 197.236 38.8533 197.171 38.7877C197.105 38.722 197.016 38.6851 196.923 38.6851H195.523C195.43 38.6851 195.341 38.722 195.275 38.7877C195.21 38.8533 195.173 38.9423 195.173 39.0352V41.1353C195.173 41.2282 195.136 41.3172 195.07 41.3828C195.005 41.4485 194.916 41.4853 194.823 41.4853L192.723 41.4856C192.677 41.4856 192.632 41.4766 192.589 41.459C192.547 41.4414 192.508 41.4156 192.476 41.3831C192.443 41.3506 192.417 41.312 192.4 41.2696C192.382 41.2271 192.373 41.1816 192.373 41.1356V37.0902C192.373 37.0414 192.383 36.9932 192.403 36.9486C192.423 36.904 192.452 36.864 192.488 36.8312L195.988 33.6489C196.052 33.5903 196.136 33.5578 196.223 33.5578C196.31 33.5578 196.394 33.5903 196.458 33.6489L199.959 36.8312C199.995 36.864 200.024 36.904 200.044 36.9486C200.063 36.9932 200.074 37.0415 200.074 37.0902V41.1356C200.074 41.1816 200.064 41.2271 200.047 41.2696C200.029 41.312 200.003 41.3506 199.971 41.3831C199.938 41.4156 199.9 41.4414 199.857 41.459C199.815 41.4766 199.769 41.4856 199.723 41.4856L197.623 41.4853C197.53 41.4853 197.441 41.4485 197.376 41.3828C197.31 41.3172 197.273 41.2282 197.273 41.1353V41.1353Z" stroke="white" stroke-width="1.02673" stroke-linecap="round" stroke-linejoin="round"/>
<path d="M53.1058 72.9448C54.6284 72.9448 55.7408 71.9079 55.9935 70.3656C56.2494 68.7971 55.4684 67.7404 53.9327 67.7404C52.4068 67.7404 51.2944 68.7741 51.045 70.3229C50.7858 71.8882 51.5668 72.9448 53.1058 72.9448ZM53.2469 71.8619C52.5578 71.8619 52.3117 71.2253 52.4528 70.359C52.5972 69.4698 53.0828 68.8069 53.7916 68.8069C54.4807 68.8069 54.7236 69.4468 54.5857 70.3164C54.4381 71.2056 53.9524 71.8619 53.2469 71.8619ZM61.8509 65.9553C61.5818 66.1292 61.1847 66.126 60.6466 66.126C60.5186 66.126 60.3841 66.1227 60.2397 66.126C58.3988 66.1424 57.2535 67.2876 56.8434 69.7192L56.7777 70.1326C56.4758 71.9637 57.2601 72.9448 58.786 72.9448C60.3086 72.9448 61.4112 71.9604 61.6737 70.4247C61.9099 68.9447 61.1946 68.0653 59.9148 68.0653C59.0977 68.0653 58.4972 68.4164 58.0903 69.0333H58.0411C58.366 67.7962 58.9205 67.2876 60.0953 67.2745C61.1289 67.2581 61.6409 67.222 62.1265 66.8676L61.8509 65.9553ZM58.9697 71.8619C58.3135 71.8619 58.005 71.3303 58.1494 70.4706C58.2905 69.6109 58.7663 69.1252 59.4193 69.1252C60.0625 69.1252 60.3808 69.6109 60.243 70.4706C60.0986 71.3336 59.6129 71.8619 58.9697 71.8619ZM64.5302 72.9448C65.7837 72.9448 66.7123 72.3377 67.07 71.4025L65.7935 71.3172C65.5868 71.7011 65.193 71.9013 64.7271 71.9013C64.0117 71.9013 63.654 71.5141 63.782 70.72L63.7886 70.6839H67.221L67.2833 70.3C67.5688 68.587 66.6762 67.7404 65.3407 67.7404C63.8575 67.7404 62.7221 68.7938 62.4629 70.3492C62.1938 71.9473 62.978 72.9448 64.5302 72.9448ZM63.9461 69.8176C64.0642 69.263 64.5991 68.7839 65.1996 68.7839C65.8034 68.7839 66.1414 69.2171 66.0429 69.8176H63.9461ZM67.463 74.7365H68.8609L69.3071 72.0391H69.3564C69.4811 72.4592 69.8223 72.9284 70.6361 72.9284C71.7846 72.9284 72.8347 72.0194 73.1136 70.3328C73.3991 68.6002 72.6116 67.7404 71.5057 67.7404C70.6624 67.7404 70.1669 68.2425 69.9175 68.6527H69.8584L69.9963 67.8061H68.618L67.463 74.7365ZM69.5664 70.3262C69.7108 69.4271 70.1931 68.8528 70.8691 68.8528C71.5615 68.8528 71.824 69.4534 71.6862 70.3262C71.532 71.2056 71.0693 71.816 70.3802 71.816C69.7075 71.816 69.422 71.2253 69.5664 70.3262ZM75.2761 71.0022L75.8077 67.8061H74.4754L73.6354 72.8464H75.0202L77.3631 69.6404L76.8282 72.8464H78.1638L79.0038 67.8061H77.6223L75.2761 71.0022ZM84.6643 71.3008L83.926 67.8061H82.2722L81.4321 72.8464H82.7644L83.2796 69.7487L83.9424 72.8464H84.8744L86.6529 69.6502L86.1213 72.8464H87.4405L88.2805 67.8061H86.6135L84.6643 71.3008ZM89.9483 72.9415C90.6932 72.9415 91.2313 72.6167 91.5529 72.1474H91.5923L91.4742 72.8464H92.7999L93.3676 69.4468C93.5645 68.2458 92.6292 67.7404 91.5136 67.7404C90.3027 67.7404 89.4069 68.318 89.0656 69.2368L90.3388 69.3418C90.4897 69.0071 90.8474 68.761 91.3462 68.761C91.8187 68.761 92.0419 69.0005 91.9762 69.414V69.4337C91.9172 69.7552 91.5595 69.7979 90.6768 69.8865C89.6628 69.9784 88.7145 70.3164 88.5242 71.4386C88.3601 72.4329 88.9901 72.9415 89.9483 72.9415ZM90.5094 71.9768C90.073 71.9768 89.8072 71.7733 89.8663 71.3927C89.9286 70.9989 90.2929 70.8053 90.7982 70.7364C91.1034 70.6872 91.6186 70.6215 91.799 70.51L91.7137 71.0449C91.6218 71.5732 91.1231 71.9768 90.5094 71.9768ZM95.535 71.0022L96.0666 67.8061H94.7343L93.8942 72.8464H95.279L97.622 69.6404L97.0871 72.8464H98.4227L99.2627 67.8061H97.8812L95.535 71.0022ZM97.9272 66.0472C97.8714 66.3557 97.6449 66.6346 97.179 66.6346C96.7032 66.6346 96.5719 66.3491 96.6211 66.0472H95.6564C95.5218 66.8413 96.06 67.3729 97.0576 67.3729C98.0486 67.3729 98.7672 66.8413 98.9017 66.0472H97.9272ZM101.807 72.9448C103.149 72.9448 104.117 72.1573 104.383 70.9989H103.063C102.89 71.5338 102.489 71.839 102.004 71.839C101.351 71.839 101.019 71.291 101.18 70.3262C101.331 69.3746 101.853 68.8299 102.509 68.8299C103.014 68.8299 103.287 69.1711 103.28 69.6699H104.596C104.734 68.505 103.982 67.7404 102.666 67.7404C101.137 67.7404 100.008 68.8003 99.759 70.3459C99.4998 71.8783 100.255 72.9448 101.807 72.9448ZM105.287 68.9053H106.902L106.246 72.8464H107.581L108.234 68.9053H109.855L110.039 67.8061H105.471L105.287 68.9053ZM109.731 74.7365H111.129L111.576 72.0391H111.625C111.749 72.4592 112.091 72.9284 112.905 72.9284C114.053 72.9284 115.103 72.0194 115.382 70.3328C115.668 68.6002 114.88 67.7404 113.774 67.7404C112.931 67.7404 112.435 68.2425 112.186 68.6527H112.127L112.265 67.8061H110.886L109.731 74.7365ZM111.835 70.3262C111.979 69.4271 112.462 68.8528 113.138 68.8528C113.83 68.8528 114.092 69.4534 113.955 70.3262C113.8 71.2056 113.338 71.816 112.649 71.816C111.976 71.816 111.69 71.2253 111.835 70.3262ZM117.318 72.9415C118.063 72.9415 118.601 72.6167 118.923 72.1474H118.962L118.844 72.8464H120.17L120.737 69.4468C120.934 68.2458 119.999 67.7404 118.883 67.7404C117.672 67.7404 116.777 68.318 116.435 69.2368L117.709 69.3418C117.86 69.0071 118.217 68.761 118.716 68.761C119.189 68.761 119.412 69.0005 119.346 69.414V69.4337C119.287 69.7552 118.929 69.7979 118.047 69.8865C117.033 69.9784 116.084 70.3164 115.894 71.4386C115.73 72.4329 116.36 72.9415 117.318 72.9415ZM117.879 71.9768C117.443 71.9768 117.177 71.7733 117.236 71.3927C117.298 70.9989 117.663 70.8053 118.168 70.7364C118.473 70.6872 118.988 70.6215 119.169 70.51L119.083 71.0449C118.992 71.5732 118.493 71.9768 117.879 71.9768Z" fill="white"/>
<path d="M26.3859 74.0925H37.0324L37.4626 71.511H31.1841L31.206 71.409L33.7363 69.2724C37.2803 66.4722 38.3304 65.0721 38.6221 63.373C39.0523 60.7843 37.2511 58.954 34.0499 58.954C30.9216 58.954 28.435 60.8208 27.9464 63.7595H30.9435C31.1841 62.3303 32.256 61.4552 33.6197 61.4552C34.9322 61.4552 35.7562 62.2646 35.5375 63.5845C35.3406 64.7658 34.4728 65.5898 32.8977 66.8951L26.7724 71.8173L26.3859 74.0925ZM41.3037 74.282C42.2152 74.282 43.0976 73.5018 43.1705 72.5319C43.2507 71.584 42.4996 70.811 41.5662 70.811C40.5964 70.811 39.7359 71.5694 39.6703 72.5319C39.612 73.5018 40.3193 74.282 41.3037 74.282Z" fill="white"/>
<rect x="28.0962" y="137.771" width="177.111" height="33.8821" rx="5.13365" fill="#2B2F3A"/>
<path d="M68.564 152.985L68.9796 151.708H71.0005L71.4161 152.985H72.6849L70.7544 147.384H69.2285L67.2952 152.985H68.564ZM69.2804 150.783L69.9695 148.664H70.0133L70.7024 150.783H69.2804ZM74.4501 148.785H73.3371V152.985H74.4501V151.336H75.8857V152.985H76.9905V148.785H75.8857V150.42H74.4501V148.785ZM77.5661 154.215H78.7037V152.985H81.2714V154.215H82.3816V152.06H81.7308V148.785H78.5095L78.4001 150.157C78.3345 150.983 78.2552 151.828 77.8888 152.06H77.5661V154.215ZM79.0482 152.06C79.2971 151.669 79.3928 151.054 79.4557 150.157L79.4994 149.681H80.6315V152.06H79.0482ZM83.0605 154.56H84.2254V152.312H84.2609C84.4223 152.662 84.775 153.053 85.4532 153.053C86.4103 153.053 87.1568 152.296 87.1568 150.89C87.1568 149.446 86.3775 148.73 85.4559 148.73C84.7532 148.73 84.4168 149.148 84.2609 149.49H84.209V148.785H83.0605V154.56ZM84.2008 150.885C84.2008 150.135 84.518 149.657 85.084 149.657C85.661 149.657 85.9673 150.157 85.9673 150.885C85.9673 151.617 85.6556 152.126 85.084 152.126C84.5235 152.126 84.2008 151.634 84.2008 150.885ZM87.9334 152.985H89.0984V148.785H87.9334V152.985ZM88.5186 148.243C88.8659 148.243 89.1503 147.978 89.1503 147.652C89.1503 147.33 88.8659 147.064 88.5186 147.064C88.1741 147.064 87.8897 147.33 87.8897 147.652C87.8897 147.978 88.1741 148.243 88.5186 148.243ZM91.1445 151.448V148.785H90.0315V152.985H91.1882L92.695 150.313V152.985H93.8052V148.785H92.6567L91.1445 151.448ZM92.4571 147.319C92.4571 147.576 92.3039 147.808 91.9156 147.808C91.5164 147.808 91.3687 147.57 91.3714 147.319H90.5648C90.5648 147.981 91.087 148.424 91.9156 148.424C92.7442 148.424 93.2665 147.981 93.2692 147.319H92.4571Z" fill="white"/>
<path d="M67.3216 159.949H68.2386V162.279H68.7709V159.949H69.6842V159.479H67.3216V159.949ZM71.3099 162.335C72.0993 162.335 72.6152 161.757 72.6152 160.891C72.6152 160.02 72.0993 159.442 71.3099 159.442C70.5205 159.442 70.0046 160.02 70.0046 160.891C70.0046 161.757 70.5205 162.335 71.3099 162.335ZM71.3117 161.878C70.7958 161.878 70.5552 161.427 70.5552 160.89C70.5552 160.354 70.7958 159.898 71.3117 159.898C71.824 159.898 72.0647 160.354 72.0647 160.89C72.0647 161.427 71.824 161.878 71.3117 161.878ZM73.2236 162.279H73.7541V159.949H74.9738V162.279H75.5079V159.479H73.2236V162.279ZM77.8865 160.465H76.2312V160.937H77.8865V160.465ZM80.1844 161.604L79.2984 159.479H78.613V162.279H79.1471V160.242L79.9821 162.279H80.3868L81.2363 160.25V162.279H81.7668V159.479H81.0886L80.1844 161.604ZM83.3082 162.341C83.7712 162.341 84.0319 162.106 84.1358 161.896H84.1577V162.279H84.69V160.419C84.69 159.604 84.0483 159.442 83.6035 159.442C83.0967 159.442 82.63 159.646 82.4477 160.157L82.96 160.273C83.0402 160.075 83.2444 159.883 83.6108 159.883C83.9627 159.883 84.1431 160.067 84.1431 160.385V160.397C84.1431 160.596 83.939 160.593 83.4358 160.651C82.9053 160.713 82.362 160.851 82.362 161.488C82.362 162.038 82.7759 162.341 83.3082 162.341ZM83.4267 161.903C83.1186 161.903 82.8962 161.765 82.8962 161.495C82.8962 161.203 83.155 161.099 83.4704 161.057C83.6473 161.034 84.0666 160.986 84.145 160.908V161.269C84.145 161.601 83.8806 161.903 83.4267 161.903ZM85.9502 161.515V159.479H85.4161V162.279H86.0085L87.2373 160.241V162.279H87.7714V159.479H87.1844L85.9502 161.515ZM86.9511 158.531C86.9511 158.715 86.849 158.877 86.5937 158.877C86.3349 158.877 86.2382 158.713 86.2382 158.531H85.7916C85.7916 158.941 86.1033 159.223 86.5937 159.223C87.0878 159.223 87.3995 158.941 87.3995 158.531H86.9511ZM89.6838 162.335C90.3455 162.335 90.7739 161.938 90.8341 161.393H90.3036C90.2343 161.695 89.9992 161.874 89.6874 161.874C89.2262 161.874 88.929 161.489 88.929 160.879C88.929 160.279 89.2317 159.902 89.6874 159.902C90.0338 159.902 90.2453 160.12 90.3036 160.383H90.8341C90.7758 159.818 90.3145 159.442 89.6783 159.442C88.8889 159.442 88.3785 160.036 88.3785 160.891C88.3785 161.736 88.8707 162.335 89.6838 162.335ZM91.2051 159.949H92.1221V162.279H92.6544V159.949H93.5677V159.479H91.2051V159.949ZM95.2208 162.335C95.8315 162.335 96.2635 162.035 96.3875 161.579L95.8716 161.486C95.7731 161.75 95.5362 161.885 95.2262 161.885C94.7595 161.885 94.446 161.582 94.4314 161.043H96.4221V160.85C96.4221 159.838 95.8169 159.442 95.1825 159.442C94.4022 159.442 93.8881 160.036 93.8881 160.897C93.8881 161.767 94.3949 162.335 95.2208 162.335ZM94.4332 160.634C94.4551 160.237 94.7431 159.892 95.1861 159.892C95.6091 159.892 95.8862 160.206 95.888 160.634H94.4332ZM97.0269 163.329H97.572V161.843H97.6048C97.7033 162.022 97.9038 162.333 98.4143 162.333C99.0924 162.333 99.5846 161.79 99.5846 160.884C99.5846 159.976 99.0851 159.442 98.4088 159.442C97.8892 159.442 97.7015 159.759 97.6048 159.933H97.5593V159.479H97.0269V163.329ZM97.5611 160.879C97.5611 160.294 97.8163 159.905 98.2921 159.905C98.7862 159.905 99.0341 160.323 99.0341 160.879C99.0341 161.44 98.7789 161.869 98.2921 161.869C97.8236 161.869 97.5611 161.468 97.5611 160.879Z" fill="#4E5256"/>
<rect x="36.3101" y="144.445" width="20.5346" height="20.5346" rx="7.18711" fill="#A06AF9"/>
<path d="M45.4584 157.578L45.9063 156.202H48.0837L48.5316 157.578H49.8988L47.8185 151.544H46.1744L44.0912 157.578H45.4584ZM46.2304 155.206L46.9729 152.923H47.02L47.7625 155.206H46.2304Z" fill="white"/>
<rect x="28.0962" y="181.92" width="177.111" height="33.8821" rx="5.13365" fill="#2B2F3A"/>
<path d="M67.5987 191.534V197.134H68.7472V193.475H68.7937L70.243 197.107H71.0251L72.4744 193.489H72.5209V197.134H73.6694V191.534H72.2091L70.6668 195.297H70.6012L69.0589 191.534H67.5987ZM75.8208 197.213C76.4415 197.213 76.8435 196.943 77.0486 196.552H77.0814V197.134H78.1862V194.301C78.1862 193.3 77.3384 192.879 76.4032 192.879C75.3969 192.879 74.7352 193.361 74.5738 194.126L75.6512 194.214C75.7305 193.935 75.9794 193.73 76.3978 193.73C76.7943 193.73 77.0212 193.929 77.0212 194.274V194.29C77.0212 194.561 76.7341 194.597 76.004 194.668C75.1727 194.744 74.4262 195.023 74.4262 195.961C74.4262 196.792 75.0196 197.213 75.8208 197.213ZM76.1544 196.41C75.7962 196.41 75.5391 196.243 75.5391 195.923C75.5391 195.595 75.8098 195.433 76.22 195.376C76.4743 195.34 76.89 195.28 77.0294 195.187V195.633C77.0294 196.073 76.6658 196.41 76.1544 196.41ZM79.0899 197.134H80.2548V195.644H80.6896L81.726 197.134H83.1097L81.6084 195.018L83.0933 192.934H81.726L80.583 194.564H80.2548V192.934H79.0899V197.134ZM85.3267 197.216C86.4452 197.216 87.1479 196.56 87.2026 195.595H86.1033C86.035 196.043 85.7396 196.295 85.3404 196.295C84.7962 196.295 84.4435 195.838 84.4435 195.034C84.4435 194.241 84.799 193.787 85.3404 193.787C85.767 193.787 86.0404 194.069 86.1033 194.487H87.2026C87.1534 193.516 86.4178 192.879 85.3213 192.879C84.047 192.879 83.2594 193.762 83.2594 195.05C83.2594 196.327 84.0333 197.216 85.3267 197.216ZM89.0614 195.597V192.934H87.9485V197.134H89.1052L90.6119 194.463V197.134H91.7221V192.934H90.5736L89.0614 195.597ZM95.139 195.846L94.0342 192.934H92.656V197.134H93.769V194.555L94.7507 197.134H95.5245L96.5664 194.463V197.134H97.6657V192.934H96.2765L95.139 195.846Z" fill="white"/>
<path d="M69.0498 205.754L68.1638 203.628H67.4784V206.428H68.0125V204.392L68.8475 206.428H69.2522L70.1017 204.399V206.428H70.6322V203.628H69.954L69.0498 205.754ZM72.1736 206.49C72.6366 206.49 72.8973 206.255 73.0012 206.045H73.0231V206.428H73.5554V204.569C73.5554 203.754 72.9137 203.592 72.4689 203.592C71.9621 203.592 71.4954 203.796 71.3131 204.306L71.8254 204.423C71.9056 204.224 72.1098 204.033 72.4762 204.033C72.828 204.033 73.0085 204.217 73.0085 204.534V204.547C73.0085 204.746 72.8043 204.742 72.3012 204.8C71.7707 204.862 71.2274 205.001 71.2274 205.637C71.2274 206.188 71.6413 206.49 72.1736 206.49ZM72.2921 206.053C71.984 206.053 71.7616 205.914 71.7616 205.644C71.7616 205.353 72.0204 205.249 72.3358 205.207C72.5127 205.183 72.932 205.136 73.0103 205.057V205.418C73.0103 205.75 72.746 206.053 72.2921 206.053ZM74.8156 205.664V203.628H74.2815V206.428H74.8739L76.1027 204.39V206.428H76.6368V203.628H76.0498L74.8156 205.664ZM75.8164 202.68C75.8164 202.864 75.7144 203.026 75.4591 203.026C75.2003 203.026 75.1036 202.862 75.1036 202.68H74.657C74.657 203.09 74.9687 203.373 75.4591 203.373C75.9532 203.373 76.2649 203.09 76.2649 202.68H75.8164ZM78.5492 206.485C79.2109 206.485 79.6393 206.087 79.6995 205.542H79.169C79.0997 205.845 78.8646 206.023 78.5528 206.023C78.0916 206.023 77.7944 205.639 77.7944 205.028C77.7944 204.428 78.0971 204.051 78.5528 204.051C78.8992 204.051 79.1107 204.27 79.169 204.532H79.6995C79.6412 203.967 79.1799 203.592 78.5437 203.592C77.7543 203.592 77.2439 204.186 77.2439 205.041C77.2439 205.885 77.7361 206.485 78.5492 206.485ZM80.0705 204.098H80.9875V206.428H81.5198V204.098H82.4331V203.628H80.0705V204.098ZM84.0862 206.485C84.6969 206.485 85.1289 206.184 85.2529 205.728L84.737 205.635C84.6385 205.9 84.4015 206.034 84.0916 206.034C83.6249 206.034 83.3114 205.732 83.2968 205.192H85.2875V204.999C85.2875 203.987 84.6823 203.592 84.0479 203.592C83.2676 203.592 82.7535 204.186 82.7535 205.046C82.7535 205.916 83.2603 206.485 84.0862 206.485ZM83.2986 204.784C83.3205 204.386 83.6085 204.042 84.0515 204.042C84.4745 204.042 84.7516 204.355 84.7534 204.784H83.2986ZM85.8923 207.478H86.4374V205.993H86.4702C86.5687 206.171 86.7692 206.483 87.2797 206.483C87.9578 206.483 88.45 205.94 88.45 205.034C88.45 204.126 87.9505 203.592 87.2742 203.592C86.7546 203.592 86.5668 203.909 86.4702 204.082H86.4247V203.628H85.8923V207.478ZM86.4265 205.028C86.4265 204.443 86.6817 204.055 87.1575 204.055C87.6516 204.055 87.8995 204.472 87.8995 205.028C87.8995 205.59 87.6443 206.018 87.1575 206.018C86.689 206.018 86.4265 205.617 86.4265 205.028Z" fill="#4E5256"/>
<rect x="36.3101" y="188.594" width="20.5346" height="20.5346" rx="7.18711" fill="#A06AF9"/>
<path d="M43.2255 195.693V201.728H44.463V197.785H44.5131L46.0747 201.698H46.9174L48.4791 197.8H48.5292V201.728H49.7667V195.693H48.1933L46.5314 199.748H46.4607L44.7989 195.693H43.2255Z" fill="white"/>
<rect x="28.0962" y="226.07" width="177.111" height="33.8821" rx="5.13365" fill="#2B2F3A"/>
<path d="M72.7451 238.483C72.7451 236.651 71.6075 235.607 70.1227 235.607C68.6296 235.607 67.5002 236.651 67.5002 238.483C67.5002 240.307 68.6296 241.36 70.1227 241.36C71.6075 241.36 72.7451 240.316 72.7451 238.483ZM71.5446 238.483C71.5446 239.67 70.9813 240.313 70.1227 240.313C69.2613 240.313 68.7007 239.67 68.7007 238.483C68.7007 237.297 69.2613 236.654 70.1227 236.654C70.9813 236.654 71.5446 237.297 71.5446 238.483ZM73.3542 241.284H73.7042C74.5957 241.284 75.0688 240.693 75.1399 239.282L75.2055 237.999H76.2419V241.284H77.3521V237.083H74.1582L74.0898 238.943C74.0488 240.007 73.8847 240.359 73.4882 240.359H73.3487L73.3542 241.284ZM80.1694 241.366C81.2085 241.366 81.9086 240.86 82.0726 240.08L80.9952 240.009C80.8776 240.329 80.5768 240.496 80.1885 240.496C79.6061 240.496 79.2369 240.11 79.2369 239.484V239.482H82.0972V239.162C82.0972 237.734 81.2331 237.029 80.1229 237.029C78.8869 237.029 78.0857 237.906 78.0857 239.203C78.0857 240.534 78.8759 241.366 80.1694 241.366ZM79.2369 238.76C79.2615 238.281 79.6252 237.898 80.142 237.898C80.6479 237.898 80.998 238.259 81.0007 238.76H79.2369ZM85.7342 237.083H82.8574V241.284H83.9895V237.999H85.7342V237.083Z" fill="white"/>
<path d="M67.3216 248.248H68.2386V250.578H68.7709V248.248H69.6842V247.777H67.3216V248.248ZM71.3099 250.634C72.0993 250.634 72.6152 250.056 72.6152 249.19C72.6152 248.319 72.0993 247.741 71.3099 247.741C70.5205 247.741 70.0046 248.319 70.0046 249.19C70.0046 250.056 70.5205 250.634 71.3099 250.634ZM71.3117 250.177C70.7958 250.177 70.5552 249.726 70.5552 249.188C70.5552 248.652 70.7958 248.197 71.3117 248.197C71.824 248.197 72.0647 248.652 72.0647 249.188C72.0647 249.726 71.824 250.177 71.3117 250.177ZM73.2236 250.578H73.7541V248.248H74.9738V250.578H75.5079V247.777H73.2236V250.578ZM77.8865 248.764H76.2312V249.236H77.8865V248.764ZM80.1844 249.903L79.2984 247.777H78.613V250.578H79.1471V248.541L79.9821 250.578H80.3868L81.2363 248.549V250.578H81.7668V247.777H81.0886L80.1844 249.903ZM83.3082 250.64C83.7712 250.64 84.0319 250.404 84.1358 250.195H84.1577V250.578H84.69V248.718C84.69 247.903 84.0483 247.741 83.6035 247.741C83.0967 247.741 82.63 247.945 82.4477 248.456L82.96 248.572C83.0402 248.374 83.2444 248.182 83.6108 248.182C83.9627 248.182 84.1431 248.366 84.1431 248.683V248.696C84.1431 248.895 83.939 248.891 83.4358 248.95C82.9053 249.012 82.362 249.15 82.362 249.786C82.362 250.337 82.7759 250.64 83.3082 250.64ZM83.4267 250.202C83.1186 250.202 82.8962 250.064 82.8962 249.794C82.8962 249.502 83.155 249.398 83.4704 249.356C83.6473 249.332 84.0666 249.285 84.145 249.207V249.568C84.145 249.899 83.8806 250.202 83.4267 250.202ZM85.9502 249.814V247.777H85.4161V250.578H86.0085L87.2373 248.539V250.578H87.7714V247.777H87.1844L85.9502 249.814ZM86.9511 246.829C86.9511 247.014 86.849 247.176 86.5937 247.176C86.3349 247.176 86.2382 247.012 86.2382 246.829H85.7916C85.7916 247.24 86.1033 247.522 86.5937 247.522C87.0878 247.522 87.3995 247.24 87.3995 246.829H86.9511ZM89.6838 250.634C90.3455 250.634 90.7739 250.237 90.8341 249.692H90.3036C90.2343 249.994 89.9992 250.173 89.6874 250.173C89.2262 250.173 88.929 249.788 88.929 249.178C88.929 248.578 89.2317 248.2 89.6874 248.2C90.0338 248.2 90.2453 248.419 90.3036 248.682H90.8341C90.7758 248.117 90.3145 247.741 89.6783 247.741C88.8889 247.741 88.3785 248.335 88.3785 249.19C88.3785 250.034 88.8707 250.634 89.6838 250.634ZM91.2051 248.248H92.1221V250.578H92.6544V248.248H93.5677V247.777H91.2051V248.248ZM95.2208 250.634C95.8315 250.634 96.2635 250.333 96.3875 249.878L95.8716 249.785C95.7731 250.049 95.5362 250.184 95.2262 250.184C94.7595 250.184 94.446 249.881 94.4314 249.342H96.4221V249.148C96.4221 248.137 95.8169 247.741 95.1825 247.741C94.4022 247.741 93.8881 248.335 93.8881 249.196C93.8881 250.065 94.3949 250.634 95.2208 250.634ZM94.4332 248.933C94.4551 248.536 94.7431 248.191 95.1861 248.191C95.6091 248.191 95.8862 248.505 95.888 248.933H94.4332ZM97.0269 251.628H97.572V250.142H97.6048C97.7033 250.321 97.9038 250.632 98.4143 250.632C99.0924 250.632 99.5846 250.089 99.5846 249.183C99.5846 248.275 99.0851 247.741 98.4088 247.741C97.8892 247.741 97.7015 248.058 97.6048 248.231H97.5593V247.777H97.0269V251.628ZM97.5611 249.178C97.5611 248.592 97.8163 248.204 98.2921 248.204C98.7862 248.204 99.0341 248.621 99.0341 249.178C99.0341 249.739 98.7789 250.167 98.2921 250.167C97.8236 250.167 97.5611 249.766 97.5611 249.178Z" fill="#4E5256"/>
<rect x="36.3101" y="232.743" width="20.5346" height="20.5346" rx="7.18711" fill="#A06AF9"/>
<path d="M49.8218 242.86C49.8218 240.886 48.596 239.76 46.9961 239.76C45.3873 239.76 44.1704 240.886 44.1704 242.86C44.1704 244.825 45.3873 245.96 46.9961 245.96C48.596 245.96 49.8218 244.834 49.8218 242.86ZM48.5283 242.86C48.5283 244.139 47.9213 244.831 46.9961 244.831C46.0679 244.831 45.4639 244.139 45.4639 242.86C45.4639 241.581 46.0679 240.889 46.9961 240.889C47.9213 240.889 48.5283 241.581 48.5283 242.86Z" fill="white"/>
<rect x="28.0962" y="270.219" width="177.111" height="33.8821" rx="5.13365" fill="#2B2F3A"/>
<path d="M69.8437 285.51C71.1782 285.51 72.0615 284.785 72.1162 283.598H70.954C70.9212 284.197 70.4618 284.563 69.8437 284.563C69.1656 284.563 68.7062 284.016 68.6542 283.166H70.3989V282.214H68.6542C68.7089 281.304 69.1683 280.719 69.8492 280.719C70.4727 280.719 70.9294 281.096 70.9594 281.717H72.1162C72.0286 280.5 71.1481 279.756 69.8492 279.756C68.4191 279.756 67.4975 280.847 67.5002 282.534V282.868C67.4975 284.473 68.4163 285.51 69.8437 285.51ZM75.8228 281.233H72.9461V285.433H74.0782V282.149H75.8228V281.233ZM78.2805 285.515C79.5548 285.515 80.3478 284.643 80.3478 283.349C80.3478 282.048 79.5548 281.178 78.2805 281.178C77.0062 281.178 76.2132 282.048 76.2132 283.349C76.2132 284.643 77.0062 285.515 78.2805 285.515ZM78.286 284.613C77.698 284.613 77.3972 284.074 77.3972 283.341C77.3972 282.608 77.698 282.067 78.286 282.067C78.863 282.067 79.1638 282.608 79.1638 283.341C79.1638 284.074 78.863 284.613 78.286 284.613ZM81.1053 287.008H82.2702V284.76H82.3057C82.4671 285.11 82.8198 285.501 83.498 285.501C84.4551 285.501 85.2016 284.744 85.2016 283.338C85.2016 281.894 84.4223 281.178 83.5007 281.178C82.798 281.178 82.4616 281.596 82.3057 281.938H82.2538V281.233H81.1053V287.008ZM82.2456 283.333C82.2456 282.584 82.5628 282.105 83.1288 282.105C83.7058 282.105 84.0121 282.605 84.0121 283.333C84.0121 284.066 83.7004 284.574 83.1288 284.574C82.5683 284.574 82.2456 284.082 82.2456 283.333Z" fill="white"/>
<path d="M69.0498 294.052L68.1638 291.927H67.4784V294.727H68.0125V292.691L68.8475 294.727H69.2522L70.1017 292.698V294.727H70.6322V291.927H69.954L69.0498 294.052ZM72.1736 294.789C72.6366 294.789 72.8973 294.554 73.0012 294.344H73.0231V294.727H73.5554V292.868C73.5554 292.053 72.9137 291.89 72.4689 291.89C71.9621 291.89 71.4954 292.095 71.3131 292.605L71.8254 292.722C71.9056 292.523 72.1098 292.332 72.4762 292.332C72.828 292.332 73.0085 292.516 73.0085 292.833V292.846C73.0085 293.044 72.8043 293.041 72.3012 293.099C71.7707 293.161 71.2274 293.3 71.2274 293.936C71.2274 294.486 71.6413 294.789 72.1736 294.789ZM72.2921 294.351C71.984 294.351 71.7616 294.213 71.7616 293.943C71.7616 293.651 72.0204 293.547 72.3358 293.506C72.5127 293.482 72.932 293.434 73.0103 293.356V293.717C73.0103 294.049 72.746 294.351 72.2921 294.351ZM74.8156 293.963V291.927H74.2815V294.727H74.8739L76.1027 292.689V294.727H76.6368V291.927H76.0498L74.8156 293.963ZM75.8164 290.979C75.8164 291.163 75.7144 291.325 75.4591 291.325C75.2003 291.325 75.1036 291.161 75.1036 290.979H74.657C74.657 291.389 74.9687 291.672 75.4591 291.672C75.9532 291.672 76.2649 291.389 76.2649 290.979H75.8164ZM78.5492 294.784C79.2109 294.784 79.6393 294.386 79.6995 293.841H79.169C79.0997 294.144 78.8646 294.322 78.5528 294.322C78.0916 294.322 77.7944 293.938 77.7944 293.327C77.7944 292.727 78.0971 292.35 78.5528 292.35C78.8992 292.35 79.1107 292.569 79.169 292.831H79.6995C79.6412 292.266 79.1799 291.89 78.5437 291.89C77.7543 291.89 77.2439 292.485 77.2439 293.34C77.2439 294.184 77.7361 294.784 78.5492 294.784ZM80.0705 292.397H80.9875V294.727H81.5198V292.397H82.4331V291.927H80.0705V292.397ZM84.0862 294.784C84.6969 294.784 85.1289 294.483 85.2529 294.027L84.737 293.934C84.6385 294.198 84.4015 294.333 84.0916 294.333C83.6249 294.333 83.3114 294.031 83.2968 293.491H85.2875V293.298C85.2875 292.286 84.6823 291.89 84.0479 291.89C83.2676 291.89 82.7535 292.485 82.7535 293.345C82.7535 294.215 83.2603 294.784 84.0862 294.784ZM83.2986 293.083C83.3205 292.685 83.6085 292.341 84.0515 292.341C84.4745 292.341 84.7516 292.654 84.7534 293.083H83.2986ZM85.8923 295.777H86.4374V294.291H86.4702C86.5687 294.47 86.7692 294.782 87.2797 294.782C87.9578 294.782 88.45 294.238 88.45 293.332C88.45 292.425 87.9505 291.89 87.2742 291.89C86.7546 291.89 86.5668 292.208 86.4702 292.381H86.4247V291.927H85.8923V295.777ZM86.4265 293.327C86.4265 292.742 86.6817 292.353 87.1575 292.353C87.6516 292.353 87.8995 292.771 87.8995 293.327C87.8995 293.888 87.6443 294.317 87.1575 294.317C86.689 294.317 86.4265 293.916 86.4265 293.327Z" fill="#4E5256"/>
<rect x="36.3101" y="276.893" width="20.5346" height="20.5346" rx="7.18711" fill="#A06AF9"/>
<path d="M46.548 290.109C47.9859 290.109 48.9376 289.328 48.9966 288.049H47.7443C47.7089 288.695 47.2139 289.09 46.548 289.09C45.8173 289.09 45.3223 288.5 45.2663 287.584H47.1462V286.558H45.2663C45.3252 285.577 45.8202 284.947 46.5539 284.947C47.2257 284.947 47.7178 285.353 47.7502 286.022H48.9966C48.9023 284.711 47.9535 283.91 46.5539 283.91C45.0129 283.91 44.0199 285.085 44.0229 286.903V287.263C44.0199 288.992 45.0099 290.109 46.548 290.109Z" fill="white"/>
<rect x="27.5828" y="314.368" width="177.111" height="33.8821" rx="5.13365" fill="#2B2F3A"/>
<path d="M70.4734 329.582H71.9418L69.6557 326.58L71.8406 323.982H70.3667L68.5072 326.219H68.2693V323.982H67.0853V329.582H68.2693V327.195H68.674L70.4734 329.582ZM73.6283 328.046V325.382H72.5154V329.582H73.6721L75.1788 326.911V329.582H76.289V325.382H75.1405L73.6283 328.046ZM77.2229 331.157H78.3878V328.91H78.4234C78.5847 329.26 78.9375 329.651 79.6156 329.651C80.5727 329.651 81.3192 328.893 81.3192 327.488C81.3192 326.044 80.5399 325.327 79.6184 325.327C78.9156 325.327 78.5792 325.746 78.4234 326.088H78.3714V325.382H77.2229V331.157ZM78.3632 327.482C78.3632 326.733 78.6804 326.254 79.2465 326.254C79.8234 326.254 80.1297 326.755 80.1297 327.482C80.1297 328.215 79.818 328.724 79.2465 328.724C78.6859 328.724 78.3632 328.231 78.3632 327.482ZM83.2088 328.046V325.382H82.0959V329.582H83.2526L84.7593 326.911V329.582H85.8695V325.382H84.721L83.2088 328.046ZM86.5573 329.582H86.9073C87.7987 329.582 88.2718 328.992 88.3429 327.581L88.4085 326.298H89.4449V329.582H90.5552V325.382H87.3612L87.2929 327.242C87.2518 328.305 87.0878 328.658 86.6913 328.658H86.5518L86.5573 329.582ZM93.356 329.664C94.6303 329.664 95.4233 328.792 95.4233 327.499C95.4233 326.197 94.6303 325.327 93.356 325.327C92.0817 325.327 91.2887 326.197 91.2887 327.499C91.2887 328.792 92.0817 329.664 93.356 329.664ZM93.3615 328.762C92.7736 328.762 92.4728 328.223 92.4728 327.49C92.4728 326.758 92.7736 326.216 93.3615 326.216C93.9385 326.216 94.2393 326.758 94.2393 327.49C94.2393 328.223 93.9385 328.762 93.3615 328.762Z" fill="white"/>
<path d="M68.5364 338.202L67.6504 336.076H66.9649V338.876H67.4991V336.84L68.334 338.876H68.7387L69.5883 336.847V338.876H70.1188V336.076H69.4406L68.5364 338.202ZM71.6602 338.938C72.1232 338.938 72.3839 338.703 72.4878 338.494H72.5097V338.876H73.042V337.017C73.042 336.202 72.4003 336.04 71.9555 336.04C71.4487 336.04 70.982 336.244 70.7997 336.754L71.312 336.871C71.3922 336.672 71.5963 336.481 71.9628 336.481C72.3146 336.481 72.4951 336.665 72.4951 336.982V336.995C72.4951 337.194 72.2909 337.19 71.7878 337.248C71.2573 337.31 70.714 337.449 70.714 338.085C70.714 338.636 71.1278 338.938 71.6602 338.938ZM71.7786 338.501C71.4706 338.501 71.2481 338.362 71.2481 338.092C71.2481 337.801 71.507 337.697 71.8224 337.655C71.9992 337.631 72.4185 337.584 72.4969 337.505V337.866C72.4969 338.198 72.2326 338.501 71.7786 338.501ZM74.3022 338.113V336.076H73.768V338.876H74.3605L75.5892 336.838V338.876H76.1234V336.076H75.5364L74.3022 338.113ZM75.303 335.128C75.303 335.312 75.2009 335.475 74.9457 335.475C74.6868 335.475 74.5902 335.311 74.5902 335.128H74.1436C74.1436 335.538 74.4553 335.821 74.9457 335.821C75.4397 335.821 75.7515 335.538 75.7515 335.128H75.303ZM78.0357 338.933C78.6975 338.933 79.1259 338.535 79.1861 337.99H78.6556C78.5863 338.293 78.3511 338.472 78.0394 338.472C77.5782 338.472 77.281 338.087 77.281 337.476C77.281 336.877 77.5836 336.499 78.0394 336.499C78.3858 336.499 78.5972 336.718 78.6556 336.98H79.1861C79.1277 336.415 78.6665 336.04 78.0303 336.04C77.2409 336.04 76.7305 336.634 76.7305 337.489C76.7305 338.333 77.2227 338.933 78.0357 338.933ZM79.5571 336.547H80.474V338.876H81.0064V336.547H81.9197V336.076H79.5571V336.547ZM83.5727 338.933C84.1834 338.933 84.6155 338.632 84.7395 338.176L84.2236 338.083C84.1251 338.348 83.8881 338.483 83.5782 338.483C83.1115 338.483 82.7979 338.18 82.7834 337.64H84.7741V337.447C84.7741 336.435 84.1689 336.04 83.5345 336.04C82.7542 336.04 82.2401 336.634 82.2401 337.495C82.2401 338.364 82.7469 338.933 83.5727 338.933ZM82.7852 337.232C82.8071 336.835 83.0951 336.49 83.5381 336.49C83.961 336.49 84.2381 336.804 84.24 337.232H82.7852ZM85.3789 339.926H85.924V338.441H85.9568C86.0552 338.619 86.2558 338.931 86.7662 338.931C87.4444 338.931 87.9366 338.388 87.9366 337.482C87.9366 336.574 87.4371 336.04 86.7608 336.04C86.2412 336.04 86.0534 336.357 85.9568 336.53H85.9112V336.076H85.3789V339.926ZM85.913 337.476C85.913 336.891 86.1683 336.503 86.6441 336.503C87.1381 336.503 87.3861 336.92 87.3861 337.476C87.3861 338.038 87.1308 338.466 86.6441 338.466C86.1756 338.466 85.913 338.065 85.913 337.476Z" fill="#4E5256"/>
<rect x="35.7966" y="321.042" width="20.5346" height="20.5346" rx="7.18711" fill="#A06AF9"/>
<path d="M47.2217 334.176H48.8039L46.3407 330.941L48.6949 328.141H47.1067L45.1031 330.552H44.8468V328.141H43.5709V334.176H44.8468V331.604H45.2829L47.2217 334.176Z" fill="white"/>
<defs>
<filter id="filter0_ii_3195:6955" x="-1.06062" y="-5.76514" width="239.95" height="491.4" filterUnits="userSpaceOnUse" color-interpolation-filters="sRGB">
<feFlood flood-opacity="0" result="BackgroundImageFix"/>
<feBlend mode="normal" in="SourceGraphic" in2="BackgroundImageFix" result="shape"/>
<feColorMatrix in="SourceAlpha" type="matrix" values="0 0 0 0 0 0 0 0 0 0 0 0 0 0 0 0 0 0 127 0" result="hardAlpha"/>
<feOffset dx="5.76514" dy="1.15303"/>
<feGaussianBlur stdDeviation="5.76514"/>
<feComposite in2="hardAlpha" operator="arithmetic" k2="-1" k3="1"/>
<feColorMatrix type="matrix" values="0 0 0 0 0.105882 0 0 0 0 0.113725 0 0 0 0 0.129412 0 0 0 1 0"/>
<feBlend mode="normal" in2="shape" result="effect1_innerShadow_3195:6955"/>
<feColorMatrix in="SourceAlpha" type="matrix" values="0 0 0 0 0 0 0 0 0 0 0 0 0 0 0 0 0 0 127 0" result="hardAlpha"/>
<feOffset dx="-1.15303" dy="-5.76514"/>
<feGaussianBlur stdDeviation="5.76514"/>
<feComposite in2="hardAlpha" operator="arithmetic" k2="-1" k3="1"/>
<feColorMatrix type="matrix" values="0 0 0 0 0.399479 0 0 0 0 0.514406 0 0 0 0 0.7375 0 0 0 0.25 0"/>
<feBlend mode="normal" in2="effect1_innerShadow_3195:6955" result="effect2_innerShadow_3195:6955"/>
</filter>
<linearGradient id="paint0_linear_3195:6955" x1="10.1284" y1="11.4832" x2="222.572" y2="471.499" gradientUnits="userSpaceOnUse">
<stop stop-color="#1C192D"/>
<stop offset="0.40625" stop-color="#181A20"/>
</linearGradient>
</defs>
</svg>
