<svg width="234" height="485" viewBox="0 0 234 485" fill="none" xmlns="http://www.w3.org/2000/svg">
<g filter="url(#filter0_ii_3195:6982)">
<rect width="233.035" height="484.482" rx="28.7697" fill="#1B1D21"/>
</g>
<rect x="10.9108" y="10.3354" width="212.748" height="460.44" rx="18.3245" fill="url(#paint0_linear_3195:6982)"/>
<rect x="28.8967" y="93.0706" width="177.29" height="28.2636" rx="5.13883" fill="#2B2F3A"/>
<path d="M61.0879 109.732H62.0684V106.803H63.3709V109.732H64.3635V105.986H61.0879V109.732ZM66.8855 109.805C68.0221 109.805 68.7294 109.027 68.7294 107.873C68.7294 106.712 68.0221 105.937 66.8855 105.937C65.7489 105.937 65.0416 106.712 65.0416 107.873C65.0416 109.027 65.7489 109.805 66.8855 109.805ZM66.8904 109C66.366 109 66.0977 108.52 66.0977 107.866C66.0977 107.212 66.366 106.73 66.8904 106.73C67.405 106.73 67.6733 107.212 67.6733 107.866C67.6733 108.52 67.405 109 66.8904 109ZM69.405 105.986V109.732H74.4953V105.986H73.5026V108.908H72.4465V105.986H71.4538V108.908H70.3977V105.986H69.405ZM75.8081 111.137C76.5813 111.137 76.991 110.742 77.2032 110.137L78.6593 105.991L77.5593 105.986L76.7764 108.737H76.7374L75.9618 105.986H74.8691L76.213 109.839L76.152 109.998C76.0154 110.349 75.7544 110.366 75.3886 110.254L75.1544 111.03C75.3032 111.093 75.5447 111.137 75.8081 111.137ZM79.191 109.732H80.2301V108.403H80.6179L81.5423 109.732H82.7764L81.4374 107.844L82.7618 105.986H81.5423L80.5228 107.439H80.2301V105.986H79.191V109.732ZM83.8228 109.795C84.135 109.795 84.4057 109.534 84.4081 109.21C84.4057 108.891 84.135 108.63 83.8228 108.63C83.5008 108.63 83.235 108.891 83.2374 109.21C83.235 109.534 83.5008 109.795 83.8228 109.795ZM85.8685 109.795C86.1807 109.795 86.4514 109.534 86.4539 109.21C86.4514 108.891 86.1807 108.63 85.8685 108.63C85.5466 108.63 85.2807 108.891 85.2831 109.21C85.2807 109.534 85.5466 109.795 85.8685 109.795ZM87.9142 109.795C88.2264 109.795 88.4972 109.534 88.4996 109.21C88.4972 108.891 88.2264 108.63 87.9142 108.63C87.5923 108.63 87.3264 108.891 87.3289 109.21C87.3264 109.534 87.5923 109.795 87.9142 109.795Z" fill="#5E6271"/>
<path d="M42.3813 109.762C44.1524 109.762 45.5882 108.326 45.5882 106.555C45.5882 104.784 44.1524 103.348 42.3813 103.348C40.6101 103.348 39.1743 104.784 39.1743 106.555C39.1743 108.326 40.6101 109.762 42.3813 109.762Z" stroke="white" stroke-width="0.916226" stroke-linecap="round" stroke-linejoin="round"/>
<path d="M44.6489 108.823L46.5044 110.678" stroke="white" stroke-width="0.916226" stroke-linecap="round" stroke-linejoin="round"/>
<path d="M28.5075 33.974L26.3273 36.1542L28.5075 38.3344" stroke="white" stroke-width="1.02777" stroke-linecap="round" stroke-linejoin="round"/>
<path d="M31.4661 36.1542H26.3273" stroke="white" stroke-width="1.02777" stroke-linecap="round" stroke-linejoin="round"/>
<path d="M46.9479 35.2935H49.7948C51.2915 35.2935 52.0886 34.5126 52.0886 33.4519C52.0886 32.4661 51.3826 31.8707 50.6245 31.8349V31.7698C51.3175 31.6136 51.8283 31.1223 51.8283 30.3382C51.8283 29.3393 51.0865 28.63 49.6158 28.63H46.9479V35.2935ZM48.3567 34.1417V32.3717H49.5378C50.2145 32.3717 50.6342 32.7622 50.6342 33.312C50.6342 33.8131 50.2926 34.1417 49.5052 34.1417H48.3567ZM48.3567 31.4184V29.7688H49.4271C50.0518 29.7688 50.4065 30.0909 50.4065 30.5725C50.4065 31.0996 49.977 31.4184 49.4011 31.4184H48.3567ZM54.4044 35.3879C55.143 35.3879 55.6213 35.0658 55.8653 34.6005H55.9043V35.2935H57.2188V31.9227C57.2188 30.7319 56.2102 30.2308 55.0974 30.2308C53.9001 30.2308 53.1127 30.8035 52.9207 31.7145L54.2027 31.8186C54.297 31.4867 54.5931 31.2427 55.0909 31.2427C55.5627 31.2427 55.8327 31.4802 55.8327 31.8902V31.9097C55.8327 32.2318 55.4911 32.2741 54.6224 32.3587C53.6333 32.4498 52.745 32.7817 52.745 33.8977C52.745 34.8868 53.4511 35.3879 54.4044 35.3879ZM54.8013 34.4313C54.3751 34.4313 54.0693 34.2328 54.0693 33.8521C54.0693 33.4617 54.3914 33.2697 54.8794 33.2014C55.182 33.1591 55.6766 33.0875 55.8425 32.9769V33.5073C55.8425 34.0311 55.4098 34.4313 54.8013 34.4313ZM58.2941 35.2935H59.6802V32.4661C59.6802 31.8512 60.1292 31.4282 60.7409 31.4282C60.9328 31.4282 61.1964 31.4607 61.3265 31.503V30.2731C61.2029 30.2439 61.0304 30.2243 60.8905 30.2243C60.3309 30.2243 59.8721 30.5497 59.6899 31.1679H59.6379V30.2959H58.2941V35.2935ZM62.0692 35.2935H63.4357V34.4931H63.4975C63.6895 34.9096 64.1092 35.3749 64.9161 35.3749C66.0549 35.3749 66.9431 34.4736 66.9431 32.8012C66.9431 31.0833 66.0158 30.2308 64.9194 30.2308C64.0832 30.2308 63.683 30.7286 63.4975 31.1354H63.4552V28.63H62.0692V35.2935ZM63.4259 32.7947C63.4259 31.9032 63.8034 31.3338 64.4769 31.3338C65.1634 31.3338 65.5278 31.9292 65.5278 32.7947C65.5278 33.6667 65.1569 34.2719 64.4769 34.2719C63.8099 34.2719 63.4259 33.6862 63.4259 32.7947ZM70.1455 35.3911C71.3819 35.3911 72.2148 34.7892 72.4101 33.8619L71.1281 33.7773C70.9882 34.158 70.6303 34.3565 70.1683 34.3565C69.4753 34.3565 69.036 33.8977 69.036 33.1526V33.1494H72.4393V32.7687C72.4393 31.0703 71.4112 30.2308 70.0902 30.2308C68.6196 30.2308 67.6663 31.2753 67.6663 32.8175C67.6663 34.402 68.6066 35.3911 70.1455 35.3911ZM69.036 32.2904C69.0653 31.721 69.4981 31.2655 70.113 31.2655C70.7149 31.2655 71.1314 31.695 71.1346 32.2904H69.036ZM73.3439 35.2935H74.7299V32.4661C74.7299 31.8512 75.1789 31.4282 75.7906 31.4282C75.9826 31.4282 76.2461 31.4607 76.3763 31.503V30.2731C76.2526 30.2439 76.0802 30.2243 75.9403 30.2243C75.3806 30.2243 74.9219 30.5497 74.7397 31.1679H74.6876V30.2959H73.3439V35.2935ZM81.251 31.721C81.1274 30.8002 80.3856 30.2308 79.1231 30.2308C77.8445 30.2308 77.0018 30.823 77.005 31.7861C77.0018 32.5344 77.4735 33.0192 78.4496 33.2144L79.3151 33.3869C79.7511 33.4747 79.9496 33.6342 79.9561 33.8847C79.9496 34.1808 79.6275 34.3923 79.1427 34.3923C78.6481 34.3923 78.3195 34.1808 78.2349 33.7741L76.8716 33.8456C77.0018 34.8022 77.8152 35.3911 79.1394 35.3911C80.4344 35.3911 81.3616 34.7306 81.3649 33.7448C81.3616 33.0225 80.8899 32.5897 79.9203 32.3913L79.0158 32.2091C78.5505 32.1082 78.3781 31.9488 78.3813 31.708C78.3781 31.4087 78.7164 31.2134 79.1459 31.2134C79.6275 31.2134 79.9138 31.477 79.9821 31.7991L81.251 31.721ZM83.6237 32.4043C83.627 31.7601 84.0207 31.3826 84.5868 31.3826C85.1497 31.3826 85.4816 31.7438 85.4783 32.3587V35.2935H86.8644V32.1114C86.8676 30.9401 86.1779 30.2308 85.1367 30.2308C84.3786 30.2308 83.871 30.5887 83.6433 31.1777H83.5847V28.63H82.2377V35.2935H83.6237V32.4043ZM90.2132 35.3911C91.7294 35.3911 92.6729 34.3532 92.6729 32.8142C92.6729 31.2655 91.7294 30.2308 90.2132 30.2308C88.697 30.2308 87.7534 31.2655 87.7534 32.8142C87.7534 34.3532 88.697 35.3911 90.2132 35.3911ZM90.2197 34.3174C89.5202 34.3174 89.1623 33.6764 89.1623 32.8045C89.1623 31.9325 89.5202 31.2883 90.2197 31.2883C90.9062 31.2883 91.2641 31.9325 91.2641 32.8045C91.2641 33.6764 90.9062 34.3174 90.2197 34.3174ZM93.5742 37.1676H94.9603V34.4931H95.0025C95.1945 34.9096 95.6142 35.3749 96.4211 35.3749C97.5599 35.3749 98.4482 34.4736 98.4482 32.8012C98.4482 31.0833 97.5209 30.2308 96.4244 30.2308C95.5882 30.2308 95.188 30.7286 95.0025 31.1354H94.9407V30.2959H93.5742V37.1676ZM94.931 32.7947C94.931 31.9032 95.3084 31.3338 95.9819 31.3338C96.6684 31.3338 97.0328 31.9292 97.0328 32.7947C97.0328 33.6667 96.6619 34.2719 95.9819 34.2719C95.3149 34.2719 94.931 33.6862 94.931 32.7947Z" fill="white"/>
<path d="M46.7608 43.5989H47.3284V41.1062H48.6332V43.5989H49.2047V40.603H46.7608V43.5989ZM51.2757 43.6594C51.9291 43.6594 52.3914 43.3376 52.524 42.8499L51.972 42.7505C51.8667 43.0333 51.6131 43.1776 51.2815 43.1776C50.7822 43.1776 50.4467 42.8539 50.4311 42.2765H52.5611V42.0697C52.5611 40.9872 51.9135 40.564 51.2347 40.564C50.3999 40.564 49.8499 41.1998 49.8499 42.1205C49.8499 43.0509 50.3921 43.6594 51.2757 43.6594ZM50.4331 41.8396C50.4565 41.4144 50.7647 41.0457 51.2386 41.0457C51.6911 41.0457 51.9876 41.3812 51.9896 41.8396H50.4331ZM53.2081 44.7224H53.7913V43.1328H53.8265C53.9318 43.3239 54.1463 43.6575 54.6925 43.6575C55.4181 43.6575 55.9447 43.0762 55.9447 42.1068C55.9447 41.1355 55.4103 40.564 54.6866 40.564C54.1307 40.564 53.9298 40.9033 53.8265 41.0886H53.7777V40.603H53.2081V44.7224ZM53.7796 42.101C53.7796 41.4748 54.0527 41.0594 54.5618 41.0594C55.0904 41.0594 55.3556 41.5061 55.3556 42.101C55.3556 42.7017 55.0826 43.1601 54.5618 43.1601C54.0605 43.1601 53.7796 42.731 53.7796 42.101ZM57.8893 43.6594C58.5428 43.6594 59.005 43.3376 59.1377 42.8499L58.5857 42.7505C58.4803 43.0333 58.2268 43.1776 57.8952 43.1776C57.3959 43.1776 57.0604 42.8539 57.0448 42.2765H59.1747V42.0697C59.1747 40.9872 58.5272 40.564 57.8484 40.564C57.0136 40.564 56.4635 41.1998 56.4635 42.1205C56.4635 43.0509 57.0058 43.6594 57.8893 43.6594ZM57.0467 41.8396C57.0701 41.4144 57.3783 41.0457 57.8523 41.0457C58.3048 41.0457 58.6013 41.3812 58.6032 41.8396H57.0467ZM60.3933 42.7817V40.603H59.8218V43.5989H60.4557L61.7704 41.4183V43.5989H62.3419V40.603H61.7138L60.3933 42.7817ZM61.4641 39.5887C61.4641 39.7857 61.3549 39.9593 61.0818 39.9593C60.8049 39.9593 60.7015 39.7838 60.7015 39.5887H60.2236C60.2236 40.0276 60.5571 40.3299 61.0818 40.3299C61.6104 40.3299 61.9439 40.0276 61.9439 39.5887H61.4641ZM62.7544 41.1062H63.7355V43.5989H64.305V41.1062H65.2822V40.603H62.7544V41.1062ZM66.4706 42.7817V40.603H65.8991V43.5989H66.533L67.8476 41.4183V43.5989H68.4191V40.603H67.7911L66.4706 42.7817ZM70.6568 43.5989H72.0885C72.7439 43.5989 73.1281 43.2674 73.1281 42.7914C73.1281 42.3467 72.7868 42.0737 72.3869 42.0268C72.7556 41.9566 72.9994 41.7538 72.9994 41.4027C72.9994 40.9112 72.5742 40.603 71.8993 40.603H70.6568V43.5989ZM71.2049 43.1113V42.2785H72.0885C72.3772 42.2785 72.5508 42.4481 72.5508 42.7271C72.5508 42.965 72.3772 43.1113 72.0885 43.1113H71.2049ZM71.2049 41.8513V41.0964H71.8993C72.2309 41.0964 72.4318 41.2349 72.4318 41.4651C72.4318 41.705 72.2328 41.8513 71.9052 41.8513H71.2049ZM75.2215 43.5989H75.7891V41.1062H77.094V43.5989H77.6655V40.603H75.2215V43.5989ZM78.4452 44.7224H79.0284V43.1328H79.0635C79.1688 43.3239 79.3834 43.6575 79.9295 43.6575C80.6551 43.6575 81.1817 43.0762 81.1817 42.1068C81.1817 41.1355 80.6473 40.564 79.9237 40.564C79.3678 40.564 79.1669 40.9033 79.0635 41.0886H79.0147V40.603H78.4452V44.7224ZM79.0167 42.101C79.0167 41.4748 79.2898 41.0594 79.7988 41.0594C80.3274 41.0594 80.5927 41.5061 80.5927 42.101C80.5927 42.7017 80.3196 43.1601 79.7988 43.1601C79.2976 43.1601 79.0167 42.731 79.0167 42.101ZM83.0971 43.6594C83.9417 43.6594 84.4937 43.0411 84.4937 42.1146C84.4937 41.1823 83.9417 40.564 83.0971 40.564C82.2526 40.564 81.7006 41.1823 81.7006 42.1146C81.7006 43.0411 82.2526 43.6594 83.0971 43.6594ZM83.0991 43.1698C82.5471 43.1698 82.2896 42.6881 82.2896 42.1127C82.2896 41.5392 82.5471 41.0516 83.0991 41.0516C83.6472 41.0516 83.9046 41.5392 83.9046 42.1127C83.9046 42.6881 83.6472 43.1698 83.0991 43.1698ZM86.434 44.6191H87.0172V43.6594C87.8637 43.6594 88.4391 43.0391 88.4391 42.1146C88.4391 41.1842 87.8637 40.564 87.0172 40.564V39.6043H86.434V40.564C85.5874 40.564 85.0101 41.1842 85.0101 42.1146C85.0101 43.0391 85.5874 43.6594 86.434 43.6594V44.6191ZM86.434 43.1679C85.8742 43.1679 85.6011 42.6822 85.6011 42.1146C85.6011 41.547 85.8742 41.0555 86.434 41.0555V43.1679ZM87.0172 43.1679V41.0555C87.5769 41.0555 87.8481 41.547 87.8481 42.1146C87.8481 42.6822 87.5769 43.1679 87.0172 43.1679ZM89.0871 43.5989H89.6703V40.603H89.0871V43.5989ZM89.3816 40.1407C89.5825 40.1407 89.7503 39.9847 89.7503 39.7935C89.7503 39.6024 89.5825 39.4444 89.3816 39.4444C89.1788 39.4444 89.013 39.6024 89.013 39.7935C89.013 39.9847 89.1788 40.1407 89.3816 40.1407ZM90.2189 43.5989H90.4061C91.0596 43.5989 91.2995 43.1152 91.3463 42.1244L91.3931 41.1062H92.3723V43.5989H92.9437V40.603H90.8528L90.8001 41.9293C90.7631 42.8539 90.6578 43.0938 90.3242 43.0938H90.2169L90.2189 43.5989ZM94.293 41.6328V40.603H93.7215V43.5989H95.0303C95.7637 43.5989 96.1733 43.1737 96.1733 42.61C96.1733 42.0346 95.7637 41.6328 95.0303 41.6328H94.293ZM94.293 42.1361H95.0303C95.3658 42.1361 95.6057 42.3389 95.6057 42.6276C95.6057 42.9007 95.3658 43.0957 95.0303 43.0957H94.293V42.1361Z" fill="#4E5256"/>
<path d="M53.9317 71.8405C55.4559 71.8405 56.5694 70.8025 56.8223 69.2586C57.0785 67.6885 56.2968 66.6308 54.7595 66.6308C53.2321 66.6308 52.1185 67.6655 51.8689 69.2159C51.6094 70.7828 52.3912 71.8405 53.9317 71.8405ZM54.073 70.7565C53.3832 70.7565 53.1368 70.1193 53.2781 69.2521C53.4226 68.3619 53.9087 67.6984 54.6182 67.6984C55.308 67.6984 55.5511 68.3389 55.4132 69.2094C55.2653 70.0995 54.7792 70.7565 54.073 70.7565ZM62.6856 64.8439C62.4163 65.018 62.0188 65.0147 61.4801 65.0147C61.352 65.0147 61.2173 65.0114 61.0728 65.0147C59.2301 65.0312 58.0837 66.1775 57.6731 68.6115L57.6074 69.0254C57.3052 70.8583 58.0902 71.8405 59.6177 71.8405C61.1418 71.8405 62.2455 70.855 62.5082 69.3178C62.7448 67.8363 62.0287 66.956 60.7476 66.956C59.9297 66.956 59.3286 67.3075 58.9213 67.925H58.872C59.1972 66.6867 59.7523 66.1775 60.9283 66.1644C61.963 66.148 62.4754 66.1118 62.9615 65.7571L62.6856 64.8439ZM59.8016 70.7565C59.1446 70.7565 58.8359 70.2244 58.9804 69.3638C59.1217 68.5031 59.5979 68.017 60.2516 68.017C60.8954 68.017 61.214 68.5031 61.0761 69.3638C60.9316 70.2277 60.4454 70.7565 59.8016 70.7565ZM65.3676 71.8405C66.6224 71.8405 67.552 71.2328 67.91 70.2966L66.6323 70.2112C66.4253 70.5955 66.0312 70.7959 65.5647 70.7959C64.8486 70.7959 64.4906 70.4083 64.6187 69.6134L64.6253 69.5773H68.0611L68.1236 69.193C68.4093 67.4783 67.5159 66.6308 66.179 66.6308C64.6943 66.6308 63.5577 67.6852 63.2982 69.2422C63.0289 70.8419 63.8139 71.8405 65.3676 71.8405ZM64.7829 68.7101C64.9012 68.155 65.4366 67.6754 66.0377 67.6754C66.6421 67.6754 66.9805 68.109 66.8819 68.7101H64.7829ZM68.3034 73.634H69.7027L70.1494 70.9339H70.1987C70.3235 71.3543 70.6651 71.824 71.4798 71.824C72.6294 71.824 73.6806 70.9142 73.9598 69.2258C74.2455 67.4914 73.4572 66.6308 72.3502 66.6308C71.506 66.6308 71.01 67.1334 70.7604 67.544H70.7013L70.8392 66.6965H69.4596L68.3034 73.634ZM70.4089 69.2192C70.5535 68.3192 71.0363 67.7444 71.713 67.7444C72.4061 67.7444 72.6688 68.3455 72.5309 69.2192C72.3765 70.0995 71.9134 70.7105 71.2236 70.7105C70.5502 70.7105 70.2644 70.1193 70.4089 69.2192ZM76.1244 69.8959L76.6566 66.6965H75.3229L74.482 71.7419H75.8682L78.2135 68.5327L77.6781 71.7419H79.015L79.8559 66.6965H78.473L76.1244 69.8959ZM82.2866 71.7419H83.6038L84.2641 67.7969H86.0214L85.3612 71.7419H86.6948L87.5357 66.6965H83.1275L82.2866 71.7419ZM90.1003 71.8405C91.6244 71.8405 92.7379 70.8025 92.9909 69.2586C93.2471 67.6885 92.4653 66.6308 90.928 66.6308C89.4006 66.6308 88.2871 67.6655 88.0374 69.2159C87.7779 70.7828 88.5597 71.8405 90.1003 71.8405ZM90.2415 70.7565C89.5517 70.7565 89.3054 70.1193 89.4466 69.2521C89.5911 68.3619 90.0773 67.6984 90.7868 67.6984C91.4766 67.6984 91.7197 68.3389 91.5817 69.2094C91.4339 70.0995 90.9477 70.7565 90.2415 70.7565ZM95.7534 71.8405C97.0968 71.8405 98.0658 71.0521 98.3319 69.8926H97.0114C96.8373 70.428 96.4366 70.7335 95.9504 70.7335C95.2968 70.7335 94.965 70.1849 95.126 69.2192C95.2771 68.2666 95.7993 67.7214 96.4563 67.7214C96.9621 67.7214 97.2348 68.063 97.2282 68.5623H98.5454C98.6834 67.3962 97.9312 66.6308 96.614 66.6308C95.0833 66.6308 93.9533 67.6918 93.7037 69.2389C93.4442 70.7729 94.1997 71.8405 95.7534 71.8405ZM98.6201 71.7419H99.0406C100.111 71.7419 100.805 71.0324 101.169 69.3375L101.504 67.7969H102.749L102.089 71.7419H103.422L104.263 66.6965H100.427L99.9767 68.9302C99.7074 70.2079 99.4413 70.6317 98.9618 70.6317H98.7942L98.6201 71.7419ZM104.882 73.634C105.916 73.634 106.56 73.1084 106.984 72.2872L109.871 66.6965H108.337L106.665 70.4083H106.613L106.186 66.6965H104.767L105.713 71.8766L105.588 72.0901C105.315 72.5598 104.984 72.596 104.514 72.4449L104.021 73.4894C104.212 73.5748 104.524 73.634 104.882 73.634ZM114.05 66.6965H110.597L109.756 71.7419H111.113L111.773 67.7969H113.869L114.05 66.6965ZM114.619 73.634C115.654 73.634 116.298 73.1084 116.722 72.2872L119.609 66.6965H118.075L116.403 70.4083H116.35L115.923 66.6965H114.504L115.45 71.8766L115.326 72.0901C115.053 72.5598 114.721 72.596 114.252 72.4449L113.759 73.4894C113.949 73.5748 114.261 73.634 114.619 73.634Z" fill="white"/>
<path d="M38.2641 58.0383H35.2932L31.2055 60.3815L30.7383 63.1845L34.5195 61.0384H34.6071L32.6216 72.9877H35.7823L38.2641 58.0383ZM40.5379 73.1775C41.4503 73.1775 42.3335 72.3964 42.4065 71.4256C42.4868 70.4767 41.735 69.7029 40.8007 69.7029C39.8298 69.7029 38.9685 70.4621 38.9028 71.4256C38.8444 72.3964 39.5524 73.1775 40.5379 73.1775Z" fill="white"/>
<path d="M198.244 40.0175V37.9152C198.244 37.8223 198.207 37.7331 198.142 37.6674C198.076 37.6017 197.987 37.5648 197.894 37.5648H196.492C196.4 37.5648 196.31 37.6017 196.245 37.6674C196.179 37.7331 196.142 37.8223 196.142 37.9152V40.0175C196.142 40.1104 196.105 40.1995 196.039 40.2652C195.974 40.3309 195.885 40.3678 195.792 40.3679L193.69 40.3681C193.644 40.3681 193.598 40.3591 193.556 40.3415C193.513 40.3239 193.475 40.2981 193.442 40.2655C193.409 40.233 193.384 40.1944 193.366 40.1519C193.348 40.1093 193.339 40.0638 193.339 40.0178V35.9683C193.339 35.9195 193.35 35.8712 193.369 35.8265C193.389 35.7819 193.418 35.7419 193.454 35.709L196.958 32.5235C197.022 32.4648 197.106 32.4324 197.193 32.4324C197.28 32.4323 197.364 32.4648 197.429 32.5235L200.933 35.709C200.969 35.7419 200.998 35.7819 201.018 35.8266C201.037 35.8712 201.048 35.9195 201.048 35.9683V40.0178C201.048 40.0638 201.039 40.1093 201.021 40.1519C201.003 40.1944 200.978 40.233 200.945 40.2655C200.912 40.2981 200.874 40.3239 200.831 40.3415C200.789 40.3591 200.743 40.3681 200.697 40.3681L198.595 40.3679C198.502 40.3678 198.413 40.3309 198.347 40.2652C198.281 40.1995 198.244 40.1104 198.244 40.0175V40.0175Z" stroke="white" stroke-width="1.02777" stroke-linecap="round" stroke-linejoin="round"/>
<rect x="28.3828" y="141.889" width="177.29" height="33.9163" rx="5.13883" fill="#2B2F3A"/>
<path d="M193.339 157.923C193.595 157.923 193.802 158.13 193.802 158.385V161.16C193.802 161.416 193.595 161.623 193.339 161.623C193.084 161.623 192.877 161.416 192.877 161.16V158.385C192.877 158.13 193.084 157.923 193.339 157.923Z" fill="white"/>
<path d="M193.339 156.998C193.595 156.998 193.802 156.791 193.802 156.535C193.802 156.28 193.595 156.073 193.339 156.073C193.084 156.073 192.877 156.28 192.877 156.535C192.877 156.791 193.084 156.998 193.339 156.998Z" fill="white"/>
<path fill-rule="evenodd" clip-rule="evenodd" d="M193.339 163.473C195.894 163.473 197.964 161.402 197.964 158.848C197.964 156.293 195.894 154.223 193.339 154.223C190.785 154.223 188.714 156.293 188.714 158.848C188.714 161.402 190.785 163.473 193.339 163.473ZM193.339 162.548C195.383 162.548 197.039 160.891 197.039 158.848C197.039 156.804 195.383 155.148 193.339 155.148C191.296 155.148 189.639 156.804 189.639 158.848C189.639 160.891 191.296 162.548 193.339 162.548Z" fill="white"/>
<rect x="36.0911" y="148.57" width="20.5553" height="20.5553" rx="7.19437" fill="#A06AF9"/>
<path d="M49.5174 157.783C49.3492 156.388 48.2933 155.586 46.8953 155.586C45.2996 155.586 44.0815 156.712 44.0815 158.689C44.0815 160.659 45.279 161.791 46.8953 161.791C48.4437 161.791 49.3787 160.762 49.5174 159.65L48.2255 159.644C48.1046 160.29 47.5972 160.662 46.9159 160.662C45.9986 160.662 45.3763 159.98 45.3763 158.689C45.3763 157.432 45.9898 156.715 46.9248 156.715C47.6238 156.715 48.1281 157.119 48.2255 157.783H49.5174Z" fill="white"/>
<path d="M69.2891 161.305C70.4087 161.305 71.1121 160.648 71.1669 159.682H70.0665C69.9981 160.131 69.7024 160.382 69.3028 160.382C68.7581 160.382 68.405 159.925 68.405 159.12C68.405 158.327 68.7608 157.872 69.3028 157.872C69.7298 157.872 70.0035 158.154 70.0665 158.573H71.1669C71.1176 157.601 70.3813 156.963 69.2836 156.963C68.008 156.963 67.2197 157.848 67.2197 159.137C67.2197 160.415 67.9944 161.305 69.2891 161.305ZM71.6343 157.935H72.9783V161.223H74.0897V157.935H75.4446V157.018H71.6343V157.935ZM76.1515 162.799H77.3176V160.549H77.3532C77.5147 160.9 77.8678 161.291 78.5467 161.291C79.5047 161.291 80.252 160.533 80.252 159.126C80.252 157.681 79.4719 156.963 78.5494 156.963C77.8459 156.963 77.5092 157.382 77.3532 157.724H77.3012V157.018H76.1515V162.799ZM77.293 159.12C77.293 158.37 77.6105 157.891 78.1771 157.891C78.7547 157.891 79.0613 158.392 79.0613 159.12C79.0613 159.854 78.7492 160.363 78.1771 160.363C77.616 160.363 77.293 159.87 77.293 159.12ZM82.1435 159.684V157.018H81.0294V161.223H82.1873L83.6955 158.548V161.223H84.8069V157.018H83.6572L82.1435 159.684ZM85.4679 161.223H86.8284L87.9151 159.58H88.0793V161.223H89.2454V159.58H89.4097L90.4909 161.223H91.8513L90.3841 159.036L91.8431 157.018H90.5128L89.4206 158.663H89.2454V157.018H88.0793V158.663H87.8987L86.8065 157.018H85.4762L86.9379 159.036L85.4679 161.223ZM92.509 161.223H93.6751V159.731H94.1103L95.1477 161.223H96.5328L95.03 159.104L96.5164 157.018H95.1477L94.0035 158.65H93.6751V157.018H92.509V161.223ZM98.2245 161.302C98.8458 161.302 99.2482 161.031 99.4535 160.64H99.4864V161.223H100.592V158.387C100.592 157.385 99.7437 156.963 98.8075 156.963C97.8002 156.963 97.1378 157.445 96.9763 158.212L98.0548 158.299C98.1341 158.02 98.3832 157.815 98.802 157.815C99.1989 157.815 99.4261 158.015 99.4261 158.359V158.376C99.4261 158.647 99.1387 158.682 98.4079 158.754C97.5757 158.83 96.8284 159.109 96.8284 160.048C96.8284 160.881 97.4224 161.302 98.2245 161.302ZM98.5584 160.497C98.1998 160.497 97.9425 160.33 97.9425 160.01C97.9425 159.682 98.2135 159.52 98.6241 159.463C98.8787 159.427 99.2948 159.367 99.4344 159.274V159.72C99.4344 160.161 99.0703 160.497 98.5584 160.497Z" fill="white"/>
<path d="M164.389 161.299C165.648 161.299 166.549 160.607 166.546 159.649C166.549 158.951 166.105 158.453 165.281 158.349V158.305C165.908 158.192 166.341 157.749 166.338 157.119C166.341 156.235 165.566 155.54 164.405 155.54C163.256 155.54 162.391 156.213 162.374 157.182H163.51C163.524 156.755 163.915 156.479 164.4 156.479C164.879 156.479 165.199 156.769 165.197 157.191C165.199 157.631 164.824 157.93 164.285 157.93H163.762V158.8H164.285C164.92 158.8 165.317 159.118 165.314 159.569C165.317 160.016 164.934 160.322 164.392 160.322C163.869 160.322 163.478 160.048 163.456 159.638H162.262C162.281 160.618 163.157 161.299 164.389 161.299ZM169.446 161.299C170.694 161.299 171.542 160.486 171.54 159.353C171.542 158.28 170.792 157.508 169.782 157.508C169.289 157.508 168.865 157.713 168.668 157.99H168.635L168.78 156.586H171.23V155.617H167.803L167.538 158.573L168.591 158.762C168.764 158.529 169.098 158.384 169.429 158.384C169.993 158.387 170.398 158.795 170.398 159.383C170.398 159.966 170.001 160.369 169.446 160.369C168.975 160.369 168.594 160.073 168.567 159.638H167.417C167.439 160.607 168.285 161.299 169.446 161.299ZM174.564 161.346C175.974 161.346 176.825 160.273 176.828 158.425C176.831 156.591 175.969 155.54 174.564 155.54C173.157 155.54 172.303 156.588 172.301 158.425C172.295 160.267 173.152 161.343 174.564 161.346ZM174.564 160.363C173.921 160.363 173.505 159.717 173.508 158.425C173.51 157.152 173.924 156.512 174.564 156.512C175.202 156.512 175.618 157.152 175.618 158.425C175.621 159.717 175.205 160.363 174.564 160.363ZM182.305 159.364V158.598H177.917V159.364H178.418C178.295 159.534 178.215 159.739 178.212 159.947C178.215 160.787 178.867 161.299 180.126 161.299C181.437 161.299 182.036 160.831 182.099 159.775H180.892C180.87 160.196 180.575 160.347 180.126 160.347C179.677 160.347 179.398 160.169 179.395 159.854C179.398 159.693 179.469 159.506 179.606 159.364H182.305ZM180.148 156.504C180.558 156.504 180.775 156.665 180.772 156.917C180.775 157.114 180.701 157.267 180.556 157.399H177.917V158.184H182.305V157.399H181.741C181.864 157.232 181.946 157.037 181.943 156.824C181.946 156.055 181.292 155.54 180.126 155.54C178.951 155.54 178.357 156.06 178.297 157.002H179.491C179.507 156.681 179.718 156.504 180.148 156.504Z" fill="white"/>
<rect x="28.3828" y="186.083" width="177.29" height="33.9163" rx="5.13883" fill="#2B2F3A"/>
<path d="M193.339 202.117C193.595 202.117 193.802 202.324 193.802 202.579V205.354C193.802 205.61 193.595 205.817 193.339 205.817C193.084 205.817 192.877 205.61 192.877 205.354V202.579C192.877 202.324 193.084 202.117 193.339 202.117Z" fill="white"/>
<path d="M193.339 201.192C193.595 201.192 193.802 200.985 193.802 200.729C193.802 200.474 193.595 200.267 193.339 200.267C193.084 200.267 192.877 200.474 192.877 200.729C192.877 200.985 193.084 201.192 193.339 201.192Z" fill="white"/>
<path fill-rule="evenodd" clip-rule="evenodd" d="M193.339 207.667C195.894 207.667 197.964 205.596 197.964 203.042C197.964 200.487 195.894 198.417 193.339 198.417C190.785 198.417 188.714 200.487 188.714 203.042C188.714 205.596 190.785 207.667 193.339 207.667ZM193.339 206.742C195.383 206.742 197.039 205.085 197.039 203.042C197.039 200.998 195.383 199.342 193.339 199.342C191.296 199.342 189.639 200.998 189.639 203.042C189.639 205.085 191.296 206.742 193.339 206.742Z" fill="white"/>
<rect x="36.0911" y="192.764" width="20.5553" height="20.5553" rx="7.19437" fill="#A06AF9"/>
<path d="M40.5874 207.36H41.8144V205.903H45.457V207.354H46.684V204.885H46.0233V199.862H42.0268L41.8557 202.417C41.7525 203.997 41.4133 204.584 40.9974 204.885H40.5874V207.36ZM42.4722 204.885C42.776 204.387 43.0031 203.611 43.0827 202.417L43.1771 200.915H44.7963V204.885H42.4722ZM52.7902 201.977C52.622 200.582 51.5661 199.78 50.1681 199.78C48.5724 199.78 47.3543 200.906 47.3543 202.883C47.3543 204.853 48.5518 205.985 50.1681 205.985C51.7166 205.985 52.6515 204.956 52.7902 203.844L51.4983 203.838C51.3774 204.484 50.8701 204.856 50.1887 204.856C49.2714 204.856 48.6491 204.174 48.6491 202.883C48.6491 201.626 49.2626 200.909 50.1976 200.909C50.8966 200.909 51.401 201.313 51.4983 201.977H52.7902Z" fill="white"/>
<path d="M67.0609 206.648H68.1997V205.417H70.77V206.648H71.8813V204.491H71.2299V201.212H68.0053L67.8958 202.586C67.8301 203.413 67.7507 204.259 67.3839 204.491H67.0609V206.648ZM68.5446 204.491C68.7937 204.1 68.8895 203.484 68.9524 202.586L68.9962 202.11H70.1295V204.491H68.5446ZM73.6749 203.878V201.212H72.5609V205.417H73.7187L75.227 202.742V205.417H76.3383V201.212H75.1887L73.6749 203.878ZM76.8584 202.129H78.2025V205.417H79.3138V202.129H80.6688V201.212H76.8584V202.129ZM83.8392 205.417H84.926V201.212H83.0509C81.9615 201.212 81.2826 201.771 81.2881 202.592C81.2853 203.104 81.5728 203.503 82.0737 203.722L81.1676 205.417H82.2845L83.092 203.9H83.8392V205.417ZM83.8392 203.112H83.04C82.6157 203.112 82.3939 202.898 82.3994 202.625C82.3939 202.356 82.6211 202.126 83.0509 202.126H83.8392V203.112ZM89.4808 201.212H88.375V203.224C88.1751 203.271 87.9808 203.293 87.7782 203.293C87.1596 203.293 86.9324 203.128 86.9324 202.641V201.207H85.832V202.641C85.832 203.736 86.5683 204.21 87.7782 204.21C87.9616 204.21 88.1751 204.185 88.375 204.147V205.417H89.4808V201.212ZM91.5851 205.496C92.2065 205.496 92.6089 205.225 92.8142 204.834H92.847V205.417H93.9529V202.581C93.9529 201.579 93.1043 201.157 92.1682 201.157C91.1609 201.157 90.4984 201.639 90.3369 202.406L91.4154 202.493C91.4948 202.214 91.7439 202.009 92.1627 202.009C92.5596 202.009 92.7868 202.209 92.7868 202.553V202.57C92.7868 202.841 92.4994 202.876 91.7685 202.948C90.9364 203.024 90.1891 203.303 90.1891 204.242C90.1891 205.074 90.7831 205.496 91.5851 205.496ZM91.9191 204.691C91.5605 204.691 91.3032 204.524 91.3032 204.204C91.3032 203.876 91.5742 203.714 91.9848 203.657C92.2393 203.621 92.6554 203.561 92.795 203.468V203.914C92.795 204.355 92.431 204.691 91.9191 204.691ZM98.5413 205.499C99.6609 205.499 100.364 204.842 100.419 203.876H99.3187C99.2503 204.324 98.9546 204.576 98.555 204.576C98.0103 204.576 97.6572 204.119 97.6572 203.314C97.6572 202.521 98.013 202.066 98.555 202.066C98.982 202.066 99.2557 202.348 99.3187 202.767H100.419C100.37 201.795 99.6335 201.157 98.5358 201.157C97.2602 201.157 96.4719 202.042 96.4719 203.331C96.4719 204.609 97.2466 205.499 98.5413 205.499ZM100.886 202.129H102.231V205.417H103.342V202.129H104.697V201.212H100.886V202.129ZM105.404 206.993H106.57V204.743H106.605C106.767 205.094 107.12 205.485 107.799 205.485C108.757 205.485 109.504 204.727 109.504 203.32C109.504 201.875 108.724 201.157 107.802 201.157C107.098 201.157 106.761 201.576 106.605 201.918H106.553V201.212H105.404V206.993ZM106.545 203.314C106.545 202.564 106.863 202.085 107.429 202.085C108.007 202.085 108.313 202.586 108.313 203.314C108.313 204.048 108.001 204.557 107.429 204.557C106.868 204.557 106.545 204.064 106.545 203.314ZM111.396 203.878V201.212H110.282V205.417H111.439L112.948 202.742V205.417H114.059V201.212H112.909L111.396 203.878ZM114.72 205.417H116.081L117.167 203.774H117.332V205.417H118.498V203.774H118.662L119.743 205.417H121.104L119.636 203.23L121.095 201.212H119.765L118.673 202.857H118.498V201.212H117.332V202.857H117.151L116.059 201.212H114.728L116.19 203.23L114.72 205.417ZM121.761 205.417H122.927V203.925H123.363L124.4 205.417H125.785L124.282 203.298L125.769 201.212H124.4L123.256 202.844H122.927V201.212H121.761V205.417ZM127.477 205.496C128.098 205.496 128.5 205.225 128.706 204.834H128.739V205.417H129.844V202.581C129.844 201.579 128.996 201.157 128.06 201.157C127.052 201.157 126.39 201.639 126.228 202.406L127.307 202.493C127.386 202.214 127.635 202.009 128.054 202.009C128.451 202.009 128.678 202.209 128.678 202.553V202.57C128.678 202.841 128.391 202.876 127.66 202.948C126.828 203.024 126.081 203.303 126.081 204.242C126.081 205.074 126.675 205.496 127.477 205.496ZM127.811 204.691C127.452 204.691 127.195 204.524 127.195 204.204C127.195 203.876 127.466 203.714 127.876 203.657C128.131 203.621 128.547 203.561 128.687 203.468V203.914C128.687 204.355 128.322 204.691 127.811 204.691Z" fill="white"/>
<path d="M162.543 205.417H166.539V204.448H164.185V204.409L165.004 203.607C166.156 202.556 166.465 202.031 166.465 201.393C166.465 200.421 165.671 199.734 164.47 199.734C163.293 199.734 162.485 200.437 162.488 201.538H163.613C163.61 201.001 163.95 200.673 164.462 200.673C164.954 200.673 165.321 200.979 165.321 201.472C165.321 201.918 165.047 202.225 164.538 202.715L162.543 204.563V205.417ZM169.446 205.493C170.694 205.493 171.542 204.68 171.54 203.547C171.542 202.474 170.792 201.702 169.782 201.702C169.289 201.702 168.865 201.907 168.668 202.184H168.635L168.78 200.78H171.23V199.811H167.803L167.538 202.767L168.591 202.956C168.764 202.723 169.098 202.578 169.429 202.578C169.993 202.581 170.398 202.989 170.398 203.577C170.398 204.16 170.001 204.563 169.446 204.563C168.975 204.563 168.594 204.267 168.567 203.832H167.417C167.439 204.801 168.285 205.493 169.446 205.493ZM174.564 205.54C175.974 205.54 176.825 204.467 176.828 202.619C176.831 200.785 175.969 199.734 174.564 199.734C173.157 199.734 172.303 200.782 172.301 202.619C172.295 204.461 173.152 205.537 174.564 205.54ZM174.564 204.557C173.921 204.557 173.505 203.911 173.508 202.619C173.51 201.346 173.924 200.706 174.564 200.706C175.202 200.706 175.618 201.346 175.618 202.619C175.621 203.911 175.205 204.557 174.564 204.557ZM182.305 203.558V202.792H177.917V203.558H178.418C178.295 203.728 178.215 203.933 178.212 204.141C178.215 204.981 178.867 205.493 180.126 205.493C181.437 205.493 182.036 205.025 182.099 203.969H180.892C180.87 204.39 180.575 204.541 180.126 204.541C179.677 204.541 179.398 204.363 179.395 204.048C179.398 203.887 179.469 203.7 179.606 203.558H182.305ZM180.148 200.698C180.558 200.698 180.775 200.859 180.772 201.111C180.775 201.308 180.701 201.461 180.556 201.593H177.917V202.378H182.305V201.593H181.741C181.864 201.426 181.946 201.231 181.943 201.018C181.946 200.249 181.292 199.734 180.126 199.734C178.951 199.734 178.357 200.254 178.297 201.196H179.491C179.507 200.875 179.718 200.698 180.148 200.698Z" fill="white"/>
<rect x="28.3828" y="230.277" width="177.29" height="33.9163" rx="5.13883" fill="#2B2F3A"/>
<path d="M193.339 246.311C193.595 246.311 193.802 246.518 193.802 246.773V249.548C193.802 249.803 193.595 250.011 193.339 250.011C193.084 250.011 192.877 249.803 192.877 249.548V246.773C192.877 246.518 193.084 246.311 193.339 246.311Z" fill="white"/>
<path d="M193.339 245.386C193.595 245.386 193.802 245.179 193.802 244.923C193.802 244.668 193.595 244.461 193.339 244.461C193.084 244.461 192.877 244.668 192.877 244.923C192.877 245.179 193.084 245.386 193.339 245.386Z" fill="white"/>
<path fill-rule="evenodd" clip-rule="evenodd" d="M193.339 251.861C195.894 251.861 197.964 249.79 197.964 247.236C197.964 244.681 195.894 242.611 193.339 242.611C190.785 242.611 188.714 244.681 188.714 247.236C188.714 249.79 190.785 251.861 193.339 251.861ZM193.339 250.936C195.383 250.936 197.039 249.279 197.039 247.236C197.039 245.192 195.383 243.536 193.339 243.536C191.296 243.536 189.639 245.192 189.639 247.236C189.639 249.279 191.296 250.936 193.339 250.936Z" fill="white"/>
<rect x="36.0911" y="236.958" width="20.5553" height="20.5553" rx="7.19437" fill="#A06AF9"/>
<path d="M40.3053 244.056V250.097H41.5441V246.15H41.5943L43.1575 250.067H44.001L45.5643 246.165H45.6144V250.097H46.8532V244.056H45.2782L43.6147 248.115H43.5439L41.8804 244.056H40.3053ZM47.9054 250.097H50.1647C51.5981 250.097 52.4889 249.309 52.4889 248.168C52.4889 247.023 51.5981 246.289 50.1647 246.289H49.1825V245.109H51.9137V244.056H47.9054V250.097ZM49.1825 249.07V247.298H50.1647C50.849 247.298 51.2236 247.675 51.2236 248.156C51.2236 248.651 50.849 249.07 50.1647 249.07H49.1825Z" fill="white"/>
<path d="M69.8749 248.321L68.769 245.406H67.3894V249.611H68.5035V247.029L69.4862 249.611H70.2608L71.3038 246.936V249.611H72.4042V245.406H71.0136L69.8749 248.321ZM75.2058 249.693C76.4814 249.693 77.2752 248.82 77.2752 247.525C77.2752 246.222 76.4814 245.351 75.2058 245.351C73.9302 245.351 73.1364 246.222 73.1364 247.525C73.1364 248.82 73.9302 249.693 75.2058 249.693ZM75.2113 248.789C74.6227 248.789 74.3216 248.25 74.3216 247.517C74.3216 246.783 74.6227 246.241 75.2113 246.241C75.7888 246.241 76.0899 246.783 76.0899 247.517C76.0899 248.25 75.7888 248.789 75.2113 248.789ZM77.7049 250.842H78.8437V249.611H81.414V250.842H82.5253V248.685H81.8739V245.406H78.6493L78.5398 246.78C78.4741 247.607 78.3947 248.453 78.0279 248.685H77.7049V250.842ZM79.1886 248.685C79.4377 248.294 79.5335 247.678 79.5964 246.78L79.6402 246.304H80.7735V248.685H79.1886ZM85.121 249.693C86.1612 249.693 86.8619 249.186 87.0262 248.406L85.9477 248.335C85.83 248.655 85.5288 248.822 85.1401 248.822C84.5571 248.822 84.1876 248.436 84.1876 247.809V247.807H87.0508V247.486C87.0508 246.058 86.1858 245.351 85.0745 245.351C83.8372 245.351 83.0352 246.23 83.0352 247.528C83.0352 248.861 83.8262 249.693 85.121 249.693ZM84.1876 247.084C84.2122 246.605 84.5763 246.222 85.0936 246.222C85.6 246.222 85.9504 246.583 85.9531 247.084H84.1876ZM87.5654 249.611H87.9158C88.8081 249.611 89.2817 249.019 89.3529 247.607L89.4186 246.323H90.456V249.611H91.5673V245.406H88.3702L88.3017 247.267C88.2607 248.332 88.0964 248.685 87.6995 248.685H87.5599L87.5654 249.611ZM93.4157 245.406H92.2524V249.611H93.4157V247.993H94.0699C94.2396 249.008 94.9678 249.693 96.0545 249.693C97.3027 249.693 98.0773 248.787 98.0773 247.511C98.0773 246.236 97.3027 245.351 96.0545 245.351C94.9541 245.351 94.2232 246.036 94.0644 247.068H93.4157V245.406ZM96.0545 248.751C95.4057 248.751 95.1347 248.236 95.1375 247.511C95.1347 246.786 95.4057 246.279 96.0545 246.279C96.7005 246.279 96.9633 246.791 96.966 247.511C96.9633 248.228 96.7005 248.751 96.0545 248.751ZM98.8698 249.611H100.939C101.99 249.611 102.576 249.181 102.576 248.464C102.576 247.911 102.138 247.473 101.383 247.418C101.985 247.314 102.343 246.997 102.343 246.542C102.343 245.814 101.7 245.406 100.663 245.406H98.8698V249.611ZM99.9565 248.737V247.82H100.939C101.262 247.82 101.459 248.004 101.459 248.302C101.459 248.573 101.262 248.737 100.939 248.737H99.9565ZM99.9565 247.136V246.298H100.663C101.024 246.298 101.246 246.455 101.246 246.712C101.246 246.977 101.035 247.136 100.687 247.136H99.9565ZM104.51 249.69C105.131 249.69 105.534 249.419 105.739 249.028H105.772V249.611H106.878V246.775C106.878 245.773 106.029 245.351 105.093 245.351C104.086 245.351 103.423 245.833 103.262 246.6L104.34 246.687C104.42 246.408 104.669 246.203 105.088 246.203C105.484 246.203 105.712 246.403 105.712 246.747V246.764C105.712 247.035 105.424 247.07 104.693 247.142C103.861 247.218 103.114 247.497 103.114 248.436C103.114 249.268 103.708 249.69 104.51 249.69ZM104.844 248.885C104.485 248.885 104.228 248.718 104.228 248.398C104.228 248.07 104.499 247.908 104.91 247.851C105.164 247.815 105.58 247.755 105.72 247.662V248.108C105.72 248.549 105.356 248.885 104.844 248.885ZM108.897 245.406H107.782V249.611H108.897V247.96H110.334V249.611H111.439V245.406H110.334V247.043H108.897V245.406ZM113.458 245.406H112.344V249.611H113.458V247.96H114.895V249.611H116.001V245.406H114.895V247.043H113.458V245.406ZM119.369 249.611H120.456V245.406H118.581C117.492 245.406 116.813 245.965 116.818 246.786C116.816 247.298 117.103 247.697 117.604 247.916L116.698 249.611H117.815L118.622 248.094H119.369V249.611ZM119.369 247.306H118.57C118.146 247.306 117.924 247.092 117.93 246.819C117.924 246.55 118.151 246.32 118.581 246.32H119.369V247.306ZM126.642 243.862C126.436 244.007 126.108 244.005 125.659 244.005C125.552 244.005 125.44 244.002 125.32 244.005C123.79 244.018 122.99 244.976 122.99 247.002V247.347C122.99 248.874 123.779 249.693 125.051 249.693C126.322 249.693 127.107 248.874 127.107 247.59C127.107 246.359 126.387 245.622 125.314 245.622C124.638 245.622 124.184 245.915 123.932 246.43H123.891C123.989 245.398 124.384 244.974 125.358 244.963C126.22 244.949 126.639 244.919 126.998 244.623L126.642 243.862ZM125.057 248.789C124.507 248.789 124.175 248.346 124.175 247.629C124.181 246.912 124.509 246.507 125.051 246.507C125.591 246.507 125.922 246.912 125.922 247.629C125.922 248.349 125.591 248.789 125.057 248.789ZM129.781 249.693C131.056 249.693 131.85 248.82 131.85 247.525C131.85 246.222 131.056 245.351 129.781 245.351C128.505 245.351 127.711 246.222 127.711 247.525C127.711 248.82 128.505 249.693 129.781 249.693ZM129.786 248.789C129.198 248.789 128.897 248.25 128.897 247.517C128.897 246.783 129.198 246.241 129.786 246.241C130.364 246.241 130.665 246.783 130.665 247.517C130.665 248.25 130.364 248.789 129.786 248.789ZM132.608 251.187H133.775V248.937H133.81C133.972 249.288 134.325 249.679 135.004 249.679C135.962 249.679 136.709 248.921 136.709 247.514C136.709 246.069 135.929 245.351 135.006 245.351C134.303 245.351 133.966 245.77 133.81 246.112H133.758V245.406H132.608V251.187ZM133.75 247.508C133.75 246.758 134.067 246.279 134.634 246.279C135.212 246.279 135.518 246.78 135.518 247.508C135.518 248.242 135.206 248.751 134.634 248.751C134.073 248.751 133.75 248.258 133.75 247.508ZM139.386 249.693C140.662 249.693 141.455 248.82 141.455 247.525C141.455 246.222 140.662 245.351 139.386 245.351C138.11 245.351 137.317 246.222 137.317 247.525C137.317 248.82 138.11 249.693 139.386 249.693ZM139.391 248.789C138.803 248.789 138.502 248.25 138.502 247.517C138.502 246.783 138.803 246.241 139.391 246.241C139.969 246.241 140.27 246.783 140.27 247.517C140.27 248.25 139.969 248.789 139.391 248.789ZM141.885 250.842H143.024V249.611H145.594V250.842H146.706V248.685H146.054V245.406H142.83L142.72 246.78C142.654 247.607 142.575 248.453 142.208 248.685H141.885V250.842ZM143.369 248.685C143.618 248.294 143.714 247.678 143.777 246.78L143.82 246.304H144.954V248.685H143.369ZM148.499 248.072V245.406H147.385V249.611H148.543L150.051 246.936V249.611H151.163V245.406H150.013L148.499 248.072Z" fill="white"/>
<path d="M166.066 244.005H164.952L163.564 244.883V245.934L164.848 245.13H164.88V249.611H166.066V244.005ZM169.446 249.687C170.694 249.687 171.542 248.874 171.54 247.741C171.542 246.668 170.792 245.896 169.782 245.896C169.289 245.896 168.865 246.101 168.668 246.378H168.635L168.78 244.974H171.23V244.005H167.803L167.538 246.961L168.591 247.15C168.764 246.917 169.098 246.772 169.429 246.772C169.993 246.775 170.398 247.183 170.398 247.771C170.398 248.354 170.001 248.757 169.446 248.757C168.975 248.757 168.594 248.461 168.567 248.026H167.417C167.439 248.995 168.285 249.687 169.446 249.687ZM174.564 249.734C175.974 249.734 176.825 248.661 176.828 246.813C176.831 244.979 175.969 243.928 174.564 243.928C173.157 243.928 172.303 244.976 172.301 246.813C172.295 248.655 173.152 249.731 174.564 249.734ZM174.564 248.751C173.921 248.751 173.505 248.105 173.508 246.813C173.51 245.54 173.924 244.9 174.564 244.9C175.202 244.9 175.618 245.54 175.618 246.813C175.621 248.105 175.205 248.751 174.564 248.751ZM182.305 247.752V246.986H177.917V247.752H178.418C178.295 247.922 178.215 248.127 178.212 248.335C178.215 249.175 178.867 249.687 180.126 249.687C181.437 249.687 182.036 249.219 182.099 248.163H180.892C180.87 248.584 180.575 248.735 180.126 248.735C179.677 248.735 179.398 248.557 179.395 248.242C179.398 248.08 179.469 247.894 179.606 247.752H182.305ZM180.148 244.892C180.558 244.892 180.775 245.053 180.772 245.305C180.775 245.502 180.701 245.655 180.556 245.787H177.917V246.572H182.305V245.787H181.741C181.864 245.62 181.946 245.425 181.943 245.212C181.946 244.443 181.292 243.928 180.126 243.928C178.951 243.928 178.357 244.448 178.297 245.39H179.491C179.507 245.069 179.718 244.892 180.148 244.892Z" fill="white"/>
<rect x="28.3828" y="274.471" width="177.29" height="33.9163" rx="5.13883" fill="#2B2F3A"/>
<path d="M193.339 290.505C193.595 290.505 193.802 290.712 193.802 290.967V293.742C193.802 293.997 193.595 294.204 193.339 294.204C193.084 294.204 192.877 293.997 192.877 293.742V290.967C192.877 290.712 193.084 290.505 193.339 290.505Z" fill="white"/>
<path d="M193.339 289.58C193.595 289.58 193.802 289.372 193.802 289.117C193.802 288.862 193.595 288.655 193.339 288.655C193.084 288.655 192.877 288.862 192.877 289.117C192.877 289.372 193.084 289.58 193.339 289.58Z" fill="white"/>
<path fill-rule="evenodd" clip-rule="evenodd" d="M193.339 296.054C195.894 296.054 197.964 293.984 197.964 291.43C197.964 288.875 195.894 286.805 193.339 286.805C190.785 286.805 188.714 288.875 188.714 291.43C188.714 293.984 190.785 296.054 193.339 296.054ZM193.339 295.129C195.383 295.129 197.039 293.473 197.039 291.43C197.039 289.386 195.383 287.73 193.339 287.73C191.296 287.73 189.639 289.386 189.639 291.43C189.639 293.473 191.296 295.129 193.339 295.129Z" fill="white"/>
<rect x="36.0911" y="281.152" width="20.5553" height="20.5553" rx="7.19437" fill="#A06AF9"/>
<path d="M44.6761 294.373H45.1303C46.1213 294.373 46.5195 293.777 46.8233 293.105L48.9056 288.25H47.602L46.4133 291.223L44.9917 288.25H43.6703L45.8647 292.598L45.791 292.795C45.6671 293.152 45.4901 293.335 45.0035 293.335H44.6761V294.373Z" fill="white"/>
<path d="M68.1093 295.381C68.9771 295.381 69.4369 294.938 69.6751 294.259L71.3092 289.606L70.0747 289.6L69.196 292.688H69.1522L68.2818 289.6H67.0555L68.5637 293.925L68.4953 294.103C68.342 294.497 68.0491 294.516 67.6385 294.39L67.3757 295.261C67.5427 295.332 67.8137 295.381 68.1093 295.381ZM71.906 293.805H73.0721V292.313H73.5073L74.5447 293.805H75.9298L74.427 291.686L75.9134 289.6H74.5447L73.4005 291.231H73.0721V289.6H71.906V293.805ZM76.1762 293.805H76.5265C77.4189 293.805 77.8925 293.213 77.9636 291.801L78.0293 290.517H79.0668V293.805H80.1781V289.6H76.9809L76.9125 291.461C76.8714 292.526 76.7072 292.879 76.3103 292.879H76.1707L76.1762 293.805ZM82.281 293.884C82.9024 293.884 83.3048 293.613 83.5101 293.222H83.5429V293.805H84.6488V290.969C84.6488 289.967 83.8002 289.545 82.8641 289.545C81.8568 289.545 81.1943 290.027 81.0328 290.794L82.1113 290.881C82.1907 290.602 82.4398 290.397 82.8586 290.397C83.2555 290.397 83.4827 290.596 83.4827 290.941V290.958C83.4827 291.229 83.1953 291.264 82.4644 291.336C81.6323 291.412 80.885 291.691 80.885 292.63C80.885 293.462 81.479 293.884 82.281 293.884ZM82.615 293.079C82.2564 293.079 81.9991 292.912 81.9991 292.592C81.9991 292.263 82.2701 292.102 82.6807 292.044C82.9353 292.009 83.3513 291.949 83.4909 291.856V292.302C83.4909 292.742 83.1269 293.079 82.615 293.079ZM85.225 295.036H86.3637V293.805H88.9341V295.036H90.0454V292.879H89.3939V289.6H86.1694L86.0599 290.974C85.9942 291.801 85.9148 292.647 85.548 292.879H85.225V295.036ZM86.7086 292.879C86.9577 292.488 87.0535 291.872 87.1165 290.974L87.1603 290.498H88.2935V292.879H86.7086ZM90.7249 293.805H91.891V292.313H92.3263L93.3637 293.805H94.7488L93.246 291.686L94.7323 289.6H93.3637L92.2195 291.231H91.891V289.6H90.7249V293.805ZM96.4404 293.884C97.0618 293.884 97.4642 293.613 97.6695 293.222H97.7023V293.805H98.8082V290.969C98.8082 289.967 97.9596 289.545 97.0235 289.545C96.0161 289.545 95.3537 290.027 95.1922 290.794L96.2707 290.881C96.3501 290.602 96.5992 290.397 97.018 290.397C97.4149 290.397 97.6421 290.596 97.6421 290.941V290.958C97.6421 291.229 97.3547 291.264 96.6238 291.336C95.7917 291.412 95.0444 291.691 95.0444 292.63C95.0444 293.462 95.6384 293.884 96.4404 293.884ZM96.7744 293.079C96.4158 293.079 96.1585 292.912 96.1585 292.592C96.1585 292.263 96.4295 292.102 96.8401 292.044C97.0946 292.009 97.5107 291.949 97.6503 291.856V292.302C97.6503 292.742 97.2863 293.079 96.7744 293.079Z" fill="white"/>
<path d="M162.204 293.805H166.2V292.836H163.846V292.797L164.665 291.995C165.817 290.944 166.127 290.419 166.127 289.781C166.127 288.809 165.333 288.122 164.131 288.122C162.954 288.122 162.146 288.825 162.149 289.926H163.274C163.272 289.389 163.611 289.061 164.123 289.061C164.616 289.061 164.982 289.367 164.982 289.86C164.982 290.306 164.709 290.613 164.199 291.103L162.204 292.951V293.805ZM169.257 293.928C170.667 293.928 171.518 292.855 171.521 291.007C171.524 289.173 170.662 288.122 169.257 288.122C167.85 288.122 166.996 289.17 166.994 291.007C166.988 292.849 167.845 293.925 169.257 293.928ZM169.257 292.945C168.614 292.945 168.198 292.299 168.201 291.007C168.203 289.734 168.617 289.094 169.257 289.094C169.895 289.094 170.311 289.734 170.311 291.007C170.314 292.299 169.898 292.945 169.257 292.945ZM174.564 293.928C175.974 293.928 176.825 292.855 176.828 291.007C176.831 289.173 175.969 288.122 174.564 288.122C173.157 288.122 172.303 289.17 172.301 291.007C172.295 292.849 173.152 293.925 174.564 293.928ZM174.564 292.945C173.921 292.945 173.505 292.299 173.508 291.007C173.51 289.734 173.924 289.094 174.564 289.094C175.202 289.094 175.618 289.734 175.618 291.007C175.621 292.299 175.205 292.945 174.564 292.945ZM182.305 291.946V291.179H177.917V291.946H178.418C178.295 292.116 178.215 292.321 178.212 292.529C178.215 293.369 178.867 293.881 180.126 293.881C181.437 293.881 182.036 293.413 182.099 292.357H180.892C180.87 292.778 180.575 292.929 180.126 292.929C179.677 292.929 179.398 292.751 179.395 292.436C179.398 292.274 179.469 292.088 179.606 291.946H182.305ZM180.148 289.085C180.558 289.085 180.775 289.247 180.772 289.499C180.775 289.696 180.701 289.849 180.556 289.981H177.917V290.766H182.305V289.981H181.741C181.864 289.814 181.946 289.619 181.943 289.406C181.946 288.637 181.292 288.122 180.126 288.122C178.951 288.122 178.357 288.642 178.297 289.584H179.491C179.507 289.263 179.718 289.085 180.148 289.085Z" fill="white"/>
<defs>
<filter id="filter0_ii_3195:6982" x="-1.15079" y="-5.75394" width="239.939" height="491.387" filterUnits="userSpaceOnUse" color-interpolation-filters="sRGB">
<feFlood flood-opacity="0" result="BackgroundImageFix"/>
<feBlend mode="normal" in="SourceGraphic" in2="BackgroundImageFix" result="shape"/>
<feColorMatrix in="SourceAlpha" type="matrix" values="0 0 0 0 0 0 0 0 0 0 0 0 0 0 0 0 0 0 127 0" result="hardAlpha"/>
<feOffset dx="5.75394" dy="1.15079"/>
<feGaussianBlur stdDeviation="5.75394"/>
<feComposite in2="hardAlpha" operator="arithmetic" k2="-1" k3="1"/>
<feColorMatrix type="matrix" values="0 0 0 0 0.105882 0 0 0 0 0.113725 0 0 0 0 0.129412 0 0 0 1 0"/>
<feBlend mode="normal" in2="shape" result="effect1_innerShadow_3195:6982"/>
<feColorMatrix in="SourceAlpha" type="matrix" values="0 0 0 0 0 0 0 0 0 0 0 0 0 0 0 0 0 0 127 0" result="hardAlpha"/>
<feOffset dx="-1.15079" dy="-5.75394"/>
<feGaussianBlur stdDeviation="5.75394"/>
<feComposite in2="hardAlpha" operator="arithmetic" k2="-1" k3="1"/>
<feColorMatrix type="matrix" values="0 0 0 0 0.399479 0 0 0 0 0.514406 0 0 0 0 0.7375 0 0 0 0.25 0"/>
<feBlend mode="normal" in2="effect1_innerShadow_3195:6982" result="effect2_innerShadow_3195:6982"/>
</filter>
<linearGradient id="paint0_linear_3195:6982" x1="10.9108" y1="10.3354" x2="223.569" y2="470.816" gradientUnits="userSpaceOnUse">
<stop stop-color="#1C192D"/>
<stop offset="0.40625" stop-color="#181A20"/>
</linearGradient>
</defs>
</svg>
