<svg viewBox="0 0 142 43" fill="none" xmlns="http://www.w3.org/2000/svg">
<g filter="url(#filter0_d_2500:4605)">
<path d="M20.9847 0.899146C20.0526 1.55788 18.5611 1.54545 16.5227 1.54545C16.038 1.54545 15.5284 1.53302 14.9815 1.54545C8.03374 1.6076 4.40447 5.95774 4.40447 15.1552V16.7212C4.40447 23.6566 7.98402 27.3729 13.7635 27.3729C19.5305 27.3729 23.0977 23.6566 23.0977 17.8274C23.0977 12.2344 19.8288 8.89098 14.9567 8.89098C11.8867 8.89098 9.82351 10.2209 8.68004 12.5575H8.49361C8.94105 7.8718 10.7308 5.94531 15.1555 5.8956C19.0707 5.83345 20.9723 5.69673 22.6005 4.3544L20.9847 0.899146ZM13.7884 23.2713C11.2901 23.2713 9.78622 21.2578 9.78622 18.0014C9.81108 14.745 11.3026 12.9055 13.7635 12.9055C16.212 12.9055 17.7159 14.745 17.7159 18.0014C17.7159 21.2702 16.212 23.2713 13.7884 23.2713ZM23.8279 34.1591H29.1226L30.8129 23.9425H30.9994C31.4717 25.5334 32.7643 27.3107 35.8467 27.3107C40.1968 27.3107 44.1741 23.8679 45.2306 17.4794C46.3119 10.9169 43.3289 7.66051 39.1404 7.66051C35.9461 7.66051 34.0693 9.56214 33.1247 11.1158H32.901L33.423 7.90909H28.2029L23.8279 34.1591ZM31.7948 17.4545C32.3417 14.049 34.1688 11.8739 36.7291 11.8739C39.3517 11.8739 40.346 14.1484 39.824 17.4545C39.2398 20.7855 37.4873 23.0973 34.8772 23.0973C32.3293 23.0973 31.248 20.8601 31.7948 17.4545ZM57.3861 27.3729C63.178 27.3729 66.7824 23.408 66.7824 17.5291C66.7824 11.6129 63.178 7.66051 57.3861 7.66051C51.5942 7.66051 47.9898 11.6129 47.9898 17.5291C47.9898 23.408 51.5942 27.3729 57.3861 27.3729ZM57.411 23.2713C54.7387 23.2713 53.3715 20.8228 53.3715 17.4918C53.3715 14.1609 54.7387 11.6999 57.411 11.6999C60.0335 11.6999 61.4007 14.1609 61.4007 17.4918C61.4007 20.8228 60.0335 23.2713 57.411 23.2713ZM76.8996 7.90909H71.8534L68.6716 27H73.7178L74.9731 19.5053H81.4983L80.243 27H85.2643L88.4461 7.90909H83.4248L82.1819 15.3416H75.6567L76.8996 7.90909ZM96.8512 7.90909H91.5689L88.3871 27H93.6694L94.8999 19.6545H97.8704C97.8828 24.2656 100.667 27.3729 105.601 27.3729C111.269 27.3729 115.457 23.2589 116.427 17.467C117.384 11.6751 114.55 7.66051 108.882 7.66051C103.886 7.66051 100.045 10.7678 98.5415 15.4535H95.5959L96.8512 7.90909ZM106.322 23.0973C103.364 23.0973 102.519 20.7607 103.078 17.467C103.613 14.1733 105.216 11.8739 108.174 11.8739C111.107 11.8739 111.915 14.1982 111.381 17.467C110.846 20.7234 109.255 23.0973 106.322 23.0973ZM125.084 20.0149V7.90909H120.025V27H125.282L132.131 14.8569V27H137.177V7.90909H131.957L125.084 20.0149ZM131.05 1.24716C131.05 2.41548 130.354 3.47195 128.589 3.47195C126.774 3.47195 126.103 2.39062 126.115 1.24716H122.449C122.449 4.25497 124.823 6.26847 128.589 6.26847C132.355 6.26847 134.729 4.25497 134.741 1.24716H131.05Z" fill="url(#paint0_linear_2500:4605)"/>
</g>
<defs>
<filter id="filter0_d_2500:4605" x="0.40448" y="0.899139" width="140.773" height="41.2599" filterUnits="userSpaceOnUse" color-interpolation-filters="sRGB">
<feFlood flood-opacity="0" result="BackgroundImageFix"/>
<feColorMatrix in="SourceAlpha" type="matrix" values="0 0 0 0 0 0 0 0 0 0 0 0 0 0 0 0 0 0 127 0" result="hardAlpha"/>
<feOffset dy="4"/>
<feGaussianBlur stdDeviation="2"/>
<feComposite in2="hardAlpha" operator="out"/>
<feColorMatrix type="matrix" values="0 0 0 0 0 0 0 0 0 0 0 0 0 0 0 0 0 0 0.25 0"/>
<feBlend mode="normal" in2="BackgroundImageFix" result="effect1_dropShadow_2500:4605"/>
<feBlend mode="normal" in="SourceGraphic" in2="effect1_dropShadow_2500:4605" result="shape"/>
</filter>
<linearGradient id="paint0_linear_2500:4605" x1="3" y1="-7" x2="139.768" y2="35.7411" gradientUnits="userSpaceOnUse">
<stop stop-color="#5FC5FF"/>
<stop offset="1" stop-color="#A06AF9"/>
</linearGradient>
</defs>
</svg>
