<svg width="20" height="20" viewBox="0 0 20 20" fill="none" xmlns="http://www.w3.org/2000/svg">
<path fill-rule="evenodd" clip-rule="evenodd" d="M6.91074 3.57756C7.06701 3.42132 7.27893 3.33356 7.4999 3.33356C7.72087 3.33356 7.9328 3.42132 8.08907 3.57756L13.9224 9.41118C14.0786 9.56746 14.1664 9.77939 14.1664 10.0004C14.1664 10.2214 14.0786 10.4333 13.9224 10.5896L8.08907 16.4232C7.9319 16.575 7.7214 16.659 7.5029 16.6571C7.28441 16.6552 7.07539 16.5676 6.92089 16.413C6.76638 16.2585 6.67874 16.0495 6.67684 15.831C6.67494 15.6125 6.75894 15.402 6.91074 15.2448L12.1549 10.0004L6.91074 4.75595C6.75451 4.59967 6.66675 4.38773 6.66675 4.16675C6.66675 3.94577 6.75451 3.73384 6.91074 3.57756Z" fill="#4E5256"/>
</svg>
