<svg width="22" height="22" viewBox="0 0 22 22" fill="none" xmlns="http://www.w3.org/2000/svg">
<path fill-rule="evenodd" clip-rule="evenodd" d="M7.39285 3.82719C7.56002 3.66005 7.78673 3.56616 8.02312 3.56616C8.2595 3.56616 8.48621 3.66005 8.65339 3.82719L14.8937 10.0678C15.0608 10.235 15.1547 10.4617 15.1547 10.6981C15.1547 10.9345 15.0608 11.1612 14.8937 11.3284L8.65339 17.569C8.48526 17.7314 8.26007 17.8213 8.02633 17.8193C7.79259 17.8172 7.56899 17.7235 7.40371 17.5582C7.23842 17.3929 7.14467 17.1693 7.14263 16.9355C7.1406 16.7018 7.23046 16.4766 7.39285 16.3084L13.0029 10.6981L7.39285 5.08779C7.22572 4.92061 7.13184 4.69389 7.13184 4.45749C7.13184 4.22109 7.22572 3.99437 7.39285 3.82719Z" fill="#686C7C"/>
</svg>
