<svg width="20" height="19" fill="none" xmlns="http://www.w3.org/2000/svg"><path fill-rule="evenodd" clip-rule="evenodd" d="M4 0C2.94 0 1.922.4 1.172 1.11A3.689 3.689 0 000 3.787V15.15c0 1.004.421 1.968 1.172 2.678.75.71 1.767 1.11 2.828 1.11h12c1.06 0 2.078-.4 2.828-1.11A3.688 3.688 0 0020 15.151V3.788a3.688 3.688 0 00-1.172-2.679A4.116 4.116 0 0016 0H4zM2 3.788c0-.503.21-.984.586-1.34A2.058 2.058 0 014 1.895h12c.53 0 1.04.2 1.414.555.375.355.586.836.586 1.339V15.15c0 .502-.21.984-.586 1.339a2.058 2.058 0 01-1.414.555H4c-.53 0-1.04-.2-1.414-.555A1.844 1.844 0 012 15.15V3.789zm5 4.734a.922.922 0 00-.293-.67A1.03 1.03 0 006 7.576c-.265 0-.52.1-.707.278a.922.922 0 00-.293.67v5.68c0 .252.105.493.293.67.187.178.442.278.707.278.265 0 .52-.1.707-.278a.922.922 0 00.293-.67v-5.68zm.5-3.314c0 .377-.158.738-.44 1.004A1.544 1.544 0 016 6.628c-.398 0-.78-.15-1.06-.416a1.383 1.383 0 01-.44-1.004c0-.377.158-.738.44-1.004A1.544 1.544 0 016 3.788c.398 0 .78.15 1.06.416.282.266.44.627.44 1.004zM10 7.575c.34 0 .64.161.82.406a3.666 3.666 0 011.68-.406c2.16 0 3.5 1.824 3.5 3.382v3.247a.922.922 0 01-.293.67 1.03 1.03 0 01-.707.277c-.265 0-.52-.1-.707-.278a.922.922 0 01-.293-.67v-3.247c0-.727-.66-1.488-1.5-1.488-.524 0-1.103.27-1.5.912v3.824a.922.922 0 01-.293.67 1.03 1.03 0 01-.707.277c-.265 0-.52-.1-.707-.278a.922.922 0 01-.293-.67v-5.68c0-.252.105-.493.293-.67A1.03 1.03 0 0110 7.575z" fill="#000"/></svg>